<svg width="280" height="117" viewBox="0 0 280 117" fill="none" xmlns="http://www.w3.org/2000/svg">
<path d="M0 88V87.5088C0.583333 87.5088 1 87.4269 1.33333 87.2632C1.75 87.0175 1.91667 86.6082 1.91667 86.0351V75.9649C1.91667 75.3918 1.75 74.9825 1.33333 74.7368C1.08333 74.655 0.666667 74.4912 0 74.4912V74H12V78.1754H11.5C11.25 76.8655 10.75 75.9649 10.1667 75.4737C9.5 74.9825 8.41667 74.655 6.75 74.655C6.08333 74.655 5.75 74.655 5.58333 74.9006C5.41667 75.0643 5.33333 75.3099 5.33333 75.6374V80.4678C6.5 80.4678 7.25 80.2222 7.66667 79.731C8.08333 79.2398 8.33333 78.4211 8.58333 77.3567H9.08333V84.3977H8.58333C8.41667 83.2515 8.16667 82.4328 7.66667 81.9415C7.25 81.4503 6.41667 81.2047 5.33333 81.2047V86.0351C5.33333 86.6901 5.5 87.0994 5.91667 87.2632C6.33333 87.4269 6.91667 87.5088 7.66667 87.5088V88H0V88Z" fill="#2857AF"/>
<path d="M25.1006 87.9186H13V87.4302C13.5723 87.4302 13.9811 87.3488 14.2264 87.186C14.6352 86.9419 14.7987 86.5349 14.7987 85.9651V75.9535C14.7987 75.3837 14.5535 74.8953 14.2264 74.7326C13.9811 74.6512 13.5723 74.5698 13 74.4884V74H25.0189V78.1512H24.5283C24.283 76.8488 23.7925 75.8721 23.2201 75.3837C22.566 74.8953 21.4214 74.6512 19.7044 74.6512C19.0503 74.6512 18.6415 74.6512 18.478 74.814C18.3145 74.9767 18.2327 75.2209 18.2327 75.6279V80.4302C19.3774 80.4302 20.195 80.2674 20.6038 79.7791C21.0126 79.2907 21.3396 78.5581 21.5849 77.3372H22.1572V84.3372H21.5849C21.4214 83.1977 21.0943 82.3023 20.6855 81.814C20.195 81.3256 19.3774 81.0814 18.2327 81.0814V86.1279C18.2327 86.5349 18.3145 86.8605 18.5597 87.0233C18.805 87.186 19.2956 87.2674 19.9497 87.2674C21.2579 87.2674 22.3208 87.0233 23.2201 86.5349C24.0377 86.0465 24.7736 85.0698 25.4277 83.686H26L25.1824 88L25.1006 87.9186Z" fill="#2857AF"/>
<path d="M32.0465 75.8012C32.0465 75.3918 32.0465 75.0643 32.2093 74.9006C32.3721 74.655 32.6977 74.5731 33.2674 74.5731C34.8953 74.5731 36.0349 75.3918 36.7674 77.1111C37.1744 78.1754 37.4186 79.4035 37.4186 80.8772C37.4186 83.3333 37.0116 85.0526 36.2791 85.8713C35.4651 86.7719 34.4884 87.1813 33.2674 87.1813C32.7791 87.1813 32.5349 87.0994 32.3721 86.8538C32.2093 86.6901 32.1279 86.3626 32.1279 85.9532V75.7193L32.0465 75.8012ZM33.5116 88C35.8721 88 37.7442 87.2632 39.1279 85.7895C40.3488 84.4795 41 82.8421 41 81.0409C41 78.9123 40.4302 77.2749 39.2093 76.0468C37.8256 74.655 35.9535 74 33.3488 74H27V74.4912C27.5698 74.4912 27.8953 74.655 28.1395 74.7368C28.5465 74.9825 28.7093 75.3099 28.7093 75.883V86.117C28.7093 86.6901 28.5465 87.0175 28.1395 87.2632C27.8953 87.345 27.5698 87.4269 27 87.5088V88H33.5116V88Z" fill="#2857AF"/>
<path d="M53.9568 87.9186H42V87.4302C42.642 87.4302 43.0432 87.3488 43.2839 87.186C43.6852 86.9419 43.8457 86.5349 43.8457 85.9651V75.9535C43.8457 75.3837 43.6852 74.8953 43.2839 74.7326C43.0432 74.6512 42.642 74.5698 42.0802 74.4884V74H53.8765V78.1512H53.3951C53.1543 76.8488 52.6728 75.8721 52.1111 75.3837C51.4691 74.8953 50.3457 74.6512 48.7407 74.6512C48.0988 74.6512 47.6975 74.6512 47.537 74.814C47.3765 74.9767 47.2963 75.2209 47.2963 75.6279V80.4302C48.5 80.4302 49.2222 80.2674 49.7037 79.7791C50.1049 79.2907 50.4259 78.5581 50.6667 77.3372H51.2284V84.3372H50.6667C50.5062 83.1977 50.1852 82.3023 49.7839 81.814C49.3025 81.3256 48.5 81.0814 47.3765 81.0814V86.1279C47.3765 86.5349 47.4568 86.8605 47.6975 87.0233C47.9383 87.186 48.3395 87.2674 49.0617 87.2674C50.3457 87.2674 51.4691 87.0233 52.2716 86.5349C53.0741 86.0465 53.7963 85.0698 54.4383 83.686H55L54.1975 88L53.9568 87.9186Z" fill="#2857AF"/>
<path d="M61.3448 75.5556C61.3448 75.5556 61.431 74.9825 61.6034 74.9006C61.7759 74.7368 62.2069 74.655 62.7241 74.655C63.7586 74.655 64.5345 75.0643 64.9655 75.883C65.2241 76.3743 65.3103 77.0292 65.3103 77.7661C65.3103 79.076 65.0517 79.8947 64.3621 80.3041C63.7586 80.6316 62.7241 80.8772 61.2586 80.8772V75.5556H61.3448ZM63.2414 88V87.5088C62.4655 87.5088 61.9483 87.345 61.6897 87.0994C61.431 86.8538 61.3448 86.3626 61.3448 85.6257V81.5322H61.9483L66.5172 88H71V87.5088C71 87.5088 70.6552 87.5088 70.4828 87.4269L70.1379 87.0994L65.7414 81.2047C66.5172 81.0409 67.2069 80.7953 67.8965 80.3041C68.7586 79.6491 69.1897 78.7485 69.1897 77.6023C69.1897 76.0468 68.3276 74.9825 66.6034 74.4094C65.7414 74.0819 64.5345 74 63.069 74H56V74.4912C56.7759 74.4912 57.2069 74.655 57.4655 74.8187C57.8103 75.0643 57.9828 75.5556 57.9828 76.3743V85.5439C57.9828 86.2807 57.8103 86.8538 57.5517 87.0994C57.2931 87.345 56.7759 87.4269 56 87.5088V88H63.4138H63.2414Z" fill="#2857AF"/>
<path d="M77.6163 78.5341H77.7791L79.7326 83.2273H75.7442L77.6163 78.5341ZM76.2326 88V87.5227C75.7442 87.5227 75.4186 87.5227 75.1744 87.3636C74.7674 87.2841 74.6047 87.0455 74.6047 86.7273C74.6047 86.4886 74.686 86.0909 74.8488 85.6136C74.9302 85.375 75.093 84.8182 75.4186 84.0227H80.0581L80.5465 85.2159C80.5465 85.2159 80.7907 85.6932 80.7907 85.9318C80.8721 86.25 80.9535 86.4886 80.9535 86.6477C80.9535 86.9659 80.8721 87.2045 80.6279 87.2841C80.3837 87.3636 79.9767 87.4432 79.3256 87.4432V87.9205H86V87.4432C85.5116 87.4432 85.186 87.2841 84.9419 86.9659C84.6977 86.6477 84.2907 85.8523 83.8023 84.6591L79.1628 74H78.593L74.0349 85.0568C73.6279 85.9318 73.3837 86.4886 73.2209 86.7273C72.8953 87.125 72.4884 87.3636 72 87.3636V87.8409H76.2326V88Z" fill="#2857AF"/>
<path d="M94.142 74.0778C95.0247 74.0778 95.8272 74.2333 96.7099 74.5444C97.5926 74.8556 98.0741 75.0111 98.1543 75.0111C98.3951 75.0111 98.6358 74.9333 98.7963 74.7C98.9568 74.4667 99.037 74.3111 99.1173 74.0778H99.679V78.7444H99.1975C98.716 77.7333 98.2346 76.9556 97.6728 76.3333C96.7099 75.2444 95.6667 74.7 94.3827 74.7C93.0185 74.7 92.0556 75.2444 91.4938 76.4111C90.9321 77.5778 90.6111 79.1333 90.6111 81C90.6111 82.4 90.7716 83.5667 91.0926 84.5C91.7346 86.2111 92.9383 87.0667 94.6235 87.0667C95.6667 87.0667 96.6296 86.7556 97.5123 86.2111C98.0741 85.9 98.6358 85.3556 99.358 84.6556L100 85.1222C99.1975 85.9778 98.4753 86.6 97.9136 86.9889C96.8704 87.6889 95.6667 88 94.3025 88C92.2963 88 90.6111 87.4556 89.2469 86.2889C87.7222 85.0444 87 83.2556 87 81.0778C87 78.9 87.7222 77.1889 89.1667 75.8667C90.5309 74.6222 92.216 74 94.142 74" fill="#2857AF"/>
<path d="M101 88V87.5088C101.615 87.5088 102.055 87.4269 102.407 87.2632C102.846 87.0175 103.11 86.6082 103.11 86.0351V75.9649C103.11 75.3099 102.934 74.9006 102.495 74.7368C102.231 74.655 101.791 74.5731 101.088 74.4912V74H108.912V74.4912C108.209 74.4912 107.769 74.655 107.505 74.7368C107.066 74.9825 106.89 75.3918 106.89 75.9649V86.0351C106.89 86.6082 107.066 87.0175 107.418 87.1813C107.769 87.345 108.297 87.5088 109 87.5088V88H101.176H101Z" fill="#2857AF"/>
<path d="M113.167 84.6154C112.833 83.6923 112.667 82.4615 112.667 80.9231C112.667 79.3846 112.833 78.2308 113.167 77.3077C113.75 75.5385 114.833 74.6923 116.5 74.6923C117.667 74.6923 118.583 75.2308 119.25 76.3077C119.917 77.3846 120.25 78.9231 120.25 81C120.25 82.5385 120.083 83.7692 119.75 84.6923C119.167 86.4615 118.083 87.3077 116.5 87.3077C114.917 87.3077 113.833 86.4615 113.25 84.6923L113.167 84.6154ZM111.083 76.0769C109.667 77.3846 109 79.0769 109 81.1538C109 83 109.667 84.6154 111 85.9231C112.417 87.3077 114.25 88 116.5 88C118.667 88 120.417 87.3846 121.833 86.0769C123.333 84.7692 124 83.0769 124 81C124 78.9231 123.25 77.3077 121.833 75.9231C120.417 74.6154 118.667 74 116.5 74C114.333 74 112.5 74.6923 111.083 76" fill="#2857AF"/>
<path d="M125.086 87.5227V87.0454C125.857 87.0454 126.457 86.8864 126.629 86.6477C126.886 86.4091 126.971 86.0114 126.971 85.4545V75.9091C126.286 75.1932 125.857 74.7955 125.771 74.7159C125.6 74.6364 125.429 74.5568 125.086 74.4773V74H129.714L137.257 82.5114H137.343V76.4659C137.343 75.75 137.171 75.2727 136.914 75.0341C136.657 74.7159 136.143 74.5568 135.286 74.4773V74H140V74.4773C139.314 74.6364 138.886 74.7159 138.629 74.875C138.371 75.0341 138.286 75.4318 138.286 76.0682V88H137.686L128.086 77.1818H127.914V85.1364C127.914 85.7727 128 86.1705 128.171 86.4886C128.429 86.8864 129.029 87.125 129.971 87.125V87.6023H125L125.086 87.5227Z" fill="#2857AF"/>
<path d="M153.074 75.4651C153.074 75.4651 153.154 74.9767 153.315 74.8954C153.477 74.814 153.799 74.7326 154.201 74.7326C155.087 74.7326 155.651 75.0581 155.973 75.6279C156.295 76.1977 156.456 76.9302 156.456 77.907C156.456 79.2907 156.134 80.186 155.49 80.593C155.087 80.8372 154.282 81 153.074 81V75.4651V75.4651ZM154.846 88V87.5116C154.121 87.5116 153.718 87.3488 153.477 87.1047C153.235 86.8605 153.074 86.3721 153.074 85.5581V81.7326C154.282 81.7326 155.248 81.7326 155.812 81.6512C156.456 81.6512 157.02 81.407 157.664 81.1628C158.47 80.7558 159.114 80.3488 159.436 79.6977C159.758 79.1279 160 78.4767 160 77.8256C160 76.4419 159.517 75.4651 158.631 74.8954C157.745 74.3256 156.376 74 154.604 74H148V74.4884C148.644 74.5698 149.128 74.7326 149.369 74.8954C149.611 75.1395 149.691 75.6279 149.691 76.3605V85.4767C149.691 86.2093 149.53 86.6977 149.369 86.9419C149.128 87.186 148.725 87.3488 148 87.3488V87.8372H154.846V88Z" fill="#2857AF"/>
<path d="M166.291 78.5341H166.442L168.256 83.2273H164.552L166.291 78.5341ZM165.006 88V87.5227C164.552 87.5227 164.25 87.5227 164.023 87.3636C163.645 87.2841 163.494 87.0455 163.494 86.7273C163.494 86.4886 163.57 86.0909 163.721 85.6136C163.797 85.375 163.948 84.8182 164.25 84.0227H168.558L169.012 85.2159C169.012 85.2159 169.163 85.6932 169.238 85.9318C169.314 86.25 169.39 86.4886 169.39 86.6477C169.39 86.9659 169.314 87.2045 169.087 87.2841C168.86 87.3636 168.483 87.4432 167.802 87.4432V87.9205H174V87.4432C173.547 87.4432 173.244 87.2841 173.017 86.9659C172.791 86.6477 172.413 85.8523 171.959 84.6591L167.651 74H167.122L162.89 85.0568C162.512 85.9318 162.285 86.4886 162.134 86.7273C161.831 87.125 161.453 87.3636 161 87.3636V87.8409H164.93L165.006 88Z" fill="#2857AF"/>
<path d="M174.155 78.1512V74H186V78.1512H185.458C185.303 76.686 184.761 75.6279 183.832 75.1395C183.368 74.8954 182.594 74.7326 181.587 74.6512V85.5581C181.587 86.2907 181.742 86.8605 181.974 87.1047C182.206 87.3488 182.748 87.5116 183.523 87.5116V88H176.555V87.5116C177.329 87.5116 177.871 87.3488 178.103 87.1047C178.335 86.8605 178.49 86.3721 178.49 85.5581V74.6512C177.561 74.6512 176.787 74.814 176.245 75.1395C175.316 75.7093 174.774 76.686 174.619 78.1512H174H174.155Z" fill="#2857AF"/>
<path d="M191.989 75.5556C191.989 75.5556 192.069 74.9825 192.23 74.9006C192.391 74.7368 192.793 74.655 193.276 74.655C194.241 74.655 194.966 75.0643 195.368 75.883C195.609 76.3743 195.69 77.0292 195.69 77.7661C195.69 79.076 195.368 79.8947 194.805 80.3041C194.241 80.6316 193.276 80.8772 191.908 80.8772V75.5556H191.989ZM193.759 88V87.5088C193.034 87.5088 192.552 87.345 192.31 87.0994C192.069 86.8538 191.989 86.3626 191.989 85.6257V81.5322H192.552L196.816 88H201V87.5088C201 87.5088 200.678 87.5088 200.517 87.4269L200.195 87.0994L196.092 81.2047C196.816 81.0409 197.46 80.7953 198.103 80.3041C198.908 79.6491 199.31 78.7485 199.31 77.6023C199.31 76.0468 198.506 74.9825 196.897 74.4094C196.011 74.0819 194.966 74 193.598 74H187V74.4912C187.724 74.4912 188.126 74.655 188.368 74.8187C188.69 75.0643 188.851 75.5556 188.851 76.3743V85.5439C188.851 86.2807 188.69 86.8538 188.448 87.0994C188.207 87.345 187.724 87.4269 187 87.5088V88H193.92H193.759Z" fill="#2857AF"/>
<path d="M205.945 84.6154C205.635 83.6923 205.481 82.4615 205.481 80.9231C205.481 79.3846 205.635 78.2308 205.945 77.3077C206.486 75.5385 207.492 74.6923 208.961 74.6923C210.044 74.6923 210.895 75.2308 211.514 76.3077C212.133 77.3846 212.442 78.9231 212.442 81C212.442 82.5385 212.287 83.7692 211.978 84.6923C211.436 86.4615 210.431 87.3077 208.961 87.3077C207.492 87.3077 206.486 86.4615 205.945 84.6923V84.6154ZM203.934 76.0769C202.619 77.3846 202 79.0769 202 81.1538C202 83 202.619 84.6154 203.856 85.9231C205.171 87.3077 206.873 88 209.039 88C211.05 88 212.674 87.3846 213.989 86.0769C215.304 84.7692 216 83.0769 216 81C216 78.9231 215.304 77.3077 213.989 75.9231C212.674 74.6154 211.05 74 209.039 74C207.028 74 205.326 74.6923 204.011 76" fill="#2857AF"/>
<path d="M216.16 87.5227V87.0454C216.96 87.0454 217.44 86.8864 217.6 86.6477C217.84 86.4091 217.92 86.0114 217.92 85.4545V75.9091C217.28 75.1932 216.88 74.7955 216.8 74.7159C216.64 74.6364 216.48 74.5568 216.16 74.4773V74H220.48L227.44 82.5114H227.52V76.4659C227.52 75.75 227.36 75.2727 227.12 75.0341C226.88 74.7159 226.32 74.5568 225.6 74.4773V74H230V74.4773C229.36 74.6364 228.96 74.7159 228.72 74.875C228.48 75.0341 228.4 75.4318 228.4 76.0682V88H227.84L218.88 77.1818H218.72V85.1364C218.72 85.7727 218.72 86.1705 218.96 86.4886C219.2 86.8864 219.76 87.125 220.64 87.125V87.6023H216L216.16 87.5227Z" fill="#2857AF"/>
<path d="M236.26 78.5341H236.41L238.214 83.2273H234.532L236.26 78.5341ZM234.983 88V87.5227C234.532 87.5227 234.231 87.5227 234.006 87.3636C233.63 87.2841 233.48 87.0455 233.48 86.7273C233.48 86.4886 233.555 86.0909 233.705 85.6136C233.78 85.375 233.931 84.8182 234.231 84.0227H238.514L238.965 85.2159C238.965 85.2159 239.191 85.6932 239.191 85.9318C239.266 86.25 239.341 86.4886 239.341 86.6477C239.341 86.9659 239.266 87.2045 239.04 87.2841C238.815 87.3636 238.439 87.4432 237.838 87.4432V87.9205H244V87.4432C243.549 87.4432 243.249 87.2841 243.023 86.9659C242.798 86.6477 242.422 85.8523 241.971 84.6591L237.688 74H237.162L232.879 85.0568C232.578 85.9318 232.277 86.4886 232.127 86.7273C231.827 87.125 231.451 87.3636 231 87.3636V87.8409H234.908L234.983 88Z" fill="#2857AF"/>
<path d="M244 88V87.5088C244.58 87.5088 244.994 87.4269 245.242 87.2632C245.656 87.0175 245.904 86.6082 245.904 86.0351V75.9649C245.904 75.3918 245.739 74.9006 245.325 74.7368C245.076 74.655 244.662 74.5731 244.083 74.4912V74H251.452V74.4912C250.624 74.4912 250.045 74.655 249.713 74.8187C249.465 75.0643 249.299 75.5556 249.299 76.3743V86.1988C249.299 86.6901 249.382 86.9357 249.631 87.0994C249.879 87.2632 250.376 87.345 251.038 87.345C252.28 87.345 253.357 87.0994 254.185 86.5263C255.013 85.9532 255.758 84.8889 256.42 83.3333H257L256.172 88H244V88Z" fill="#2857AF"/>
<path d="M148 110V105.172H148.588C148.98 106.621 149.471 107.683 150.255 108.359C151.039 109.034 151.824 109.324 152.804 109.324C153.784 109.324 154.471 109.131 154.863 108.648C155.255 108.166 155.451 107.683 155.451 107.2C155.451 106.621 155.255 106.138 154.863 105.752C154.569 105.462 154.078 105.172 153.196 104.786L151.824 104.207C150.451 103.531 149.569 102.952 148.98 102.372C148.49 101.793 148.196 101.021 148.196 100.055C148.196 99.0896 148.588 98.2207 149.275 97.3517C149.961 96.4828 151.137 96.0965 152.608 96.0965C153.392 96.0965 154.078 96.1931 154.863 96.3862C155.549 96.5793 155.941 96.6759 156.039 96.6759C156.235 96.6759 156.431 96.6759 156.529 96.4828L156.725 96H157.314V100.248H156.725C156.431 99.2828 155.941 98.4138 155.255 97.7379C154.569 97.0621 153.686 96.6759 152.706 96.6759C152.02 96.6759 151.431 96.869 151.039 97.2552C150.647 97.6414 150.451 98.0276 150.451 98.5103C150.451 99.0896 150.647 99.5724 151.039 99.9586C151.431 100.248 152.216 100.731 153.588 101.31L155.157 102.083C155.843 102.372 156.431 102.759 156.824 103.145C157.608 103.917 158 104.786 158 105.848C158 106.91 157.608 107.779 156.725 108.648C155.843 109.517 154.569 110 152.706 110C152.314 110 151.824 110 151.431 109.903C150.941 109.903 150.549 109.71 150.157 109.517H149.765L149.471 109.324H149.275L148.784 109.517C148.784 109.517 148.588 109.807 148.588 110H148V110Z" fill="#2857AF"/>
<path d="M171.12 109.799H159V109.295C159.586 109.295 160.075 109.295 160.271 109.094C160.662 108.892 160.857 108.489 160.857 107.885V98.0144C160.857 97.4101 160.662 97.0072 160.271 96.8058C160.075 96.705 159.586 96.6043 159 96.5036V96H170.925V100.129H170.436C170.143 98.8201 169.654 97.9137 169.068 97.4101C168.383 96.9065 167.308 96.705 165.647 96.705C165.06 96.705 164.571 96.705 164.474 96.9065C164.278 97.0072 164.18 97.3094 164.18 97.7122V102.446C165.353 102.446 166.135 102.245 166.624 101.842C167.015 101.439 167.406 100.633 167.601 99.4245H168.09V106.374H167.601C167.406 105.165 167.113 104.36 166.722 103.957C166.233 103.554 165.451 103.252 164.278 103.252V108.187C164.278 108.187 164.376 108.892 164.571 109.094C164.767 109.295 165.256 109.295 165.94 109.295C167.211 109.295 168.383 109.094 169.165 108.59C170.045 108.086 170.729 107.079 171.414 105.77H172L171.12 110V109.799Z" fill="#2857AF"/>
<path d="M173.195 102.904C173.195 100.986 173.877 99.3562 175.143 98.0137C176.506 96.6712 178.26 96 180.403 96C181.279 96 182.156 96.1918 182.935 96.4795C183.812 96.7671 184.299 96.9589 184.494 96.9589C184.688 96.9589 184.883 96.9589 184.981 96.7671C185.078 96.5753 185.273 96.3836 185.273 96.0959H185.857V100.699H185.37C184.883 99.7397 184.396 98.9726 183.812 98.3973C182.838 97.3425 181.766 96.863 180.5 96.863C179.136 96.863 178.162 97.4384 177.578 98.4932C176.993 99.5479 176.701 101.082 176.701 103.096C176.701 104.726 176.993 106.164 177.578 107.411C178.162 108.658 179.234 109.329 180.89 109.329C181.766 109.329 182.351 109.137 182.643 108.849C182.838 108.658 182.935 108.37 182.935 107.986V105.877C182.935 105.301 182.74 104.918 182.351 104.726C182.058 104.63 181.571 104.534 180.89 104.534V104.055H188V104.534C187.318 104.534 186.831 104.63 186.539 104.918C186.344 105.205 186.149 105.589 186.149 106.26V108.753C186.149 108.753 184.981 109.329 183.909 109.616C182.838 109.904 181.766 110 180.5 110C178.162 110 176.312 109.329 174.948 107.986C173.682 106.74 173 105.11 173 103.192" fill="#2857AF"/>
<path d="M188 96H194.811V96.4895C194.054 96.4895 193.486 96.6853 193.297 96.8811C193.014 97.0769 192.919 97.5664 192.919 98.3497V105.007C192.919 105.986 193.014 106.769 193.297 107.357C193.77 108.336 194.527 108.923 195.851 108.923C197.365 108.923 198.5 108.336 198.973 107.259C199.257 106.671 199.446 105.79 199.446 104.615V98.5455C199.446 97.8601 199.351 97.3706 199.068 97.0769C198.784 96.7832 198.311 96.6853 197.554 96.5874V96.0979H202V96.5874C201.338 96.6853 200.959 96.8811 200.77 97.0769C200.581 97.2727 200.486 97.6643 200.486 98.3497V104.713C200.486 106.378 200.108 107.748 199.257 108.629C198.405 109.51 197.176 110 195.378 110C193.014 110 191.5 109.315 190.649 107.944C190.176 107.259 189.986 106.28 189.986 105.105V98.4476C189.986 97.6643 189.892 97.1748 189.703 97.0769C189.514 96.8811 189.041 96.7832 188.378 96.6853V96.1958L188 96Z" fill="#2857AF"/>
<path d="M208.143 97.4307C208.143 97.4307 208.143 96.9197 208.429 96.7153C208.619 96.6131 208.905 96.511 209.476 96.511C210.429 96.511 211.19 96.9197 211.571 97.635C211.762 98.146 211.857 98.7591 211.857 99.5766C211.857 100.905 211.571 101.723 211 102.131C210.429 102.438 209.476 102.642 208.143 102.642V97.3285V97.4307ZM209.952 109.898V109.387C209.19 109.387 208.81 109.285 208.524 108.978C208.333 108.774 208.143 108.263 208.143 107.547V103.46H208.714L212.905 110H217V109.489H216.524L216.143 109.08L212.048 103.153C212.714 103.051 213.381 102.745 213.952 102.234C214.714 101.62 215.19 100.701 215.19 99.5766C215.19 98.0438 214.429 97.0219 212.714 96.4088C211.857 96.1022 210.81 96 209.476 96H203V96.511C203.667 96.511 204.143 96.7153 204.333 96.8175C204.619 97.0219 204.81 97.5329 204.81 98.3504V107.547C204.81 108.263 204.714 108.876 204.429 109.08C204.143 109.285 203.667 109.387 203 109.489V110H209.857L209.952 109.898Z" fill="#2857AF"/>
<path d="M222.47 106.694C222.172 105.722 221.974 104.556 221.974 103C221.974 101.444 222.073 100.278 222.371 99.3056C222.967 97.5556 224.06 96.5833 225.649 96.5833C226.742 96.5833 227.735 97.1667 228.331 98.2361C229.026 99.3056 229.324 100.861 229.324 103C229.324 104.556 229.126 105.819 228.828 106.694C228.232 108.444 227.139 109.319 225.55 109.319C223.96 109.319 222.868 108.444 222.272 106.694H222.47ZM220.086 97.9444C218.695 99.3056 218 100.958 218 103.097C218 104.944 218.596 106.597 219.987 107.861C221.377 109.319 223.265 110 225.55 110C227.636 110 229.424 109.319 230.815 108.056C232.305 106.694 233 105.042 233 103C233 100.958 232.305 99.2083 230.815 97.9444C229.424 96.6806 227.636 96 225.55 96C223.364 96 221.576 96.6806 220.086 98.0417" fill="#2857AF"/>
<path d="M233 110V105.172H233.583C233.874 106.621 234.456 107.683 235.233 108.359C236.01 109.034 236.786 109.324 237.757 109.324C238.728 109.324 239.311 109.131 239.796 108.648C240.184 108.166 240.379 107.683 240.379 107.2C240.379 106.621 240.184 106.138 239.796 105.752C239.505 105.462 238.922 105.172 238.146 104.786L236.786 104.207C235.427 103.531 234.553 102.952 233.971 102.372C233.388 101.793 233.194 101.021 233.194 100.055C233.194 99.0896 233.583 98.2207 234.262 97.3517C234.942 96.4828 236.107 96.0965 237.563 96.0965C238.34 96.0965 239.019 96.1931 239.796 96.3862C240.476 96.5793 240.864 96.6759 241.058 96.6759C241.252 96.6759 241.447 96.6759 241.544 96.4828L241.738 96H242.32V100.248H241.738C241.447 99.2828 240.961 98.4138 240.282 97.7379C239.602 96.9655 238.728 96.6759 237.757 96.6759C237.078 96.6759 236.495 96.869 236.107 97.2552C235.718 97.6414 235.524 98.0276 235.524 98.5103C235.524 99.0896 235.718 99.5724 236.107 99.9586C236.495 100.248 237.272 100.731 238.631 101.31L240.184 102.083C240.864 102.372 241.447 102.759 241.835 103.145C242.612 103.917 243 104.786 243 105.848C243 106.91 242.612 107.779 241.738 108.648C240.961 109.517 239.602 110 237.757 110C237.369 110 236.883 110 236.495 109.903C236.107 109.903 235.621 109.71 235.233 109.517H234.845L234.553 109.324H234.359L233.971 109.517C233.971 109.517 233.777 109.807 233.777 110H233.194H233Z" fill="#2857AF"/>
<path d="M268.347 100.4H268.542L270.486 105.1H266.5L268.347 100.4ZM266.986 109.9V109.4C266.986 109.4 266.111 109.4 265.917 109.3C265.528 109.2 265.333 108.9 265.333 108.7C265.333 108.5 265.333 108.1 265.625 107.6C265.625 107.4 265.917 106.8 266.208 106H270.875L271.361 107.2C271.361 107.2 271.556 107.7 271.653 107.9C271.75 108.2 271.847 108.5 271.847 108.6C271.847 109 271.75 109.2 271.556 109.3C271.361 109.3 270.875 109.4 270.292 109.5V110H277V109.5C277 109.5 276.125 109.4 275.931 109C275.639 108.6 275.25 107.9 274.764 106.7L270.194 96H269.611L265.042 107.1C264.653 108 264.361 108.5 264.167 108.8C263.875 109.2 263.486 109.4 263 109.4V109.9H267.181H266.986Z" fill="#2857AF"/>
<path d="M250 110V105.172H250.583C250.874 106.621 251.456 107.683 252.233 108.359C253.01 109.034 253.883 109.324 254.854 109.324C255.728 109.324 256.505 109.131 256.893 108.648C257.282 108.166 257.476 107.683 257.476 107.2C257.476 106.621 257.282 106.138 256.893 105.752C256.602 105.462 256.117 105.172 255.243 104.786L253.883 104.207C252.524 103.531 251.65 102.952 251.068 102.372C250.583 101.793 250.291 101.021 250.291 100.055C250.291 99.0896 250.68 98.2207 251.359 97.3517C252.136 96.4828 253.204 96.0965 254.66 96.0965C255.437 96.0965 256.117 96.1931 256.893 96.3862C257.573 96.5793 257.961 96.6759 258.058 96.6759L258.544 96.4828L258.738 96H259.32V100.248H258.738C258.447 99.2828 257.961 98.4138 257.282 97.7379C256.602 96.9655 255.728 96.6759 254.757 96.6759C254.078 96.6759 253.495 96.869 253.107 97.2552C252.718 97.6414 252.524 98.0276 252.524 98.5103C252.524 99.0896 252.718 99.5724 253.107 99.9586C253.495 100.248 254.369 100.731 255.631 101.31L257.184 102.083C257.864 102.372 258.447 102.759 258.835 103.145C259.612 103.917 260 104.786 260 105.848C260 106.91 259.612 107.779 258.738 108.648C257.864 109.517 256.602 110 254.757 110C254.369 110 253.981 110 253.495 109.903C253.107 109.903 252.621 109.71 252.233 109.517H251.845L251.553 109.324H251.359L250.971 109.517C250.971 109.517 250.777 109.807 250.777 110H250.194H250Z" fill="#2857AF"/>
<path d="M262 109.059C262 109.059 261.556 110 261 110C260.444 110 260 109.529 260 109.059C260 108.588 260.444 108 261 108C261.556 108 262 108.471 262 109.059Z" fill="#2857AF"/>
<path d="M279 109.059C279 109.059 278.556 110 278 110C277.444 110 277 109.529 277 109.059C277 108.588 277.444 108 278 108C278.556 108 279 108.471 279 109.059Z" fill="#2857AF"/>
<path d="M158.1 3H96V65.1H158.1V3Z" fill="url(#paint0_linear_566_1893)"/>
<path d="M104.113 14.7C104.113 14.7 104.297 19.1706 105.216 20.2225C105.216 20.2225 106.871 23.4659 105.033 27.2352C105.033 27.2352 105.4 29.9527 102.735 30.6539C102.735 30.6539 100.437 33.1084 100.897 34.4233C100.897 34.4233 101.264 35.8258 99.6101 35.6505C99.6101 35.6505 100.162 41.7867 96.6691 41.699C96.6691 41.699 92.7172 24.5178 104.022 14.7876" fill="#1F1F1F"/>
<path d="M104.988 32.1366C104.988 32.1366 107.242 28.8301 106.722 33.0303C106.722 33.0303 105.508 35.2644 105.855 36.3368C105.855 36.3368 103.947 37.588 103.947 39.4647C103.947 39.4647 102.473 40.8945 102.3 38.571C102.3 38.571 102.647 35.4432 103.514 35.4432C103.514 35.4432 104.901 35.4432 105.074 32.1366" fill="#1F1F1F"/>
<path d="M101.4 51.125C101.4 51.125 103.467 49.7295 104.293 51.9972C104.293 51.9972 105.451 54.5265 107.021 55.0498C107.021 55.0498 110.08 55.0498 107.682 58.8002C107.682 58.8002 102.557 54.1776 101.4 51.125" fill="#1F1F1F"/>
<path d="M116.729 5.04074C116.729 5.04074 113.837 11.0508 115.326 13.6522C115.326 13.6522 118.043 16.433 120.848 12.7552C120.848 12.7552 122.6 13.114 122.425 16.6124C122.425 16.6124 122.425 21.1873 124.003 21.0079C124.003 21.0079 126.194 21.1873 125.668 18.4065C125.668 18.4065 127.946 25.2239 130.663 26.121C130.663 26.121 136.009 27.018 131.715 29.6194C131.715 29.6194 124.178 35.8986 130.838 42.6263C130.838 42.6263 132.504 44.241 131.364 46.4835C131.364 46.4835 131.89 58.2346 129.787 60.5669C129.787 60.5669 130.313 62.9889 131.627 60.0287C131.627 60.0287 135.22 57.4273 134.694 54.9156C134.694 54.9156 137.236 55.2744 137.587 53.301C137.937 51.4172 137.061 53.1216 137.061 53.1216C137.061 53.1216 140.654 47.8291 142.144 48.0982H142.056C142.056 48.0982 147.402 44.5101 144.773 39.1279C144.773 39.1279 137.587 28.1841 134.957 30.5164C134.957 30.5164 134.782 26.6592 134.081 25.4033C134.081 25.4033 130.313 24.1475 133.029 22.2637C133.029 22.2637 134.957 21.0079 135.746 23.8784C135.746 23.8784 137.674 23.699 135.396 19.6623C135.396 19.6623 136.973 20.0211 139.164 17.5992C139.164 17.5992 144.685 18.9447 143.634 13.0243C143.634 13.0243 143.458 8.27005 140.829 8.98768C140.829 8.98768 142.144 12.5758 137.849 12.5758C136.447 12.5758 137.849 12.5758 137.849 12.5758C137.849 12.5758 133.468 10.8714 136.36 7.01421C136.36 7.01421 137.762 5.75837 133.468 4.05401C131.715 3.33639 131.89 3.42609 131.89 3.42609C131.89 3.42609 126.544 1.72173 116.466 5.13045" fill="#1F1F1F"/>
<path d="M137.4 34.5C137.4 51.9103 151.49 66 168.9 66C186.31 66 200.4 51.9103 200.4 34.5C200.4 17.0897 186.31 3 168.9 3C151.49 3 137.4 17.0897 137.4 34.5V34.5ZM140.541 34.5C140.541 18.8846 153.285 6.23077 168.81 6.23077C184.336 6.23077 197.08 18.9744 197.08 34.5C197.08 50.0256 184.426 62.859 168.81 62.859C153.195 62.859 140.541 50.1154 140.541 34.5" fill="#2857AF"/>
<path d="M141.9 34.0052C141.9 49.1903 154.21 61.5001 169.305 61.5001C184.4 61.5001 196.8 49.1903 196.8 34.0052C196.8 18.8201 184.49 6.6001 169.305 6.6001C154.12 6.6001 141.9 18.9099 141.9 34.0052V34.0052ZM142.978 34.0052C142.978 19.449 154.839 7.58848 169.395 7.58848C183.951 7.58848 195.812 19.449 195.812 34.0052C195.812 48.5613 183.951 60.4219 169.395 60.4219C154.839 60.4219 142.978 48.5613 142.978 34.0052Z" fill="#2857AF"/>
<path d="M167.321 56.8217L151.7 26.6676C151.7 26.6676 148.328 20.155 155.428 20.155H181.788C181.788 20.155 189.776 19.0844 185.782 26.3999L182.054 34.2507C182.054 34.2507 181.965 35.1428 180.19 35.3212H174.333V47.8111L168.564 57.0001V32.4664C168.564 32.4664 168.031 29.4332 171.847 29.6116H178.238L179.569 26.0431L157.647 25.8646L159.156 29.5224H166.7C166.7 29.5224 169.717 29.8792 167.055 32.6448L162.617 35.4997L167.321 44.421V56.7325V56.8217Z" fill="#2857AF"/>
<defs>
<linearGradient id="paint0_linear_566_1893" x1="122.768" y1="-1.91114" x2="122.768" y2="64.0401" gradientUnits="userSpaceOnUse">
<stop stop-color="white"/>
<stop offset="0.2" stop-color="#FCFCFC"/>
<stop offset="0.34" stop-color="#F3F3F3"/>
<stop offset="0.46" stop-color="#E3E3E3"/>
<stop offset="0.57" stop-color="#CECECD"/>
<stop offset="0.67" stop-color="#B1B1B1"/>
<stop offset="0.77" stop-color="#8F8F8E"/>
<stop offset="0.87" stop-color="#666665"/>
<stop offset="0.95" stop-color="#383836"/>
<stop offset="1" stop-color="#1D1D1B"/>
</linearGradient>
</defs>
</svg>
