<?xml version="1.0" encoding="utf-8"?>
<!-- Generator: Adobe Illustrator 26.2.1, SVG Export Plug-In . SVG Version: 6.00 Build 0)  -->
<svg version="1.1" id="Capa_1" xmlns="http://www.w3.org/2000/svg" xmlns:xlink="http://www.w3.org/1999/xlink" x="0px" y="0px"
	 viewBox="0 0 256 185" style="enable-background:new 0 0 256 185;" xml:space="preserve">
<style type="text/css">
	.st0{fill:#0199DD;}
	.st1{fill:#018FD8;}
	.st2{fill:#018EDA;}
	.st3{fill:#008ED9;}
	.st4{fill:#FDFEFE;}
	.st5{fill:#FEFEFE;}
	.st6{fill:#0096D9;}
	.st7{fill:#008EDC;}
	.st8{fill:#028EDC;}
	.st9{fill:#018ED7;}
	.st10{fill:#0090DE;}
	.st11{fill:#008EDA;}
	.st12{fill:#0291DA;}
	.st13{fill:#0090D8;}
	.st14{fill:#0198DF;}
	.st15{fill:none;stroke:#0198DF;stroke-width:3.5;stroke-miterlimit:10;}
	.st16{fill:#022C76;}
</style>
<g>
	<g>
		<path class="st0" d="M93.3,81.6c-5.6-0.7-9.7-5-9.7-10.6c-0.1-16.5-0.1-33.1,0-49.6c0-5.5,4.1-9.7,9.8-10.5
			c0.7,0.4,1.5,0.2,2.2,0.2c24.4,0,48.7,0,73.1,0c0.7,0,1.6,0.2,2.2-0.2c5.8,0.9,9.3,4.6,9.7,10.4c-0.3,0.6-0.2,1.3-0.2,2
			c0,15.2,0,30.3,0,45.5c0,0.6-0.1,1.3,0.2,2c0,5.9-3.8,10.2-9.7,11C145.1,81.5,119.2,81.6,93.3,81.6z"/>
		<path class="st1" d="M93.3,81.6c0.8-1,2-0.6,2.9-0.6c23.9,0,47.9,0,71.8,0c1,0,2.1-0.4,2.9,0.6c-1.1,0.6-2.2,0.3-3.4,0.3
			c-23.6,0-47.3,0-70.9,0C95.5,82,94.4,82.1,93.3,81.6z"/>
		<path class="st2" d="M170.9,10.9c-0.9,0.9-2,0.5-3,0.5c-23.9,0-47.7,0-71.6,0c-1,0-2.1,0.3-3-0.5c1.4-0.1,2.9-0.2,4.3-0.2
			c23.5,0,47,0,70.5,0C169,10.7,170,10.8,170.9,10.9z"/>
		<path class="st3" d="M180.7,70.6c-0.7-0.7-0.5-1.6-0.5-2.4c0-14.8,0-29.7,0-44.5c0-0.9-0.2-1.7,0.5-2.4
			C180.7,37.7,180.7,54.2,180.7,70.6z"/>
		<path class="st4" d="M171.5,19.5c1,1.1,1,2.4,1,3.7c0,15.4,0,30.8,0,46.3c0,3.3-0.7,4-4.1,4c-1.6,0-3.3-0.1-4.9,0
			c-1.7,0.1-3-0.3-3.9-1.8c-0.7-0.5-0.5-1.2-0.5-1.8c0-14.2,0-28.5,0-42.7c0-0.5,0-1,0.2-1.4c-0.1-1-0.7-1.5-1.7-1.6
			c-4.9,0.3-10,0.3-14.9,0c-2,0.4-2.1,1.7-1.8,3.3c0.6,2.5,0.4,4.9,0,7.4c-0.6,2.2-2,3.2-4.4,3c-2.8-0.2-5.7-0.1-8.5,0
			c-1.9,0.1-3.3-0.5-4.1-2.3c-0.6-4.7-0.6-9.5,0-14.2c0.9-2.1,2.6-2.4,4.7-2.4c13.9,0,27.8-0.1,41.8-0.1
			C171,18.6,171.3,19,171.5,19.5z"/>
		<path class="st5" d="M123.3,66.7c0.7-2.7,0.3-5.4,0.3-8.1c0-1.8,0.5-3.1,2.1-4c4.1-0.6,8.2-0.6,12.4,0c2.1,0.8,2.4,2.6,2.4,4.5
			c0.5,4,0.5,8.1-0.1,12.1c-0.8,1.8-2.2,2.3-4.1,2.3c-13.5-0.1-27-0.1-40.5-0.1c-3.3,0-4-0.7-4-4.1c0-15.4,0-30.8,0-46.3
			c0-3.4,0.9-4.2,4.3-4.2c1.4,0,2.9,0,4.3,0c3.6,0,4.4,0.8,4.4,4.4c0,13.7,0,27.4,0,41.1c0,1.6-0.3,3.4,1.8,4
			c5.2-0.5,10.3-0.2,15.5-0.1c0.6-0.1,1-0.3,1.1-1C123,66.9,123,66.8,123.3,66.7z"/>
		<path class="st6" d="M171.5,19.5c-0.3-0.2-0.7-0.4-1.1-0.6c-0.9-0.9-2-0.6-3-0.6c-12.4,0-24.9,0-37.3,0c-0.9,0-1.8,0-3,0
			c0.6-0.8,1.2-0.6,1.7-0.6c13.4,0,26.8-0.1,40.2,0.1C170,17.8,172,16.8,171.5,19.5z"/>
		<path class="st7" d="M159.3,25.8c0.5,2,0.2,4,0.2,6c0.1,13.3,0.1,26.6,0.1,39.9c-0.9-0.4-0.7-1.3-0.7-2c0-14.2,0-28.2,0-42.4
			C158.9,26.8,158.9,26.2,159.3,25.8z"/>
		<path class="st8" d="M122,68.2c-5.2,0.7-10.3,0.5-15.5,0.1c2.1-1.2,4.5-0.5,6.7-0.5C116.2,67.8,119.1,67.3,122,68.2z"/>
		<path class="st9" d="M123.9,21.3c0,4.7,0,9.5,0,14.2c-1.3-1.1-0.6-2.5-0.6-3.8c-0.1-3.5,0-6.9,0-10.4c0-0.1,0.1-0.2,0.2-0.2
			C123.5,21.2,123.7,21.3,123.9,21.3z"/>
		<path class="st10" d="M142.8,24.1c4.9-0.2,10-0.3,14.9,0C152.7,25,147.8,25,142.8,24.1z"/>
		<path class="st11" d="M138,54.6c-4.1,0-8.2,0-12.4,0c-0.2-0.2-0.2-0.6,0.1-0.6c4.1-0.1,8.2-0.1,12.3,0c0.1,0,0.2,0.1,0.2,0.2
			C138.1,54.3,138,54.5,138,54.6z"/>
		<path class="st12" d="M140.4,71.2c0-4,0.1-8.1,0.1-12.1C141.4,63.2,141.4,67.2,140.4,71.2z"/>
		<path class="st13" d="M123.3,66.7c0.1,0.2,0.1,0.3-0.1,0.5c-1-3.2-0.2-6.5,0.1-9.7C123.3,60.5,123.3,63.6,123.3,66.7z"/>
	</g>
	<g>
		<g>
			<g>
				<g>
					<path class="st14" d="M78.4,153.1c-0.1-0.6-0.3-1.1-0.9-1.4s-1.2-0.5-1.9-0.5c-0.6,0-1,0.1-1.4,0.2c-0.4,0.2-0.7,0.4-0.9,0.7
						c-0.2,0.3-0.3,0.6-0.3,1c0,0.3,0.1,0.6,0.2,0.8c0.1,0.2,0.3,0.4,0.6,0.6c0.2,0.2,0.5,0.3,0.8,0.4c0.3,0.1,0.6,0.2,0.9,0.3
						l1.4,0.3c0.6,0.1,1.1,0.3,1.6,0.5c0.5,0.2,1,0.5,1.4,0.9c0.4,0.3,0.7,0.7,1,1.2c0.2,0.5,0.3,1,0.3,1.7c0,0.9-0.2,1.6-0.6,2.3
						c-0.5,0.6-1.1,1.2-1.9,1.6c-0.8,0.3-1.8,0.6-3,0.6c-1.2,0-2.1-0.2-2.9-0.5c-0.8-0.3-1.5-0.9-2-1.6c-0.5-0.7-0.7-1.5-0.7-2.5
						h2.6c0.1,0.5,0.2,0.9,0.5,1.3c0.3,0.3,0.6,0.6,1.1,0.7c0.5,0.2,0.9,0.2,1.5,0.2c0.6,0,1.1-0.1,1.5-0.3c0.5-0.2,0.7-0.4,1-0.7
						c0.2-0.3,0.3-0.7,0.4-1.1c0-0.4-0.1-0.7-0.3-1c-0.2-0.2-0.5-0.5-0.9-0.6c-0.4-0.2-0.9-0.3-1.4-0.5l-1.7-0.5
						c-1.2-0.3-2.1-0.8-2.8-1.4c-0.7-0.6-1-1.5-1-2.5c0-0.9,0.2-1.6,0.7-2.3c0.5-0.6,1.1-1.2,1.9-1.5s1.7-0.5,2.8-0.5s2,0.2,2.7,0.5
						c0.7,0.3,1.4,0.9,1.8,1.5c0.5,0.6,0.7,1.4,0.7,2.2L78.4,153.1L78.4,153.1z"/>
					<path class="st14" d="M88.4,163.8V149h9.5v2.2H91v4h6.3v2.2H91v4h6.9v2.2L88.4,163.8L88.4,163.8z"/>
					<path class="st14" d="M115.1,153.8c-0.1-0.4-0.3-0.7-0.5-1c-0.2-0.3-0.5-0.6-0.7-0.8c-0.3-0.2-0.6-0.4-1-0.5
						c-0.3-0.1-0.7-0.2-1.2-0.2c-0.8,0-1.5,0.2-2.1,0.6c-0.6,0.4-1.1,1-1.4,1.7c-0.3,0.7-0.5,1.7-0.5,2.8s0.2,2.1,0.5,2.8
						c0.3,0.7,0.8,1.4,1.4,1.8c0.6,0.4,1.3,0.6,2.1,0.6c0.7,0,1.4-0.1,1.9-0.5c0.5-0.3,1-0.7,1.3-1.2c0.3-0.5,0.5-1.2,0.5-1.8
						l0.6,0.1h-4v-2.1h5.9v1.8c0,1.3-0.3,2.4-0.8,3.3c-0.5,0.9-1.3,1.6-2.2,2.1c-0.9,0.5-2,0.7-3.2,0.7c-1.3,0-2.5-0.3-3.5-0.9
						c-1-0.6-1.8-1.5-2.4-2.6c-0.6-1.2-0.9-2.5-0.9-4c0-1.2,0.2-2.2,0.5-3.2c0.3-0.9,0.8-1.7,1.4-2.4c0.6-0.6,1.3-1.2,2.1-1.5
						c0.8-0.3,1.7-0.5,2.6-0.5c0.8,0,1.6,0.1,2.2,0.3c0.7,0.2,1.3,0.6,1.8,1c0.5,0.5,1,1,1.3,1.6s0.6,1.3,0.7,2L115.1,153.8
						L115.1,153.8z"/>
					<path class="st14" d="M134.5,149h2.6v9.6c0,1-0.2,2-0.7,2.8s-1.2,1.4-2.1,1.9c-0.9,0.5-1.9,0.7-3.1,0.7c-1.2,0-2.2-0.2-3.1-0.7
						c-0.9-0.5-1.6-1.1-2.1-1.9c-0.5-0.8-0.7-1.7-0.7-2.8V149h2.6v9.4c0,0.6,0.1,1.2,0.4,1.6c0.3,0.5,0.6,0.9,1.2,1.2
						c0.5,0.3,1.1,0.4,1.7,0.4c0.7,0,1.3-0.1,1.7-0.4c0.5-0.3,0.9-0.6,1.2-1.2c0.3-0.5,0.4-1,0.4-1.6V149z"/>
					<path class="st14" d="M144.9,163.8V149h5.5c1.1,0,2.1,0.2,2.8,0.6s1.3,0.9,1.7,1.7c0.4,0.7,0.6,1.6,0.6,2.5
						c0,0.9-0.2,1.8-0.6,2.5c-0.4,0.7-1,1.2-1.7,1.6c-0.7,0.4-1.7,0.6-2.8,0.6h-3.9v-2.2h3.5c0.6,0,1.2-0.1,1.6-0.3
						c0.4-0.2,0.7-0.5,0.9-0.8c0.2-0.3,0.3-0.8,0.3-1.3c0-0.5-0.1-1-0.3-1.3s-0.5-0.6-0.9-0.9c-0.4-0.2-1-0.3-1.6-0.3h-2.4v12.5
						L144.9,163.8L144.9,163.8z M152.4,157.1l3.6,6.7h-2.9l-3.5-6.7H152.4z"/>
					<path class="st14" d="M168,164.1c-1.2,0-2.2-0.3-3-0.9c-0.9-0.6-1.5-1.5-1.9-2.6c-0.5-1.2-0.7-2.5-0.7-4.1c0-1.6,0.2-3,0.7-4.1
						c0.5-1.2,1.1-2,1.9-2.6c0.9-0.6,1.8-0.9,3-0.9c1.2,0,2.2,0.3,3,0.9c0.9,0.6,1.5,1.4,2,2.6s0.7,2.5,0.7,4.1c0,1.6-0.2,3-0.7,4.1
						c-0.5,1.2-1.1,2-1.9,2.6C170.2,163.8,169.2,164.1,168,164.1z M168,161.8c0.9,0,1.6-0.5,2.1-1.4c0.5-0.9,0.8-2.2,0.8-4
						c0-1.2-0.1-2.1-0.3-2.9s-0.6-1.4-1-1.8s-1-0.6-1.6-0.6c-0.9,0-1.6,0.5-2.1,1.4c-0.5,0.9-0.8,2.2-0.8,4c0,1.2,0.1,2.2,0.3,2.9
						c0.2,0.8,0.6,1.4,1,1.8S167.4,161.8,168,161.8z"/>
					<path class="st14" d="M188.9,153.1c-0.1-0.6-0.3-1.1-0.9-1.4c-0.5-0.3-1.2-0.5-1.9-0.5c-0.6,0-1,0.1-1.4,0.2
						c-0.4,0.2-0.7,0.4-0.9,0.7c-0.2,0.3-0.3,0.6-0.3,1c0,0.3,0.1,0.6,0.2,0.8c0.1,0.2,0.3,0.4,0.6,0.6c0.2,0.2,0.5,0.3,0.8,0.4
						c0.3,0.1,0.6,0.2,0.9,0.3l1.4,0.3c0.6,0.1,1.1,0.3,1.6,0.5c0.5,0.2,1,0.5,1.4,0.9c0.4,0.3,0.7,0.7,1,1.2c0.2,0.5,0.3,1,0.3,1.7
						c0,0.9-0.2,1.6-0.6,2.3c-0.5,0.6-1.1,1.2-1.9,1.6c-0.8,0.3-1.8,0.6-3,0.6s-2.1-0.2-2.9-0.5c-0.8-0.3-1.5-0.9-2-1.6
						s-0.7-1.5-0.7-2.5h2.6c0.1,0.5,0.2,0.9,0.5,1.3c0.3,0.3,0.6,0.6,1.1,0.7c0.5,0.2,0.9,0.2,1.5,0.2s1.1-0.1,1.5-0.3
						c0.5-0.2,0.7-0.4,1-0.7c0.2-0.3,0.3-0.7,0.4-1.1c0-0.4-0.1-0.7-0.3-1c-0.2-0.2-0.5-0.5-0.9-0.6c-0.4-0.2-0.9-0.3-1.4-0.5
						l-1.7-0.5c-1.2-0.3-2.1-0.8-2.8-1.4s-1-1.5-1-2.5c0-0.9,0.2-1.6,0.7-2.3c0.5-0.6,1.1-1.2,1.9-1.5s1.7-0.5,2.8-0.5
						s2,0.2,2.7,0.5s1.4,0.9,1.8,1.5c0.5,0.6,0.7,1.4,0.7,2.2L188.9,153.1L188.9,153.1z"/>
				</g>
			</g>
		</g>
		<line class="st15" x1="22.5" y1="156.3" x2="51.9" y2="156.3"/>
		<line class="st15" x1="207.2" y1="156.3" x2="236.5" y2="156.3"/>
		<g>
			<g>
				<g>
					<path class="st16" d="M22.8,130.5v-30h5.7v12.7h14.5v-12.7h5.7v30h-5.7v-12.8H28.4v12.8H22.8z"/>
					<path class="st16" d="M82.8,115.4c0,3.2-0.6,6-1.9,8.3c-1.3,2.4-3,4.1-5.1,5.3c-2.2,1.2-4.6,1.8-7.4,1.8s-5.2-0.6-7.4-1.8
						c-2.2-1.2-3.9-3-5.1-5.3c-1.3-2.3-1.9-5.1-1.9-8.3c0-3.2,0.6-6,1.9-8.3c1.3-2.3,3-4.1,5.1-5.3c2.2-1.2,4.6-1.8,7.4-1.8
						s5.2,0.6,7.4,1.8c2.2,1.2,3.9,3,5.1,5.3C82.1,109.5,82.8,112.2,82.8,115.4z M77.1,115.4c0-2.3-0.3-4.2-1.1-5.8
						c-0.7-1.6-1.8-2.8-3-3.6c-1.3-0.8-2.8-1.2-4.5-1.2c-1.7,0-3.2,0.4-4.5,1.2c-1.3,0.8-2.3,2-3,3.6c-0.7,1.6-1.1,3.5-1.1,5.8
						s0.3,4.2,1.1,5.8c0.7,1.6,1.8,2.8,3,3.6c1.3,0.8,2.8,1.2,4.5,1.2c1.7,0,3.2-0.4,4.5-1.2c1.3-0.8,2.3-2,3-3.6
						C76.7,119.6,77.1,117.7,77.1,115.4z"/>
					<path class="st16" d="M88.2,130.5v-30h5.7v25.5h13.8v4.5H88.2z"/>
					<path class="st16" d="M116.5,130.5h-6l11-30h7l11,30h-6l-8.3-23.9h-0.3L116.5,130.5z M116.8,118.7h16.5v4.4h-16.5V118.7z"/>
					<path class="st16" d="M169.5,100.4v30h-5.1L149.6,110h-0.3v20.5h-5.7v-30h5.1l14.7,20.5h0.3v-20.5L169.5,100.4L169.5,100.4z"/>
					<path class="st16" d="M186.2,130.5h-10.6v-30h10.8c3.1,0,5.8,0.6,8,1.8c2.2,1.2,4,2.9,5.2,5.2c1.2,2.2,1.8,4.9,1.8,8.1
						c0,3.1-0.6,5.8-1.8,8.1c-1.2,2.2-2.9,4-5.2,5.2S189.4,130.5,186.2,130.5z M181.2,125.8h4.7c2.2,0,4-0.4,5.5-1.2
						c1.4-0.7,2.5-1.9,3.3-3.5c0.7-1.6,1.1-3.5,1.1-5.8c0-2.3-0.3-4.2-1.1-5.8c-0.7-1.5-1.8-2.6-3.2-3.4c-1.4-0.7-3.2-1.2-5.3-1.2
						h-4.8L181.2,125.8L181.2,125.8z"/>
					<path class="st16" d="M234.8,115.4c0,3.2-0.6,6-1.9,8.3c-1.3,2.3-3,4.1-5.1,5.3c-2.2,1.2-4.6,1.8-7.4,1.8
						c-2.8,0-5.2-0.6-7.4-1.8c-2.2-1.2-3.9-3-5.1-5.3c-1.3-2.3-1.9-5.1-1.9-8.3c0-3.2,0.6-6,1.9-8.3c1.3-2.3,3-4.1,5.1-5.3
						c2.2-1.2,4.6-1.8,7.4-1.8c2.8,0,5.2,0.6,7.4,1.8c2.2,1.2,3.9,3,5.1,5.3C234.2,109.5,234.8,112.2,234.8,115.4z M229,115.4
						c0-2.3-0.3-4.2-1.1-5.8c-0.7-1.6-1.8-2.8-3-3.6c-1.3-0.8-2.8-1.2-4.5-1.2s-3.2,0.4-4.5,1.2c-1.3,0.8-2.3,2-3,3.6
						c-0.7,1.6-1.1,3.5-1.1,5.8s0.3,4.2,1.1,5.8c0.7,1.6,1.8,2.8,3,3.6c1.3,0.8,2.8,1.2,4.5,1.2s3.2-0.4,4.5-1.2
						c1.3-0.8,2.3-2,3-3.6C228.7,119.6,229,117.7,229,115.4z"/>
				</g>
			</g>
		</g>
	</g>
</g>
</svg>
