<svg xmlns="http://www.w3.org/2000/svg" viewBox="0 0 125.23 28"><rect width="125.23" height="28" fill="#fff" opacity="0"/><path d="M20.34,13a5.64,5.64,0,0,0,.89-5.69C20.11,4.52,17.12,3.23,14,4.16A7,7,0,0,0,9.5,7.9a8.66,8.66,0,0,0-.1,7,8.4,8.4,0,0,0,2.41,3.32l.13.11a4.18,4.18,0,0,0,.54-1.92l-.26-.28a6.26,6.26,0,0,1-1.16-1.9,7,7,0,0,1,0-5.55,5.21,5.21,0,0,1,2.82-2.6,5.14,5.14,0,0,1,.55-.2c2.62-.77,4.44.5,5.09,2.1a3.85,3.85,0,0,1-1.85,4.86.57.57,0,0,0-.27.73l.25.63a.58.58,0,0,0,.68.34,1.92,1.92,0,0,1,2.19,1,1.55,1.55,0,0,1-.12,1.35,2.37,2.37,0,0,1-1.22,1.06,5.93,5.93,0,0,1-3.77.22l-.22-.06a6,6,0,0,1-.51,1.72l.26.06A7.87,7.87,0,0,0,18.5,20a6.84,6.84,0,0,0,1.4-.42,4.1,4.1,0,0,0,2.19-2,3.32,3.32,0,0,0,.14-2.75A3.43,3.43,0,0,0,20.34,13Z" fill="#00b3b5"/><path d="M14.24,13a9.41,9.41,0,0,0-1.83-2.89c-.26-.27-.58-.57-.8-.76a2.9,2.9,0,0,0-.46,2l.12.13a7.64,7.64,0,0,1,1.31,2.13,6.62,6.62,0,0,1,0,4.93,6,6,0,0,1-3.35,3.38,2,2,0,0,1-2.64-.82,1.9,1.9,0,0,1,.9-2.21.58.58,0,0,0,.25-.72l-.25-.63a.58.58,0,0,0-.71-.33A3.88,3.88,0,0,1,2.09,15,3.92,3.92,0,0,1,4.3,10a5.31,5.31,0,0,1,4-.43,4.48,4.48,0,0,1,.56-1.7l-.57-.14a7,7,0,0,0-4.83.68c-2.92,1.5-4.17,4.5-3,7.28A5.65,5.65,0,0,0,5,19.13,3.42,3.42,0,0,0,5,21.77a3.65,3.65,0,0,0,4.18,2,4.71,4.71,0,0,0,.79-.23,7.81,7.81,0,0,0,4.33-4.35A8.32,8.32,0,0,0,14.24,13Z" fill="#00b3b5"/><path d="M39,10.35a2.38,2.38,0,0,0,1.68-.64,2.13,2.13,0,0,0,.71-1.63,2.19,2.19,0,0,0-.71-1.66,2.44,2.44,0,0,0-3.36,0,2.25,2.25,0,0,0-.69,1.66,2.2,2.2,0,0,0,.69,1.63A2.37,2.37,0,0,0,39,10.35Z" fill="#00b3b5"/><path d="M41.27,20.75c-.13,0-.41-.06-.41-.82V13.16a.85.85,0,0,0-.91-.91h-2a.84.84,0,0,0-.9.91v7.18c0,3,1.73,3.58,3.19,3.58,1.14,0,1.72-.36,1.72-1V21.59A.78.78,0,0,0,41.27,20.75Z" fill="#00b3b5"/><path d="M53.23,7.94A.88.88,0,0,0,53,6.78a5.26,5.26,0,0,0-3.29-1A5,5,0,0,0,45.73,7.3a5.88,5.88,0,0,0-1.33,4V23a.83.83,0,0,0,.88.91h2a.83.83,0,0,0,.88-.91V15.43h2.5a.82.82,0,0,0,.88-.88V13.16a.83.83,0,0,0-.88-.91h-2.5v-.79a2.8,2.8,0,0,1,.48-1.75A1.56,1.56,0,0,1,50,9.15a2.83,2.83,0,0,1,1.56.49.68.68,0,0,0,.58.15.7.7,0,0,0,.48-.42Z" fill="#00b3b5"/><path d="M64.75,16.82c0-2.25-1-6.81-5.94-6.81-4.6,0-6.24,3.9-6.24,7,0,3.81,2.44,6.36,5.17,6.84a9.49,9.49,0,0,0,5.72-1,.67.67,0,0,0,.29-1c-.25-.68-.41-1-.59-1.52a.67.67,0,0,0-.95-.39c-2,.94-5.79,1.21-5.86-2h7.41A1,1,0,0,0,64.75,16.82ZM61.07,15.4H56.31c0-1.29.86-2.15,2.52-2.15A2,2,0,0,1,61.07,15.4Z" fill="#00b3b5"/><path d="M34.34,20.68H30.5a.49.49,0,0,1-.49-.49V7.05a.81.81,0,0,0-.89-.86h-2a.81.81,0,0,0-.88.86V21a2.94,2.94,0,0,0,2.94,2.93h5.16a.81.81,0,0,0,.89-.86V21.53A.86.86,0,0,0,34.34,20.68Z" fill="#00b3b5"/><path d="M73.71,17.65q-.21.15-.3,0a2.07,2.07,0,0,0-1.89-.91,1.76,1.76,0,0,0-1.13.3,1,1,0,0,0-.42.8.86.86,0,0,0,.27.65,1.53,1.53,0,0,0,.67.39c.28.09.58.17.92.25a7.08,7.08,0,0,1,1,.28,4.83,4.83,0,0,1,.92.41,1.84,1.84,0,0,1,.67.71,2.29,2.29,0,0,1,.26,1.14,2.18,2.18,0,0,1-.8,1.71,3.47,3.47,0,0,1-2.36.71,5,5,0,0,1-1.38-.18,3.47,3.47,0,0,1-1-.45,4.36,4.36,0,0,1-.6-.5,2.7,2.7,0,0,1-.35-.44.22.22,0,0,1,.06-.31l.59-.55c.12-.12.22-.12.31,0a2.9,2.9,0,0,0,2.39,1.17,1.94,1.94,0,0,0,1.15-.3,1,1,0,0,0,.42-.81,1,1,0,0,0-.26-.7,1.56,1.56,0,0,0-.68-.41c-.28-.09-.59-.17-.93-.25s-.67-.16-1-.26a5.11,5.11,0,0,1-.92-.4,1.67,1.67,0,0,1-.68-.71,2.24,2.24,0,0,1-.26-1.14,2.16,2.16,0,0,1,.81-1.71,3.35,3.35,0,0,1,2.24-.69,4.92,4.92,0,0,1,1.27.15,2.92,2.92,0,0,1,.92.4,3.08,3.08,0,0,1,.55.45,1.92,1.92,0,0,1,.31.41.21.21,0,0,1-.07.33Z" fill="#7a7a7a"/><path d="M76.81,24a.21.21,0,0,1-.23-.23v-8a.2.2,0,0,1,.23-.23h4.85a.2.2,0,0,1,.23.23v.77a.2.2,0,0,1-.23.23H78.12v2.43H80.9c.16,0,.23.07.23.23v.77c0,.15-.08.22-.24.22H78.12v2.37h3.54a.2.2,0,0,1,.23.23v.77a.2.2,0,0,1-.23.23H76.81Z" fill="#7a7a7a"/><path d="M90.37,21a3.15,3.15,0,0,1-.81,2.18,3,3,0,0,1-2.39.9A3.57,3.57,0,0,1,84.44,23a4.54,4.54,0,0,1-1-3.2,4.71,4.71,0,0,1,1-3.23,3.5,3.5,0,0,1,2.73-1.11,3.64,3.64,0,0,1,1.27.21,3,3,0,0,1,.9.51,3.09,3.09,0,0,1,.55.69,3.78,3.78,0,0,1,.31.68c0,.18.09.36.12.53s0,.2-.23.23l-.93.15a.22.22,0,0,1-.27-.16,2.73,2.73,0,0,0-.1-.41,2.23,2.23,0,0,0-.25-.48A1.29,1.29,0,0,0,88,17a2,2,0,0,0-.83-.17,1.91,1.91,0,0,0-1.57.75A3.5,3.5,0,0,0,85,19.79,3.3,3.3,0,0,0,85.63,22a2,2,0,0,0,1.58.73,1.63,1.63,0,0,0,1.3-.48A1.87,1.87,0,0,0,88.92,21v-.23H87.18a.2.2,0,0,1-.22-.23v-.68c0-.16.08-.23.24-.23h2.93c.16,0,.24.07.24.23Z" fill="#7a7a7a"/><path d="M97.37,15.76c0-.16.07-.23.22-.23h1.07c.16,0,.23.07.23.23v4.75A3.64,3.64,0,0,1,98,23.25a3.74,3.74,0,0,1-4.72,0,3.6,3.6,0,0,1-.9-2.74V15.76a.2.2,0,0,1,.23-.23h1.08c.14,0,.21.07.21.23v4.87c0,1.41.58,2.11,1.73,2.11s1.72-.7,1.72-2.11V15.76Z" fill="#7a7a7a"/><path d="M108.37,23.76a.25.25,0,0,1-.19.23,2,2,0,0,1-.62.07,1.94,1.94,0,0,1-1.18-.34,2.23,2.23,0,0,1-.71-.82c-.16-.32-.31-.65-.45-1a3,3,0,0,0-.53-.83,1.14,1.14,0,0,0-.83-.34h-1v3a.2.2,0,0,1-.23.23h-1.07a.21.21,0,0,1-.23-.23v-8a.2.2,0,0,1,.23-.23h2.72a3.69,3.69,0,0,1,2.34.63,2.39,2.39,0,0,1,.8,2,2.17,2.17,0,0,1-.45,1.41,2.46,2.46,0,0,1-1.06.76,2.45,2.45,0,0,1,.56.67c.17.31.32.59.43.85a2.25,2.25,0,0,0,.46.69,1,1,0,0,0,.69.31h.18q.18,0,.18.21Zm-4.32-4.15a2.14,2.14,0,0,0,1.31-.37,1.19,1.19,0,0,0,.51-1,1.33,1.33,0,0,0-.45-1.06,1.84,1.84,0,0,0-1.25-.39h-1.35v2.85Z" fill="#7a7a7a"/><path d="M110.52,23a4.43,4.43,0,0,1-1.06-3.22,4.45,4.45,0,0,1,1.06-3.22,3.85,3.85,0,0,1,5.41,0A4.45,4.45,0,0,1,117,19.78,4.43,4.43,0,0,1,115.93,23a3.9,3.9,0,0,1-5.41,0Zm4.29-.95a3.46,3.46,0,0,0,.61-2.27,3.46,3.46,0,0,0-.61-2.27,2.09,2.09,0,0,0-3.16,0,3.46,3.46,0,0,0-.61,2.27,3.46,3.46,0,0,0,.61,2.27,2.07,2.07,0,0,0,3.16,0Z" fill="#7a7a7a"/><path d="M124.24,17.65c-.13.1-.24.1-.3,0a2.07,2.07,0,0,0-1.89-.91,1.72,1.72,0,0,0-1.12.3,1,1,0,0,0-.42.8.85.85,0,0,0,.26.65,1.59,1.59,0,0,0,.67.39c.28.09.59.17.92.25a7.61,7.61,0,0,1,1,.28,5,5,0,0,1,.91.41,1.86,1.86,0,0,1,.68.71,2.4,2.4,0,0,1,.26,1.14,2.19,2.19,0,0,1-.81,1.71,3.47,3.47,0,0,1-2.36.71,5,5,0,0,1-1.38-.18,3.4,3.4,0,0,1-1-.45,5.29,5.29,0,0,1-.61-.5,2.17,2.17,0,0,1-.34-.44.2.2,0,0,1,.06-.31l.58-.55c.12-.12.23-.12.32,0a2.88,2.88,0,0,0,2.38,1.17,1.94,1.94,0,0,0,1.15-.3,1,1,0,0,0,.16-1.51,1.5,1.5,0,0,0-.68-.41c-.28-.09-.59-.17-.92-.25s-.68-.16-1-.26a5.11,5.11,0,0,1-.92-.4,1.67,1.67,0,0,1-.68-.71,2.34,2.34,0,0,1-.26-1.14,2.16,2.16,0,0,1,.81-1.71,3.37,3.37,0,0,1,2.24-.69,5.05,5.05,0,0,1,1.28.15,3.14,3.14,0,0,1,.92.4,3.36,3.36,0,0,1,.54.45,2,2,0,0,1,.32.41.22.22,0,0,1-.07.33Z" fill="#7a7a7a"/></svg>