<svg width="364" height="110" viewBox="0 0 364 110" fill="none" xmlns="http://www.w3.org/2000/svg">
<path d="M364 71H1V110H364V71Z" fill="#6F6F6E"/>
<path d="M212 98H208.64L205.84 93.1695C205.56 92.661 205.28 92.4068 204.72 92.1525C204.16 91.8983 203.88 91.8983 203.32 91.8983H201.08V98H198V83H205.28C206.68 83 208.36 83.2542 209.48 84.0169C210.6 84.7797 211.16 86.0508 210.88 87.322C210.88 88.339 210.6 89.3559 209.76 90.1186C208.92 90.8814 207.8 91.3898 206.68 91.6441C207.52 91.8983 208.36 92.4068 208.92 93.4237L212 98ZM207.52 89.1017C208.08 88.5932 208.36 88.0847 208.36 87.322C208.36 86.5593 208.08 86.0508 207.52 85.5424C206.68 85.0339 205.84 85.0339 205 85.0339H201.08V89.8644H205C205.84 89.8644 206.68 89.6102 207.52 89.1017Z" fill="white"/>
<path d="M223 98V83H234V85.2881H225.821V89.3559H233.436V91.3898H225.821V95.7119H234V98H223Z" fill="white"/>
<path d="M250.429 98V85.2881H245V83H259V85.2881H253.571V98H250.429Z" fill="white"/>
<path d="M270 98V83H273V98H270Z" fill="white"/>
<path d="M298 98H294.64L291.84 93.1695C291.56 92.661 291.28 92.4068 290.72 92.1525C290.16 91.8983 289.88 91.8983 289.32 91.8983H287.08V98H284V83H291.28C292.68 83 294.36 83.2542 295.48 84.0169C296.6 84.7797 297.16 86.0508 296.88 87.322C296.88 88.339 296.6 89.3559 295.76 90.1186C294.92 90.8814 293.8 91.3898 292.68 91.6441C293.52 91.8983 294.36 92.4068 294.92 93.4237L298 98ZM293.52 89.1017C294.08 88.5932 294.36 88.0847 294.36 87.322C294.36 86.5593 294.08 86.0508 293.52 85.5424C292.68 85.0339 291.84 85.0339 291 85.0339H287.08V89.8644H291C291.84 89.8644 292.96 89.6102 293.52 89.1017Z" fill="white"/>
<path d="M312.826 97.0702C311.713 96.5744 310.6 95.5826 310.043 94.343C308.652 91.8636 308.652 88.8884 310.043 86.4091C310.6 85.4174 311.713 84.4256 312.826 83.9298C315.33 82.6901 318.67 82.6901 321.174 83.9298C322.287 84.4256 323.4 85.4174 323.957 86.4091C325.348 88.8884 325.348 91.8636 323.957 94.343C323.4 95.3347 322.287 96.3264 321.174 97.0702C318.391 98.3099 315.33 98.3099 312.826 97.0702ZM320.339 94.343C322.009 91.8636 322.009 88.8884 320.339 86.4091C318.67 84.6736 315.609 84.6736 313.661 86.1612L313.383 86.4091C311.713 88.8884 311.713 91.8636 313.383 94.343C315.052 96.0785 318.113 96.0785 320.061 94.5909L320.339 94.343Z" fill="white"/>
<path d="M169 83.2542L162.492 91.1356V98H159.508V91.1356L153 83H156.254L160.864 88.8475L165.475 83H169V83.2542V83.2542Z" fill="white"/>
<path d="M52.9344 83H56L48.7541 98H46.2459L39 83H42.0656L47.6393 94.6949L52.9344 83Z" fill="white"/>
<path d="M67 98V83H70V98H67Z" fill="white"/>
<path d="M81 83.048H87.3158C89.6125 82.7946 91.9091 83.5549 93.6316 85.0754C96.7895 88.3699 96.7895 92.9315 93.6316 95.9726C91.9091 97.2397 89.6125 98 87.3158 98H81V83.048ZM87.0287 95.7192C90.1866 95.7192 92.7703 93.185 92.7703 90.3973C92.7703 87.6096 90.1866 85.3288 87.0287 85.3288H84.1579V95.7192H87.0287Z" fill="white"/>
<path d="M121.032 98L119.413 94.4407H111.587L109.968 98H107L114.286 83H116.714L124 98H121.032ZM112.667 92.1525H118.603L115.635 85.7966L112.667 92.1525Z" fill="white"/>
<path d="M242.182 1V42.6216C242.182 46.9099 242.723 49.1802 243.533 49.1802H270V57H243.533C236.511 57 233 52.2072 233 42.6216V1H242.182Z" fill="#6F6F6E"/>
<path d="M280 1V57H271V1H280Z" fill="#6F6F6E"/>
<path d="M322 8.81983H292.557C290.906 8.81983 290.081 9.82883 290.081 11.5946V25.4685H314.57V33.2883H290.081V57H281V11.5946C281 4.53153 284.852 1 292.557 1L322 1.50451V8.81983V8.81983Z" fill="#6F6F6E"/>
<path d="M364 8.81983H334.557C332.906 8.81983 332.081 9.82883 332.081 11.5946V25.4685H356.57V32.5315H332.081V46.9099C332.081 48.6757 332.906 49.4324 334.557 49.4324H363.725V56.4955L334.557 57C326.852 57 323 53.4685 323 46.6577V11.5946C323 4.53153 326.852 1 334.557 1L364 1.50451V8.81983V8.81983Z" fill="#6F6F6E"/>
<path d="M45.8696 32.7876C43.9117 30.5177 41.3945 29.0044 38.3179 27.9956C33.8428 26.4823 29.3677 25.2212 24.6129 24.4646C20.9769 23.9602 17.3409 22.6991 13.9846 21.1858C12.0268 20.177 10.908 18.1593 10.908 16.1416C10.908 13.6195 12.0268 11.3496 14.544 10.0885C17.3409 8.57522 20.6972 7.81859 24.0536 7.81859C29.6474 8.0708 35.521 9.07965 40.5554 11.6018V3.27876C39.157 2.77434 37.7585 2.26991 36.36 1.76549C32.4443 0.504427 28.2489 0 24.0536 0C19.8582 0 15.3831 0.756641 11.4674 2.26992C8.11108 3.53098 5.31415 5.54867 3.07661 8.32301C1.11877 10.8451 0 13.8717 0 16.8982C0 19.6726 0.839082 22.4469 2.51724 24.7168C4.47508 26.9867 6.99231 28.7522 9.78924 29.7611C13.7049 31.2743 17.9003 32.5354 22.3754 33.292C26.5708 34.0487 30.4865 35.0575 34.1225 36.5708C36.0803 37.5796 37.4788 39.3451 37.4788 41.3628C37.4788 43.6327 36.0803 45.9027 33.8428 47.1637C30.4865 48.677 26.5708 49.4336 22.6551 49.1814C19.0191 49.1814 15.3831 48.677 11.7471 47.6681C7.83138 46.1549 3.91569 44.3894 0.279688 42.1195V51.4513C3.07661 52.9646 5.87353 54.2257 8.95015 55.2345C13.1455 56.4956 17.6206 57 22.3754 57C27.1302 57 31.8849 56.4956 36.6397 54.9823C39.996 53.9734 43.0726 51.9557 45.0305 49.1814C46.9883 46.6593 48.1071 43.6327 47.8274 40.6062C48.3868 37.5796 47.5477 35.0575 45.8696 32.7876Z" fill="#6F6F6E"/>
<path d="M99.4131 2H108V56H98.3052V20.578L82.2394 47.578H74.7606L58.6948 20.8257V56H49V2H57.8639L78.6385 37.422L99.4131 2Z" fill="#6F6F6E"/>
<path d="M161 26.4676V52.9352C157.982 54.1955 154.414 55.2038 151.121 55.9601C147.28 56.7163 143.164 56.9683 139.322 56.9683C133.834 57.2204 128.071 55.9601 123.132 53.4393C118.741 51.1707 114.9 47.8937 112.704 43.6085C107.765 34.0298 107.765 22.9386 112.704 13.3598C114.9 9.32668 118.467 5.79766 123.132 3.52901C128.071 1.26036 133.285 0 138.773 0C142.889 0 147.005 0.504146 151.121 1.51243C154.14 2.52072 157.707 3.78108 157.707 3.78108V12.6036C151.945 9.83082 145.633 8.31838 139.048 8.06631C133.834 7.81424 128.62 9.57874 125.053 13.1078C122.034 16.3847 120.388 21.4261 120.388 27.98C120.388 41.5919 126.974 48.3979 139.871 48.3979C143.712 48.3979 147.554 47.8937 151.396 46.8855V33.7777H138.499V26.4676H161Z" fill="#6F6F6E"/>
<path d="M223 34H202V55H223V34Z" fill="#E4002B"/>
<path d="M192 34H171V55H192V34Z" fill="#E4002B"/>
<path d="M192 3H171V24H192V3Z" fill="#E4002B"/>
<path d="M223 3H202V24H223V3Z" fill="#E4002B"/>
</svg>
