<svg width="574" height="238" viewBox="0 0 574 238" fill="none" xmlns="http://www.w3.org/2000/svg">
<path d="M0 179.009V178.009C1.19583 178.009 2.05 177.843 2.73333 177.51C3.5875 177.01 3.92917 176.177 3.92917 175.012V154.527C3.92917 153.361 3.5875 152.528 2.73333 152.029C2.22083 151.862 1.36667 151.529 0 151.529V150.53H24.6V159.024H23.575C23.0625 156.359 22.0375 154.527 20.8417 153.528C19.475 152.528 17.2542 151.862 13.8375 151.862C12.4708 151.862 11.7875 151.862 11.4458 152.362C11.1042 152.695 10.9333 153.195 10.9333 153.861V163.687C13.325 163.687 14.8625 163.187 15.7167 162.188C16.5708 161.189 17.0833 159.523 17.5958 157.358H18.6208V171.681H17.5958C17.2542 169.349 16.7417 167.684 15.7167 166.684C14.8625 165.685 13.1542 165.186 10.9333 165.186V175.012C10.9333 176.344 11.275 177.177 12.1292 177.51C12.9833 177.843 14.1792 178.009 15.7167 178.009V179.009H0V179.009Z" fill="#2857AF"/>
<path d="M51.4562 178.843H26.6499V177.85C27.8232 177.85 28.6612 177.684 29.1641 177.353C30.0021 176.856 30.3373 176.028 30.3373 174.869V154.504C30.3373 153.345 29.8345 152.351 29.1641 152.02C28.6612 151.855 27.8232 151.689 26.6499 151.523V150.53H51.2886V158.974H50.2829C49.7801 156.325 48.7744 154.338 47.6012 153.345C46.2603 152.351 43.9137 151.855 40.3939 151.855C39.053 151.855 38.215 151.855 37.8798 152.186C37.5446 152.517 37.3769 153.014 37.3769 153.841V163.61C39.7235 163.61 41.3996 163.279 42.2376 162.286C43.0757 161.292 43.7461 159.802 44.249 157.318H45.4222V171.558H44.249C43.9137 169.24 43.2433 167.418 42.4052 166.425C41.3996 165.432 39.7235 164.935 37.3769 164.935V175.2C37.3769 176.028 37.5446 176.691 38.0474 177.022C38.5502 177.353 39.5559 177.518 40.8968 177.518C43.5785 177.518 45.7575 177.022 47.6012 176.028C49.2773 175.035 50.7858 173.048 52.1266 170.233H53.2999L51.6238 179.009L51.4562 178.843Z" fill="#2857AF"/>
<path d="M65.6954 154.194C65.6954 153.361 65.6954 152.695 66.0292 152.362C66.3629 151.862 67.0303 151.696 68.1984 151.696C71.5356 151.696 73.8716 153.361 75.3734 156.859C76.2077 159.024 76.7082 161.522 76.7082 164.519C76.7082 169.516 75.8739 173.013 74.3722 174.678C72.7036 176.51 70.7013 177.343 68.1984 177.343C67.1972 177.343 66.6966 177.177 66.3629 176.677C66.0292 176.344 65.8623 175.678 65.8623 174.845V154.027L65.6954 154.194ZM68.6989 179.009C73.5379 179.009 77.3757 177.51 80.2123 174.512C82.7152 171.847 84.0501 168.516 84.0501 164.852C84.0501 160.522 82.8821 157.192 80.3792 154.693C77.5425 151.862 73.7047 150.53 68.3652 150.53H55.3501V151.529C56.5181 151.529 57.1856 151.862 57.6861 152.029C58.5204 152.528 58.8542 153.195 58.8542 154.36V175.178C58.8542 176.344 58.5204 177.01 57.6861 177.51C57.1856 177.676 56.5181 177.843 55.3501 178.009V179.009H68.6989V179.009Z" fill="#2857AF"/>
<path d="M110.612 178.843H86.1001V177.85C87.4161 177.85 88.2387 177.684 88.7322 177.353C89.5547 176.856 89.8837 176.028 89.8837 174.869V154.504C89.8837 153.345 89.5547 152.351 88.7322 152.02C88.2387 151.855 87.4161 151.689 86.2646 151.523V150.53H110.447V158.974H109.46C108.966 156.325 107.979 154.338 106.828 153.345C105.512 152.351 103.209 151.855 99.9186 151.855C98.6026 151.855 97.78 151.855 97.451 152.186C97.122 152.517 96.9575 153.014 96.9575 153.841V163.61C99.4251 163.61 100.906 163.279 101.893 162.286C102.715 161.292 103.373 159.802 103.867 157.318H105.018V171.558H103.867C103.538 169.24 102.88 167.418 102.057 166.425C101.07 165.432 99.4251 164.935 97.122 164.935V175.2C97.122 176.028 97.2865 176.691 97.78 177.022C98.2736 177.353 99.0961 177.518 100.577 177.518C103.209 177.518 105.512 177.022 107.157 176.028C108.802 175.035 110.282 173.048 111.599 170.233H112.75L111.105 179.009L110.612 178.843Z" fill="#2857AF"/>
<path d="M125.757 153.694C125.757 153.694 125.933 152.528 126.287 152.362C126.64 152.029 127.524 151.862 128.584 151.862C130.705 151.862 132.295 152.695 133.179 154.36C133.709 155.36 133.886 156.692 133.886 158.191C133.886 160.856 133.356 162.521 131.942 163.354C130.705 164.02 128.584 164.519 125.58 164.519V153.694H125.757ZM129.645 179.009V178.009C128.054 178.009 126.994 177.676 126.464 177.177C125.933 176.677 125.757 175.678 125.757 174.179V165.852H126.994L136.36 179.009H145.55V178.009C145.55 178.009 144.843 178.009 144.489 177.843L143.783 177.177L134.77 165.186C136.36 164.853 137.774 164.353 139.188 163.354C140.955 162.021 141.839 160.189 141.839 157.858C141.839 154.693 140.071 152.528 136.537 151.363C134.77 150.696 132.295 150.53 129.291 150.53H114.8V151.529C116.39 151.529 117.274 151.862 117.804 152.195C118.511 152.695 118.864 153.694 118.864 155.36V174.012C118.864 175.511 118.511 176.677 117.981 177.177C117.451 177.676 116.39 177.843 114.8 178.009V179.009H129.998H129.645Z" fill="#2857AF"/>
<path d="M159.113 159.753H159.447L163.452 169.3H155.276L159.113 159.753ZM156.277 179.009V178.038C155.276 178.038 154.608 178.038 154.108 177.714C153.273 177.552 152.94 177.067 152.94 176.42C152.94 175.934 153.106 175.125 153.44 174.154C153.607 173.669 153.941 172.536 154.608 170.918H164.119L165.12 173.345C165.12 173.345 165.621 174.316 165.621 174.801C165.788 175.449 165.955 175.934 165.955 176.258C165.955 176.905 165.788 177.39 165.287 177.552C164.787 177.714 163.952 177.876 162.618 177.876V178.847H176.3V177.876C175.299 177.876 174.632 177.552 174.131 176.905C173.63 176.258 172.796 174.64 171.795 172.213L162.284 150.53H161.116L151.772 173.022C150.937 174.801 150.437 175.934 150.103 176.42C149.436 177.229 148.601 177.714 147.6 177.714V178.685H156.277V179.009Z" fill="#2857AF"/>
<path d="M192.991 150.688C194.801 150.688 196.446 151.005 198.255 151.637C200.065 152.27 201.052 152.587 201.216 152.587C201.71 152.587 202.203 152.428 202.533 151.954C202.862 151.479 203.026 151.163 203.191 150.688H204.342V160.181H203.355C202.368 158.124 201.381 156.542 200.229 155.276C198.255 153.061 196.117 151.954 193.485 151.954C190.688 151.954 188.714 153.061 187.562 155.435C186.411 157.808 185.753 160.972 185.753 164.769C185.753 167.617 186.082 169.99 186.74 171.889C188.056 175.37 190.524 177.11 193.978 177.11C196.117 177.11 198.091 176.477 199.9 175.37C201.052 174.737 202.204 173.629 203.684 172.205L205 173.155C203.355 174.895 201.874 176.161 200.723 176.952C198.584 178.376 196.117 179.009 193.32 179.009C189.208 179.009 185.753 177.901 182.956 175.528C179.831 172.996 178.35 169.357 178.35 164.927C178.35 160.497 179.831 157.017 182.792 154.327C185.588 151.796 189.043 150.53 192.991 150.53" fill="#2857AF"/>
<path d="M207.05 179.009V178.009C208.311 178.009 209.212 177.843 209.933 177.51C210.834 177.01 211.375 176.177 211.375 175.012V154.527C211.375 153.195 211.015 152.362 210.114 152.029C209.573 151.862 208.672 151.696 207.23 151.529V150.53H223.27V151.529C221.828 151.529 220.927 151.862 220.386 152.029C219.485 152.528 219.125 153.361 219.125 154.527V175.012C219.125 176.177 219.485 177.01 220.206 177.343C220.927 177.676 222.008 178.009 223.45 178.009V179.009H207.41H207.05Z" fill="#2857AF"/>
<path d="M231.992 172.124C231.309 170.246 230.967 167.742 230.967 164.613C230.967 161.483 231.309 159.136 231.992 157.258C233.188 153.659 235.409 151.938 238.825 151.938C241.217 151.938 243.096 153.034 244.463 155.224C245.829 157.415 246.513 160.544 246.513 164.769C246.513 167.899 246.171 170.402 245.488 172.28C244.292 175.879 242.071 177.6 238.825 177.6C235.579 177.6 233.359 175.879 232.163 172.28L231.992 172.124ZM227.721 154.755C224.817 157.415 223.45 160.857 223.45 165.082C223.45 168.838 224.817 172.124 227.55 174.784C230.454 177.6 234.213 179.009 238.825 179.009C243.267 179.009 246.854 177.757 249.759 175.097C252.834 172.437 254.2 168.994 254.2 164.769C254.2 160.544 252.663 157.258 249.759 154.442C246.854 151.782 243.267 150.53 238.825 150.53C234.384 150.53 230.625 151.938 227.721 154.598" fill="#2857AF"/>
<path d="M256.426 178.038V177.067C258.007 177.067 259.237 176.743 259.589 176.258C260.116 175.772 260.291 174.963 260.291 173.831V154.413C258.886 152.957 258.007 152.148 257.831 151.986C257.48 151.824 257.129 151.663 256.426 151.501V150.53H265.914L281.377 167.844H281.553V155.546C281.553 154.09 281.201 153.119 280.674 152.633C280.147 151.986 279.093 151.663 277.336 151.501V150.53H287V151.501C285.594 151.824 284.716 151.986 284.189 152.31C283.661 152.633 283.486 153.443 283.486 154.737V179.009H282.256L262.576 157.002H262.224V173.183C262.224 174.478 262.4 175.287 262.751 175.934C263.279 176.743 264.509 177.229 266.441 177.229V178.199H256.25L256.426 178.038Z" fill="#2857AF"/>
<path d="M313.801 153.51C313.801 153.51 313.966 152.517 314.297 152.351C314.627 152.186 315.287 152.02 316.113 152.02C317.929 152.02 319.084 152.682 319.745 153.841C320.405 155 320.735 156.491 320.735 158.477C320.735 161.292 320.075 163.114 318.754 163.941C317.929 164.438 316.278 164.769 313.801 164.769V153.51V153.51ZM317.433 179.009V178.015C315.948 178.015 315.122 177.684 314.627 177.187C314.131 176.691 313.801 175.697 313.801 174.041V166.259C316.278 166.259 318.259 166.259 319.415 166.094C320.735 166.094 321.891 165.597 323.212 165.1C324.863 164.273 326.184 163.445 326.844 162.12C327.505 160.961 328 159.636 328 158.312C328 155.497 327.009 153.51 325.193 152.351C323.377 151.192 320.57 150.53 316.938 150.53H303.4V151.523C304.721 151.689 305.711 152.02 306.207 152.351C306.702 152.848 306.867 153.841 306.867 155.332V173.876C306.867 175.366 306.537 176.359 306.207 176.856C305.711 177.353 304.886 177.684 303.4 177.684V178.677H317.433V179.009Z" fill="#2857AF"/>
<path d="M340.896 159.753H341.206L344.924 169.3H337.332L340.896 159.753ZM338.262 179.009V178.038C337.332 178.038 336.712 178.038 336.247 177.714C335.473 177.552 335.163 177.067 335.163 176.42C335.163 175.934 335.318 175.125 335.628 174.154C335.783 173.669 336.093 172.536 336.712 170.918H345.544L346.474 173.345C346.474 173.345 346.784 174.316 346.938 174.801C347.093 175.449 347.248 175.934 347.248 176.258C347.248 176.905 347.093 177.39 346.629 177.552C346.164 177.714 345.389 177.876 343.995 177.876V178.847H356.7V177.876C355.77 177.876 355.15 177.552 354.686 176.905C354.221 176.258 353.446 174.64 352.516 172.213L343.685 150.53H342.6L333.923 173.022C333.149 174.801 332.684 175.934 332.374 176.42C331.754 177.229 330.979 177.714 330.05 177.714V178.685H338.107L338.262 179.009Z" fill="#2857AF"/>
<path d="M357.017 158.974V150.53H381.3V158.974H380.189C379.871 155.994 378.76 153.841 376.856 152.848C375.904 152.351 374.316 152.02 372.253 151.855V174.041C372.253 175.532 372.571 176.691 373.047 177.187C373.523 177.684 374.634 178.015 376.221 178.015V179.009H361.937V178.015C363.524 178.015 364.635 177.684 365.111 177.187C365.587 176.691 365.905 175.697 365.905 174.041V151.855C364 151.855 362.413 152.186 361.302 152.848C359.398 154.007 358.287 155.994 357.969 158.974H356.7H357.017Z" fill="#2857AF"/>
<path d="M393.577 153.694C393.577 153.694 393.741 152.528 394.071 152.362C394.401 152.029 395.226 151.862 396.216 151.862C398.195 151.862 399.679 152.695 400.504 154.36C400.999 155.36 401.164 156.692 401.164 158.191C401.164 160.856 400.504 162.521 399.35 163.354C398.195 164.02 396.216 164.519 393.412 164.519V153.694H393.577ZM397.205 179.009V178.009C395.721 178.009 394.731 177.676 394.236 177.177C393.741 176.677 393.577 175.678 393.577 174.179V165.852H394.731L403.473 179.009H412.05V178.009C412.05 178.009 411.39 178.009 411.06 177.843L410.401 177.177L401.989 165.186C403.473 164.853 404.793 164.353 406.112 163.354C407.762 162.021 408.586 160.189 408.586 157.858C408.586 154.693 406.937 152.528 403.638 151.363C401.824 150.696 399.679 150.53 396.875 150.53H383.35V151.529C384.835 151.529 385.659 151.862 386.154 152.195C386.814 152.695 387.144 153.694 387.144 155.36V174.012C387.144 175.511 386.814 176.677 386.319 177.177C385.824 177.676 384.835 177.843 383.35 178.009V179.009H397.535H397.205Z" fill="#2857AF"/>
<path d="M422.187 172.124C421.553 170.246 421.235 167.742 421.235 164.613C421.235 161.483 421.553 159.136 422.187 157.258C423.297 153.659 425.358 151.938 428.371 151.938C430.591 151.938 432.335 153.034 433.603 155.224C434.872 157.415 435.506 160.544 435.506 164.769C435.506 167.899 435.189 170.402 434.555 172.28C433.445 175.879 431.384 177.6 428.371 177.6C425.358 177.6 423.297 175.879 422.187 172.28V172.124ZM418.064 154.755C415.369 157.415 414.1 160.857 414.1 165.082C414.1 168.838 415.369 172.124 417.906 174.784C420.601 177.6 424.09 179.009 428.529 179.009C432.652 179.009 435.982 177.757 438.677 175.097C441.373 172.437 442.8 168.994 442.8 164.769C442.8 160.544 441.373 157.258 438.677 154.442C435.982 151.782 432.652 150.53 428.529 150.53C424.407 150.53 420.918 151.938 418.223 154.598" fill="#2857AF"/>
<path d="M443.128 178.038V177.067C444.768 177.067 445.752 176.743 446.08 176.258C446.572 175.772 446.736 174.963 446.736 173.831V154.413C445.424 152.957 444.604 152.148 444.44 151.986C444.112 151.824 443.784 151.663 443.128 151.501V150.53H451.984L466.252 167.844H466.416V155.546C466.416 154.09 466.088 153.119 465.596 152.633C465.104 151.986 463.956 151.663 462.48 151.501V150.53H471.5V151.501C470.188 151.824 469.368 151.986 468.876 152.31C468.384 152.633 468.22 153.443 468.22 154.737V179.009H467.072L448.704 157.002H448.376V173.183C448.376 174.478 448.376 175.287 448.868 175.934C449.36 176.743 450.508 177.229 452.312 177.229V178.199H442.8L443.128 178.038Z" fill="#2857AF"/>
<path d="M484.333 159.753H484.641L488.338 169.3H480.79L484.333 159.753ZM481.714 179.009V178.038C480.79 178.038 480.174 178.038 479.712 177.714C478.941 177.552 478.633 177.067 478.633 176.42C478.633 175.934 478.787 175.125 479.095 174.154C479.25 173.669 479.558 172.536 480.174 170.918H488.954L489.879 173.345C489.879 173.345 490.341 174.316 490.341 174.801C490.495 175.449 490.649 175.934 490.649 176.258C490.649 176.905 490.495 177.39 490.033 177.552C489.571 177.714 488.8 177.876 487.568 177.876V178.847H500.2V177.876C499.276 177.876 498.659 177.552 498.197 176.905C497.735 176.258 496.965 174.64 496.041 172.213L487.26 150.53H486.182L477.401 173.022C476.785 174.801 476.169 175.934 475.86 176.42C475.244 177.229 474.474 177.714 473.55 177.714V178.685H481.56L481.714 179.009Z" fill="#2857AF"/>
<path d="M500.2 179.009V178.009C501.388 178.009 502.237 177.843 502.746 177.51C503.595 177.01 504.104 176.177 504.104 175.012V154.527C504.104 153.361 503.764 152.362 502.916 152.029C502.406 151.862 501.558 151.696 500.369 151.529V150.53H515.477V151.529C513.779 151.529 512.591 151.862 511.912 152.195C511.403 152.695 511.063 153.694 511.063 155.36V175.345C511.063 176.344 511.233 176.844 511.742 177.177C512.252 177.51 513.27 177.676 514.628 177.676C517.174 177.676 519.381 177.177 521.078 176.011C522.776 174.845 524.304 172.68 525.662 169.516H526.85L525.152 179.009H500.2V179.009Z" fill="#2857AF"/>
<path d="M303.4 223.761V213.94H304.606C305.41 216.887 306.415 219.047 308.022 220.422C309.63 221.797 311.238 222.386 313.248 222.386C315.258 222.386 316.665 221.993 317.469 221.011C318.272 220.029 318.674 219.047 318.674 218.065C318.674 216.887 318.272 215.905 317.469 215.119C316.866 214.53 315.861 213.94 314.052 213.155L311.238 211.976C308.424 210.602 306.616 209.423 305.41 208.245C304.405 207.066 303.802 205.495 303.802 203.531C303.802 201.567 304.606 199.799 306.013 198.032C307.42 196.264 309.831 195.478 312.846 195.478C314.454 195.478 315.861 195.675 317.469 196.068C318.875 196.46 319.679 196.657 319.88 196.657C320.282 196.657 320.684 196.657 320.885 196.264L321.287 195.282H322.493V203.924H321.287C320.684 201.96 319.679 200.192 318.272 198.817C316.866 197.443 315.057 196.657 313.047 196.657C311.64 196.657 310.434 197.05 309.63 197.835C308.826 198.621 308.424 199.407 308.424 200.389C308.424 201.567 308.826 202.549 309.63 203.335C310.434 203.924 312.042 204.906 314.856 206.084L318.071 207.656C319.478 208.245 320.684 209.03 321.488 209.816C323.096 211.387 323.9 213.155 323.9 215.315C323.9 217.476 323.096 219.243 321.287 221.011C319.478 222.779 316.866 223.761 313.047 223.761C312.243 223.761 311.238 223.761 310.434 223.564C309.429 223.564 308.625 223.171 307.821 222.779H307.018L306.415 222.386H306.013L305.008 222.779C305.008 222.779 304.606 223.368 304.606 223.761H303.4V223.761Z" fill="#2857AF"/>
<path d="M350.796 223.351H325.95V222.327C327.152 222.327 328.154 222.327 328.555 221.917C329.356 221.507 329.757 220.687 329.757 219.458V199.38C329.757 198.15 329.356 197.331 328.555 196.921C328.154 196.716 327.152 196.511 325.95 196.306V195.282H350.396V203.682H349.394C348.793 201.019 347.791 199.175 346.588 198.15C345.186 197.126 342.982 196.716 339.575 196.716C338.373 196.716 337.371 196.716 337.171 197.126C336.77 197.331 336.57 197.946 336.57 198.765V208.395C338.974 208.395 340.577 207.985 341.579 207.165C342.381 206.346 343.182 204.707 343.583 202.248H344.585V216.385H343.583C343.182 213.926 342.581 212.287 341.779 211.468C340.778 210.648 339.174 210.034 336.77 210.034V220.073C336.77 220.073 336.97 221.507 337.371 221.917C337.772 222.327 338.774 222.327 340.176 222.327C342.781 222.327 345.186 221.917 346.789 220.892C348.592 219.868 349.995 217.819 351.397 215.156H352.6L350.796 223.761V223.351Z" fill="#2857AF"/>
<path d="M355.049 209.326C355.049 205.425 356.447 202.109 359.043 199.378C361.838 196.647 365.432 195.282 369.825 195.282C371.622 195.282 373.419 195.672 375.017 196.257C376.814 196.843 377.812 197.233 378.212 197.233C378.611 197.233 379.01 197.233 379.21 196.843C379.41 196.452 379.809 196.062 379.809 195.477H381.007V204.84H380.009C379.01 202.889 378.012 201.329 376.814 200.159C374.817 198.013 372.621 197.038 370.025 197.038C367.229 197.038 365.233 198.208 364.035 200.354C362.837 202.499 362.238 205.62 362.238 209.716C362.238 213.032 362.837 215.958 364.035 218.494C365.233 221.03 367.429 222.395 370.824 222.395C372.621 222.395 373.819 222.005 374.418 221.42C374.817 221.03 375.017 220.445 375.017 219.664V215.373C375.017 214.203 374.617 213.423 373.819 213.032C373.22 212.837 372.221 212.642 370.824 212.642V211.667H385.4V212.642C384.002 212.642 383.004 212.837 382.405 213.423C382.005 214.008 381.606 214.788 381.606 216.153V221.225C381.606 221.225 379.21 222.395 377.014 222.98C374.817 223.566 372.621 223.761 370.025 223.761C365.233 223.761 361.439 222.395 358.643 219.664C356.048 217.129 354.65 213.813 354.65 209.912" fill="#2857AF"/>
<path d="M385.4 195.282H399.362V196.278C397.811 196.278 396.647 196.676 396.259 197.074C395.678 197.473 395.484 198.469 395.484 200.062V213.604C395.484 215.595 395.678 217.189 396.259 218.384C397.229 220.375 398.78 221.57 401.495 221.57C404.598 221.57 406.925 220.375 407.894 218.184C408.476 216.99 408.864 215.197 408.864 212.807V200.46C408.864 199.066 408.67 198.07 408.088 197.473C407.507 196.875 406.537 196.676 404.986 196.477V195.481H414.1V196.477C412.742 196.676 411.967 197.074 411.579 197.473C411.191 197.871 410.997 198.668 410.997 200.062V213.007C410.997 216.392 410.222 219.18 408.476 220.973C406.731 222.765 404.21 223.761 400.526 223.761C395.678 223.761 392.575 222.367 390.83 219.579C389.86 218.184 389.472 216.193 389.472 213.803V200.261C389.472 198.668 389.278 197.672 388.89 197.473C388.503 197.074 387.533 196.875 386.176 196.676V195.68L385.4 195.282Z" fill="#2857AF"/>
<path d="M426.693 198.192C426.693 198.192 426.693 197.153 427.278 196.737C427.669 196.529 428.255 196.321 429.426 196.321C431.378 196.321 432.94 197.153 433.721 198.608C434.112 199.647 434.307 200.895 434.307 202.558C434.307 205.26 433.721 206.923 432.55 207.754C431.378 208.378 429.426 208.794 426.693 208.794V197.984V198.192ZM430.402 223.553V222.513C428.84 222.513 428.059 222.306 427.474 221.682C427.083 221.266 426.693 220.227 426.693 218.772V210.457H427.864L436.455 223.761H444.85V222.721H443.874L443.093 221.89L434.698 209.833C436.064 209.625 437.431 209.002 438.602 207.962C440.164 206.715 441.14 204.844 441.14 202.558C441.14 199.44 439.578 197.361 436.064 196.114C434.307 195.49 432.159 195.282 429.426 195.282H416.15V196.321C417.517 196.321 418.493 196.737 418.883 196.945C419.469 197.361 419.859 198.4 419.859 200.063V218.772C419.859 220.227 419.664 221.474 419.078 221.89C418.493 222.306 417.517 222.513 416.15 222.721V223.761H430.207L430.402 223.553Z" fill="#2857AF"/>
<path d="M456.064 217.037C455.453 215.059 455.046 212.686 455.046 209.521C455.046 206.357 455.249 203.984 455.86 202.006C457.082 198.446 459.322 196.469 462.58 196.469C464.82 196.469 466.857 197.655 468.079 199.831C469.504 202.006 470.115 205.17 470.115 209.521C470.115 212.686 469.708 215.257 469.097 217.037C467.875 220.596 465.635 222.376 462.377 222.376C459.118 222.376 456.878 220.596 455.657 217.037H456.064ZM451.176 199.237C448.325 202.006 446.9 205.368 446.9 209.719C446.9 213.477 448.122 216.839 450.973 219.41C453.824 222.376 457.693 223.761 462.377 223.761C466.653 223.761 470.319 222.376 473.17 219.805C476.224 217.037 477.65 213.675 477.65 209.521C477.65 205.368 476.224 201.808 473.17 199.237C470.319 196.666 466.653 195.282 462.377 195.282C457.897 195.282 454.231 196.666 451.176 199.435" fill="#2857AF"/>
<path d="M477.65 223.761V213.94H478.844C479.441 216.887 480.635 219.047 482.228 220.422C483.82 221.797 485.412 222.386 487.402 222.386C489.393 222.386 490.587 221.993 491.582 221.011C492.378 220.029 492.776 219.047 492.776 218.065C492.776 216.887 492.378 215.905 491.582 215.119C490.985 214.53 489.791 213.94 488.198 213.155L485.412 211.976C482.626 210.602 480.834 209.423 479.64 208.245C478.446 207.066 478.048 205.495 478.048 203.531C478.048 201.567 478.844 199.799 480.237 198.032C481.63 196.264 484.019 195.478 487.004 195.478C488.597 195.478 489.99 195.675 491.582 196.068C492.975 196.46 493.771 196.657 494.169 196.657C494.567 196.657 494.965 196.657 495.164 196.264L495.563 195.282H496.757V203.924H495.563C494.965 201.96 493.97 200.192 492.577 198.817C491.184 197.246 489.393 196.657 487.402 196.657C486.009 196.657 484.815 197.05 484.019 197.835C483.223 198.621 482.825 199.407 482.825 200.389C482.825 201.567 483.223 202.549 484.019 203.335C484.815 203.924 486.407 204.906 489.194 206.084L492.378 207.656C493.771 208.245 494.965 209.03 495.762 209.816C497.354 211.387 498.15 213.155 498.15 215.315C498.15 217.476 497.354 219.243 495.563 221.011C493.97 222.779 491.184 223.761 487.402 223.761C486.606 223.761 485.611 223.761 484.815 223.564C484.019 223.564 483.024 223.171 482.228 222.779H481.431L480.834 222.386H480.436L479.64 222.779C479.64 222.779 479.242 223.368 479.242 223.761H478.048H477.65Z" fill="#2857AF"/>
<path d="M550.112 204.232H550.51L554.496 213.793H546.325L550.112 204.232ZM547.321 223.557V222.54C547.321 222.54 545.528 222.54 545.129 222.337C544.332 222.133 543.933 221.523 543.933 221.116C543.933 220.709 543.933 219.896 544.531 218.879C544.531 218.472 545.129 217.251 545.727 215.624H555.294L556.29 218.065C556.29 218.065 556.689 219.082 556.888 219.489C557.087 220.099 557.287 220.709 557.287 220.913C557.287 221.727 557.087 222.133 556.689 222.337C556.29 222.337 555.294 222.54 554.098 222.744V223.761H567.85V222.744C567.85 222.744 566.056 222.54 565.658 221.727C565.06 220.913 564.262 219.489 563.266 217.048L553.899 195.282H552.703L543.335 217.862C542.538 219.692 541.94 220.709 541.542 221.32C540.944 222.133 540.146 222.54 539.15 222.54V223.557H547.72H547.321Z" fill="#2857AF"/>
<path d="M512.5 223.761V213.94H513.694C514.291 216.887 515.485 219.047 517.078 220.422C518.67 221.797 520.461 222.386 522.451 222.386C524.243 222.386 525.835 221.993 526.631 221.011C527.427 220.029 527.825 219.047 527.825 218.065C527.825 216.887 527.427 215.905 526.631 215.119C526.034 214.53 525.039 213.94 523.248 213.155L520.461 211.976C517.675 210.602 515.883 209.423 514.689 208.245C513.694 207.066 513.097 205.495 513.097 203.531C513.097 201.567 513.893 199.799 515.286 198.032C516.879 196.264 519.068 195.478 522.053 195.478C523.646 195.478 525.039 195.675 526.631 196.068C528.024 196.46 528.82 196.657 529.019 196.657L530.015 196.264L530.413 195.282H531.607V203.924H530.413C529.816 201.96 528.82 200.192 527.427 198.817C526.034 197.246 524.243 196.657 522.252 196.657C520.859 196.657 519.665 197.05 518.869 197.835C518.073 198.621 517.675 199.407 517.675 200.389C517.675 201.567 518.073 202.549 518.869 203.335C519.665 203.924 521.456 204.906 524.044 206.084L527.228 207.656C528.621 208.245 529.816 209.03 530.612 209.816C532.204 211.387 533 213.155 533 215.315C533 217.476 532.204 219.243 530.413 221.011C528.621 222.779 526.034 223.761 522.252 223.761C521.456 223.761 520.66 223.761 519.665 223.564C518.869 223.564 517.874 223.171 517.078 222.779H516.282L515.684 222.386H515.286L514.49 222.779C514.49 222.779 514.092 223.368 514.092 223.761H512.898H512.5Z" fill="#2857AF"/>
<path d="M537.1 221.846C537.1 221.846 536.189 223.761 535.05 223.761C533.911 223.761 533 222.803 533 221.846C533 220.889 533.911 219.692 535.05 219.692C536.189 219.692 537.1 220.65 537.1 221.846Z" fill="#2857AF"/>
<path d="M571.95 221.846C571.95 221.846 571.039 223.761 569.9 223.761C568.761 223.761 567.85 222.803 567.85 221.846C567.85 220.889 568.761 219.692 569.9 219.692C571.039 219.692 571.95 220.65 571.95 221.846Z" fill="#2857AF"/>
<path d="M324.105 6.10257H196.8V132.426H324.105V6.10257Z" fill="url(#paint0_linear_566_2397)"/>
<path d="M213.432 29.9026C213.432 29.9026 213.809 38.9967 215.693 41.1365C215.693 41.1365 219.085 47.7341 215.316 55.4017C215.316 55.4017 216.07 60.9295 210.606 62.356C210.606 62.356 205.896 67.3488 206.838 70.0236C206.838 70.0236 207.592 72.8766 204.201 72.52C204.201 72.52 205.331 85.0021 198.172 84.8238C198.172 84.8238 190.07 49.8739 213.244 30.0809" fill="#1F1F1F"/>
<path d="M215.225 65.3719C215.225 65.3719 219.846 58.6458 218.78 67.1898C218.78 67.1898 216.291 71.7345 217.002 73.916C217.002 73.916 213.092 76.461 213.092 80.2785C213.092 80.2785 210.07 83.1871 209.714 78.4607C209.714 78.4607 210.425 72.0981 212.203 72.0981C212.203 72.0981 215.047 72.0981 215.402 65.3719" fill="#1F1F1F"/>
<path d="M207.87 103.998C207.87 103.998 212.106 101.159 213.801 105.772C213.801 105.772 216.173 110.917 219.393 111.982C219.393 111.982 225.663 111.982 220.749 119.611C220.749 119.611 210.242 110.207 207.87 103.998" fill="#1F1F1F"/>
<path d="M239.294 10.2538C239.294 10.2538 233.365 22.4795 236.419 27.7712C236.419 27.7712 241.989 33.4279 247.738 25.9465C247.738 25.9465 251.331 26.6764 250.971 33.7928C250.971 33.7928 250.971 43.0989 254.205 42.734C254.205 42.734 258.697 43.0989 257.619 37.4423C257.619 37.4423 262.29 51.3102 267.859 53.1349C267.859 53.1349 278.818 54.9597 270.015 60.2514C270.015 60.2514 254.565 73.0245 268.219 86.7099C268.219 86.7099 271.632 89.9944 269.297 94.5563C269.297 94.5563 270.375 118.46 266.063 123.205C266.063 123.205 267.141 128.131 269.836 122.11C269.836 122.11 277.202 116.818 276.124 111.709C276.124 111.709 281.334 112.439 282.052 108.424C282.771 104.592 280.974 108.059 280.974 108.059C280.974 108.059 288.34 97.2934 291.395 97.8408H291.215C291.215 97.8408 302.174 90.5419 296.784 79.5935C296.784 79.5935 282.052 57.3318 276.663 62.0761C276.663 62.0761 276.303 54.2298 274.866 51.6752C274.866 51.6752 267.141 49.1205 272.71 45.2886C272.71 45.2886 276.663 42.734 278.279 48.5731C278.279 48.5731 282.232 48.2082 277.561 39.9969C277.561 39.9969 280.795 40.7268 285.286 35.8C285.286 35.8 296.605 38.5371 294.449 26.4939C294.449 26.4939 294.089 16.8228 288.7 18.2826C288.7 18.2826 291.395 25.5815 282.591 25.5815C279.717 25.5815 282.591 25.5815 282.591 25.5815C282.591 25.5815 273.608 22.1146 279.537 14.2682C279.537 14.2682 282.412 11.7136 273.608 8.24663C270.015 6.78684 270.375 6.96932 270.375 6.96932C270.375 6.96932 259.415 3.50233 238.755 10.4363" fill="#1F1F1F"/>
<path d="M281.67 70.1795C281.67 105.595 310.554 134.256 346.245 134.256C381.936 134.256 410.82 105.595 410.82 70.1795C410.82 34.7638 381.936 6.10257 346.245 6.10257C310.554 6.10257 281.67 34.7638 281.67 70.1795V70.1795ZM288.109 70.1795C288.109 38.4149 314.233 12.6746 346.061 12.6746C377.889 12.6746 404.013 38.5974 404.013 70.1795C404.013 101.762 378.072 127.867 346.061 127.867C314.049 127.867 288.109 101.944 288.109 70.1795" fill="#2857AF"/>
<path d="M290.895 69.1727C290.895 100.062 316.13 125.103 347.075 125.103C378.021 125.103 403.44 100.062 403.44 69.1727C403.44 38.2834 378.205 13.4256 347.075 13.4256C315.946 13.4256 290.895 38.4661 290.895 69.1727V69.1727ZM293.105 69.1727C293.105 39.5628 317.42 15.4362 347.26 15.4362C377.1 15.4362 401.414 39.5628 401.414 69.1727C401.414 98.7826 377.1 122.909 347.26 122.909C317.42 122.909 293.105 98.7826 293.105 69.1727Z" fill="#2857AF"/>
<path d="M343.008 115.586L310.986 54.2466C310.986 54.2466 304.072 40.9988 318.627 40.9988H372.665C372.665 40.9988 389.04 38.8211 380.852 53.7022L373.211 69.6721C373.211 69.6721 373.029 71.4869 369.39 71.8499H357.381V97.2566L345.555 115.949V66.0426C345.555 66.0426 344.463 59.8724 352.287 60.2354H365.387L368.116 52.9763L323.176 52.6133L326.269 60.0539H341.734C341.734 60.0539 347.92 60.7798 342.462 66.4056L333.365 72.2128L343.008 90.3605V115.404V115.586Z" fill="#2857AF"/>
<defs>
<linearGradient id="paint0_linear_566_2397" x1="251.674" y1="-3.88762" x2="251.674" y2="130.27" gradientUnits="userSpaceOnUse">
<stop stop-color="white"/>
<stop offset="0.2" stop-color="#FCFCFC"/>
<stop offset="0.34" stop-color="#F3F3F3"/>
<stop offset="0.46" stop-color="#E3E3E3"/>
<stop offset="0.57" stop-color="#CECECD"/>
<stop offset="0.67" stop-color="#B1B1B1"/>
<stop offset="0.77" stop-color="#8F8F8E"/>
<stop offset="0.87" stop-color="#666665"/>
<stop offset="0.95" stop-color="#383836"/>
<stop offset="1" stop-color="#1D1D1B"/>
</linearGradient>
</defs>
</svg>
