<svg width="346" height="238" viewBox="0 0 346 238" fill="none" xmlns="http://www.w3.org/2000/svg">
<path d="M119.752 106.285C112.843 105.357 107.715 100.077 107.715 93.1562C107.643 72.6783 107.643 52.129 107.715 31.6511C107.715 24.8727 112.772 19.5927 119.823 18.5938C120.678 19.0932 121.675 18.8792 122.601 18.8792C152.801 18.8792 182.929 18.8792 213.129 18.8792C214.055 18.8792 215.052 19.0932 215.907 18.5938C223.03 19.7354 227.375 24.3019 227.944 31.437C227.517 32.2219 227.659 33.0781 227.659 33.863C227.659 52.6998 227.659 71.4653 227.659 90.3021C227.659 91.087 227.517 91.9432 227.944 92.7281C227.944 100.006 223.243 105.357 215.978 106.356C183.855 106.142 151.804 106.214 119.752 106.285Z" fill="#0199DD"/>
<path d="M119.541 106.598C120.542 105.24 121.972 105.719 123.187 105.719C152.931 105.719 182.675 105.719 212.418 105.719C213.634 105.719 215.064 105.161 216.065 106.598C214.706 107.396 213.276 106.997 211.846 106.997C182.46 106.997 153.074 106.997 123.688 106.997C122.329 107.077 120.899 107.316 119.541 106.598Z" fill="#018FD8"/>
<path d="M215.322 18.763C214.257 19.6091 212.837 19.2706 211.63 19.2706C182.164 19.2706 152.699 19.2706 123.233 19.2706C121.955 19.2706 120.606 19.6091 119.541 18.763C121.316 18.7066 123.091 18.5938 124.795 18.5938C153.764 18.5938 182.803 18.5938 211.772 18.5938C212.979 18.6502 214.115 18.7066 215.322 18.763Z" fill="#018EDA"/>
<path d="M227.944 92.9688C226.937 92.1158 227.247 90.9785 227.247 89.9834C227.247 71.6445 227.247 53.3056 227.247 34.9667C227.247 33.9004 226.937 32.8342 227.944 31.9813C227.944 52.2393 227.944 72.6396 227.944 92.9688Z" fill="#008ED9"/>
<path d="M216.267 29.8767C217.478 31.2281 217.55 32.8641 217.55 34.5C217.55 53.5626 217.55 72.6251 217.55 91.6876C217.55 95.8131 216.694 96.5955 212.489 96.6666C210.494 96.6666 208.427 96.5955 206.431 96.6666C204.364 96.8089 202.725 96.2399 201.585 94.4616C200.658 93.8926 201.015 92.9679 201.015 92.1855C201.015 74.6167 201.015 56.9767 201.015 39.4079C201.015 38.8389 201.015 38.1987 201.228 37.7008C201.086 36.4916 200.302 35.8515 199.161 35.7092C193.032 36.0649 186.831 36.136 180.702 35.7092C178.279 36.2071 178.065 37.8431 178.421 39.8347C179.205 42.8932 178.92 45.8806 178.421 48.9392C177.637 51.7132 175.927 52.8513 172.933 52.6379C169.441 52.4245 165.877 52.4956 162.385 52.6379C160.033 52.709 158.323 51.9977 157.254 49.7927C156.47 43.9602 156.47 38.0565 157.254 32.2239C158.323 29.5921 160.532 29.2365 163.027 29.2365C180.274 29.2365 197.522 29.1654 214.841 29.1654C215.697 28.7386 216.053 29.2365 216.267 29.8767Z" fill="#FDFEFE"/>
<path d="M157.159 88.2719C158.087 84.92 157.516 81.568 157.516 78.216C157.516 76.0051 158.158 74.3648 160.156 73.295C165.294 72.5105 170.36 72.5105 175.497 73.295C178.066 74.2935 178.423 76.5044 178.494 78.8579C179.065 83.8502 179.136 88.8425 178.423 93.8348C177.424 96.0456 175.711 96.6875 173.285 96.6875C156.517 96.6162 139.82 96.6162 123.051 96.6162C118.984 96.6162 118.056 95.6891 118.056 91.5526C118.056 72.4392 118.056 53.3259 118.056 34.2125C118.056 30.0047 119.126 29.0063 123.336 29.0063C125.12 29.0063 126.904 29.0063 128.688 29.0063C133.184 29.0063 134.111 30.0047 134.111 34.4265C134.111 51.4003 134.111 68.3741 134.111 85.3479C134.111 87.2735 133.683 89.5557 136.395 90.2688C142.817 89.627 149.167 89.9836 155.589 90.1262C156.303 89.9836 156.874 89.6983 156.945 88.8425C156.802 88.5572 156.802 88.3432 157.159 88.2719Z" fill="#FEFEFE"/>
<path d="M216.684 29.75C216.258 29.477 215.76 29.2722 215.333 28.9993C214.267 27.9073 212.916 28.3168 211.636 28.3168C196.277 28.3168 180.919 28.3168 165.56 28.3168C164.423 28.3168 163.285 28.3168 161.863 28.3168C162.574 27.3613 163.356 27.6343 163.925 27.6343C180.492 27.6343 196.988 27.566 213.556 27.7025C214.836 27.7025 217.395 26.6106 216.684 29.75Z" fill="#0096D9"/>
<path d="M201.664 37.1875C202.155 39.6993 201.882 42.2111 201.882 44.6511C201.936 61.2289 201.936 77.8785 201.936 94.4562C201.063 93.9539 201.227 92.8774 201.227 92.0162C201.227 74.362 201.227 56.7794 201.227 39.1252C201.227 38.4075 201.227 37.6899 201.664 37.1875Z" fill="#008EDC"/>
<path d="M155.18 90.0539C148.721 91.0971 142.334 90.7761 135.875 90.2144C138.531 88.6095 141.473 89.4922 144.272 89.4922C147.932 89.4922 151.592 88.77 155.18 90.0539Z" fill="#028EDC"/>
<path d="M157.408 32.1246C157.408 38.0029 157.408 43.9529 157.408 49.8313C156.187 48.4692 156.853 46.677 156.798 45.0999C156.687 40.7987 156.798 36.4975 156.798 32.1963C156.798 32.1246 156.909 31.9813 156.964 31.9813C157.075 31.9813 157.242 32.0529 157.408 32.1246Z" fill="#018ED7"/>
<path d="M181.167 35.1376C187.331 34.9233 193.566 34.8698 199.73 35.1376C193.566 35.8875 187.403 35.8875 181.167 35.1376Z" fill="#0090DE"/>
<path d="M175.086 72.8875C169.98 72.8875 164.945 72.8875 159.84 72.8875C159.556 72.6343 159.556 72.1912 159.911 72.1912C164.945 72.1279 169.98 72.1279 175.015 72.1912C175.086 72.1912 175.228 72.3178 175.228 72.3811C175.228 72.5077 175.157 72.6976 175.086 72.8875Z" fill="#008EDA"/>
<path d="M178.198 93.7125C178.198 88.7542 178.254 83.7958 178.254 78.8375C179.15 83.7958 179.206 88.7542 178.198 93.7125Z" fill="#0291DA"/>
<path d="M156.627 87.9429C156.691 88.1542 156.691 88.3654 156.497 88.5063C155.331 84.5631 156.238 80.5495 156.627 76.6063C156.627 80.3382 156.627 84.1406 156.627 87.9429Z" fill="#0090D8"/>
<path d="M101.274 195.522C101.201 194.75 100.837 194.189 100.183 193.768C99.5283 193.347 98.7284 193.136 97.7831 193.136C97.0559 193.136 96.4741 193.207 95.9651 193.417C95.4561 193.628 95.0925 193.908 94.8016 194.259C94.5108 194.61 94.438 195.031 94.3653 195.452C94.3653 195.803 94.438 196.154 94.6562 196.434C94.8016 196.715 95.0925 196.925 95.3834 197.136C95.6743 197.346 96.0378 197.487 96.4014 197.627C96.765 197.767 97.1286 197.837 97.4922 197.978L99.2374 198.399C99.9646 198.539 100.619 198.75 101.274 199.03C101.928 199.311 102.51 199.662 103.019 200.083C103.528 200.504 103.964 200.995 104.255 201.556C104.546 202.118 104.691 202.819 104.691 203.591C104.691 204.643 104.4 205.556 103.891 206.398C103.31 207.169 102.51 207.801 101.492 208.292C100.474 208.713 99.1647 208.994 97.7104 208.994C96.256 208.994 95.0198 208.783 94.0017 208.362C92.9837 207.941 92.1111 207.31 91.5293 206.468C90.9476 205.626 90.6567 204.644 90.584 203.451H93.8563C93.929 204.082 94.0745 204.573 94.438 204.994C94.8016 205.415 95.2379 205.696 95.8197 205.906C96.4014 206.117 96.9832 206.187 97.7104 206.187C98.4375 206.187 99.092 206.047 99.601 205.836C100.183 205.626 100.546 205.345 100.91 204.924C101.201 204.573 101.346 204.082 101.419 203.591C101.419 203.1 101.274 202.749 100.983 202.398C100.692 202.118 100.328 201.837 99.8192 201.626C99.3101 201.416 98.7284 201.205 98.0739 201.065L95.9651 200.504C94.438 200.153 93.2746 199.521 92.4019 198.75C91.5293 197.978 91.093 196.925 91.093 195.662C91.093 194.61 91.3839 193.698 91.9656 192.856C92.5474 192.084 93.3473 191.452 94.3653 191.031C95.3834 190.61 96.5469 190.4 97.8558 190.4C99.1647 190.4 100.328 190.61 101.274 191.031C102.219 191.452 103.019 192.084 103.601 192.856C104.182 193.628 104.473 194.54 104.473 195.522H101.274V195.522Z" fill="#0198DF"/>
<path d="M113.601 208.25V190.4H125.409V193.119H116.893V197.93H124.765V200.65H116.893V205.531H125.481V208.25H113.601V208.25Z" fill="#0198DF"/>
<path d="M146.426 196.361C146.281 195.865 146.063 195.439 145.845 195.084C145.627 194.729 145.264 194.374 144.901 194.09C144.538 193.806 144.103 193.594 143.667 193.452C143.232 193.31 142.723 193.239 142.143 193.239C141.126 193.239 140.255 193.452 139.529 193.948C138.803 194.445 138.15 195.155 137.714 196.077C137.278 197 137.061 198.207 137.061 199.555C137.061 200.903 137.278 202.11 137.714 203.032C138.15 203.955 138.73 204.736 139.529 205.232C140.328 205.729 141.199 205.942 142.215 205.942C143.159 205.942 143.957 205.8 144.611 205.374C145.264 205.02 145.845 204.523 146.208 203.884C146.571 203.245 146.789 202.465 146.789 201.613L147.515 201.755H142.506V199.2H149.983V201.4C149.983 202.961 149.62 204.31 148.967 205.445C148.313 206.581 147.37 207.432 146.208 208.071C145.046 208.71 143.667 208.994 142.143 208.994C140.473 208.994 138.948 208.639 137.714 207.858C136.407 207.078 135.463 206.013 134.737 204.665C134.011 203.245 133.648 201.613 133.648 199.697C133.648 198.207 133.866 196.929 134.302 195.794C134.737 194.658 135.318 193.665 136.044 192.884C136.77 192.103 137.714 191.465 138.73 191.039C139.747 190.613 140.836 190.4 142.07 190.4C143.086 190.4 144.03 190.542 144.901 190.826C145.772 191.11 146.571 191.535 147.224 192.103C147.878 192.671 148.459 193.31 148.894 194.019C149.33 194.729 149.62 195.581 149.765 196.432H146.426V196.361Z" fill="#0198DF"/>
<path d="M170.427 190.4H173.743V202.343C173.743 203.63 173.455 204.774 172.806 205.776C172.157 206.777 171.364 207.563 170.211 208.136C169.129 208.708 167.832 208.994 166.318 208.994C164.804 208.994 163.507 208.708 162.425 208.136C161.344 207.563 160.479 206.777 159.83 205.776C159.254 204.774 158.893 203.63 158.893 202.343V190.4H162.209V202.057C162.209 202.844 162.353 203.487 162.714 204.059C163.074 204.631 163.507 205.132 164.155 205.49C164.732 205.847 165.525 205.99 166.318 205.99C167.183 205.99 167.904 205.847 168.481 205.49C169.057 205.132 169.562 204.703 169.922 204.059C170.283 203.487 170.427 202.772 170.427 202.057V190.4V190.4Z" fill="#0198DF"/>
<path d="M183.395 208.181V190.4H190.339C191.728 190.4 192.97 190.608 193.921 191.095C194.871 191.581 195.602 192.206 196.114 193.109C196.625 193.942 196.844 194.984 196.844 196.095C196.844 197.207 196.625 198.248 196.114 199.082C195.602 199.915 194.871 200.54 193.921 201.027C192.97 201.513 191.728 201.721 190.339 201.721H185.369V199.082H189.827C190.631 199.082 191.362 198.943 191.874 198.735C192.386 198.526 192.824 198.179 193.044 197.762C193.263 197.346 193.409 196.79 193.409 196.165C193.409 195.54 193.263 194.984 193.044 194.567C192.824 194.151 192.386 193.803 191.874 193.525C191.362 193.317 190.631 193.178 189.827 193.178H186.757V208.25H183.395V208.181ZM192.897 200.124L197.502 208.181H193.774L189.316 200.124H192.897Z" fill="#0198DF"/>
<path d="M211.945 208.994C210.498 208.994 209.196 208.642 208.183 207.867C207.098 207.163 206.302 206.036 205.795 204.697C205.217 203.289 204.927 201.599 204.927 199.626C204.927 197.654 205.217 195.964 205.795 194.626C206.374 193.217 207.17 192.161 208.183 191.456C209.268 190.752 210.498 190.4 211.945 190.4C213.392 190.4 214.694 190.752 215.707 191.456C216.792 192.161 217.588 193.217 218.166 194.626C218.745 196.034 219.035 197.654 219.035 199.626C219.035 201.599 218.745 203.289 218.166 204.697C217.588 206.106 216.792 207.163 215.779 207.867C214.694 208.642 213.464 208.994 211.945 208.994ZM211.945 206.247C213.102 206.247 213.97 205.684 214.621 204.557C215.273 203.43 215.634 201.81 215.634 199.626C215.634 198.218 215.49 197.02 215.2 196.034C214.911 195.048 214.477 194.344 213.898 193.851C213.319 193.358 212.668 193.076 211.945 193.076C210.787 193.076 209.919 193.64 209.268 194.767C208.617 195.894 208.255 197.514 208.255 199.626C208.255 201.035 208.4 202.303 208.689 203.218C208.979 204.204 209.413 204.909 209.991 205.402C210.57 205.895 211.221 206.247 211.945 206.247Z" fill="#0198DF"/>
<path d="M237.892 195.522C237.819 194.75 237.455 194.189 236.801 193.768C236.146 193.347 235.347 193.136 234.401 193.136C233.674 193.136 233.092 193.207 232.583 193.417C232.074 193.628 231.711 193.908 231.42 194.259C231.129 194.61 231.056 195.031 230.983 195.452C230.983 195.803 231.056 196.154 231.274 196.434C231.42 196.715 231.711 196.925 232.002 197.136C232.292 197.346 232.656 197.487 233.02 197.627C233.383 197.767 233.747 197.837 234.11 197.978L235.856 198.399C236.583 198.539 237.237 198.75 237.892 199.03C238.546 199.311 239.128 199.662 239.637 200.083C240.146 200.504 240.582 200.995 240.873 201.556C241.164 202.118 241.309 202.819 241.309 203.591C241.309 204.643 241.019 205.556 240.51 206.398C239.928 207.169 239.128 207.801 238.11 208.292C237.092 208.713 235.783 208.994 234.329 208.994C232.874 208.994 231.638 208.783 230.62 208.362C229.602 207.941 228.729 207.31 228.147 206.468C227.566 205.626 227.275 204.644 227.202 203.451H230.474C230.547 204.082 230.693 204.573 231.056 204.994C231.42 205.415 231.856 205.696 232.438 205.906C233.02 206.117 233.601 206.187 234.329 206.187C235.056 206.187 235.71 206.047 236.219 205.836C236.801 205.626 237.165 205.345 237.528 204.924C237.819 204.573 237.964 204.082 238.037 203.591C238.037 203.1 237.892 202.749 237.601 202.398C237.31 202.118 236.946 201.837 236.437 201.626C235.928 201.416 235.347 201.205 234.692 201.065L232.583 200.504C231.056 200.153 229.893 199.521 229.02 198.75C228.147 197.978 227.711 196.925 227.711 195.662C227.711 194.61 228.002 193.698 228.584 192.856C229.166 192.084 229.965 191.452 230.983 191.031C232.002 190.61 233.165 190.4 234.474 190.4C235.783 190.4 236.946 190.61 237.892 191.031C238.837 191.452 239.637 192.084 240.219 192.856C240.8 193.628 241.091 194.54 241.091 195.522H237.892V195.522Z" fill="#0198DF"/>
<path d="M31.9272 199.325H68.3092" stroke="#0198DF" stroke-width="3.5" stroke-miterlimit="10"/>
<path d="M260.614 199.325H296.996" stroke="#0198DF" stroke-width="3.5" stroke-miterlimit="10"/>
<path d="M31.9272 168.088V130.156H38.9512V146.215H56.8303V130.156H63.8543V168.088H56.8303V151.956H38.8802V168.088H31.9272Z" fill="#022C76"/>
<path d="M106.176 148.714C106.176 152.747 105.392 156.204 103.824 159.157C102.256 162.11 100.117 164.27 97.4801 165.783C94.7715 167.295 91.7778 168.087 88.3564 168.087C84.935 168.087 81.9413 167.295 79.2327 165.783C76.5241 164.27 74.457 162.038 72.8888 159.157C71.3207 156.276 70.5366 152.819 70.5366 148.786C70.5366 144.753 71.3207 141.296 72.8888 138.343C74.457 135.462 76.5953 133.23 79.2327 131.717C81.9413 130.205 84.935 129.412 88.3564 129.412C91.7778 129.412 94.7715 130.205 97.4801 131.717C100.189 133.23 102.256 135.462 103.824 138.343C105.392 141.224 106.176 144.681 106.176 148.714ZM99.1195 148.714C99.1195 145.833 98.6918 143.456 97.7652 141.512C96.8386 139.567 95.5555 138.055 93.9874 137.047C92.348 136.038 90.4947 135.534 88.4276 135.534C86.2893 135.534 84.436 136.038 82.8679 137.047C81.2285 138.055 80.0167 139.567 79.0901 141.512C78.1635 143.456 77.7358 145.905 77.7358 148.714C77.7358 151.523 78.1635 153.971 79.0901 155.916C80.0167 157.861 81.2997 159.373 82.8679 160.381C84.5073 161.39 86.3606 161.894 88.4276 161.894C90.566 161.894 92.4193 161.39 93.9874 160.381C95.6268 159.373 96.8386 157.861 97.7652 155.916C98.6918 153.971 99.1195 151.595 99.1195 148.714Z" fill="#022C76"/>
<path d="M112.858 168.088V130.156H120.014V162.347H137.361V168.088H112.858V168.088Z" fill="#022C76"/>
<path d="M147.88 168.088H140.331L154.136 130.156H162.908L176.713 168.088H169.163L158.737 137.931H158.378L147.88 168.088ZM148.168 153.264H168.803V158.786H148.168V153.264Z" fill="#022C76"/>
<path d="M213.837 130.156V168.088H207.58L189.305 142.219H188.95V168.088H181.91V130.156H188.168L206.371 156.025H206.726V130.156H213.837Z" fill="#022C76"/>
<path d="M234.446 168.088H221.262V130.156H234.66C238.508 130.156 241.858 130.883 244.566 132.409C247.345 133.935 249.483 136.115 250.98 138.949C252.477 141.783 253.189 145.198 253.189 149.122C253.189 153.046 252.477 156.461 250.909 159.295C249.412 162.129 247.274 164.309 244.424 165.835C241.573 167.361 238.437 168.088 234.446 168.088ZM228.318 162.202H234.09C236.798 162.202 239.079 161.693 240.86 160.748C242.642 159.804 243.996 158.35 244.922 156.388C245.849 154.426 246.276 152.028 246.276 149.122C246.276 146.215 245.849 143.817 244.922 141.855C243.996 139.966 242.642 138.513 240.932 137.568C239.15 136.623 236.941 136.115 234.304 136.115H228.318V162.202Z" fill="#022C76"/>
<path d="M294.768 148.714C294.768 152.747 293.984 156.204 292.416 159.157C290.848 162.038 288.71 164.27 286.072 165.783C283.364 167.295 280.37 168.087 276.949 168.087C273.527 168.087 270.534 167.295 267.825 165.783C265.116 164.27 263.049 162.038 261.481 159.157C259.913 156.276 259.129 152.819 259.129 148.786C259.129 144.753 259.913 141.296 261.481 138.343C263.049 135.462 265.188 133.23 267.825 131.717C270.534 130.205 273.527 129.412 276.949 129.412C280.37 129.412 283.364 130.205 286.072 131.717C288.781 133.23 290.848 135.462 292.416 138.343C293.984 141.224 294.768 144.681 294.768 148.714ZM287.641 148.714C287.641 145.833 287.213 143.456 286.286 141.512C285.36 139.567 284.077 138.055 282.508 137.047C280.869 136.038 279.016 135.534 276.949 135.534C274.882 135.534 272.957 136.038 271.389 137.047C269.749 138.055 268.538 139.567 267.611 141.512C266.684 143.456 266.257 145.905 266.257 148.714C266.257 151.523 266.684 153.971 267.611 155.916C268.538 157.861 269.821 159.373 271.389 160.381C273.028 161.39 274.882 161.894 276.949 161.894C279.016 161.894 280.94 161.39 282.508 160.381C284.148 159.373 285.36 157.861 286.286 155.916C287.213 153.971 287.641 151.595 287.641 148.714Z" fill="#022C76"/>
</svg>
