<svg width="578" height="173" viewBox="0 0 578 173" fill="none" xmlns="http://www.w3.org/2000/svg">
<path fill-rule="evenodd" clip-rule="evenodd" d="M288.523 69.9773C290.305 65.5975 293.974 56.1992 305.295 56.1992C309.907 56.1992 315.777 58.5716 314.834 66.4187C314.729 67.8787 314.414 69.0649 314.1 70.0686H288.523V69.9773ZM331.5 80.3793C332.548 76.3645 332.863 74.9046 333.072 73.0797C334.959 56.5642 324.687 45.0672 306.238 45.0672C280.557 45.0672 266.301 65.5975 264.519 81.2918C262.842 95.6174 271.228 109.76 292.716 109.76C308.02 109.76 321.123 102.735 328.251 88.5915L310.536 87.0403C309.383 89.3214 305.295 96.8948 295.442 96.8948C291.039 96.8948 283.702 94.8874 284.855 84.9416C284.96 83.8467 285.064 82.9342 285.798 80.3793H331.5Z" fill="#00945E"/>
<path d="M214.208 23.2605L193.913 42.8865H182.985L197.764 23.2605H214.208Z" fill="#00945E"/>
<path fill-rule="evenodd" clip-rule="evenodd" d="M137.492 108.307L141.358 95.5651C146.269 78.4235 150.762 63.5735 169.047 63.9402L174.272 46.5236C164.868 46.4319 157.762 48.7236 150.239 61.1902L154.628 46.7986H135.611L116.907 108.307H137.492V108.307Z" fill="#00945E"/>
<path fill-rule="evenodd" clip-rule="evenodd" d="M182.267 108.307L201.138 47.2479H180.694L161.927 108.307H182.267Z" fill="#00945E"/>
<path fill-rule="evenodd" clip-rule="evenodd" d="M262.956 76.0877H230.338L226.877 87.4022H241.665C240.511 90.1395 236.841 98.6254 226.352 98.6254C225.199 98.6254 221.318 98.5341 218.696 96.8005C214.815 94.1543 214.186 88.9533 214.606 85.3035C215.025 81.1974 217.123 74.4452 219.43 69.7917C222.052 64.4082 227.191 57.291 236.211 57.291C245.231 57.291 246.175 64.4082 245.546 68.3318L263.585 66.1419C262.327 52.09 251.734 45.7941 238.099 45.7941C212.928 45.7941 196.986 65.1382 194.783 83.8436C193 98.9904 204.642 110.487 221.738 110.487C233.17 110.487 241.351 105.013 244.812 101.637L245.756 110.122H252.468L262.956 76.0877Z" fill="#00945E"/>
<path fill-rule="evenodd" clip-rule="evenodd" d="M365.819 46.7921H346.495L327.485 108.307H348.07L357.417 77.9123C359.518 71.1076 360.043 69.293 362.564 65.5731C364.874 62.1254 369.285 59.222 374.116 59.222C374.852 59.222 381.468 59.222 380.733 65.6638C380.523 67.0248 379.368 70.8354 378.948 72.4685L367.815 108.307H388.505L399.113 73.8295C401.423 66.6618 401.843 65.2102 402.158 62.4883C403.209 53.5968 397.222 45.7941 385.039 45.7941C377.897 45.7941 369.39 48.8789 362.248 58.4962L365.819 46.7921Z" fill="#00945E"/>
<path fill-rule="evenodd" clip-rule="evenodd" d="M533.706 62.636C533.287 59.9823 532.658 55.7732 528.359 51.93C522.382 46.4398 513.365 45.0672 506.236 45.0672C485.79 45.0672 476.668 56.3222 475.515 66.5706C473.733 81.6688 489.775 84.1394 498.477 85.4204C505.502 86.5185 510.01 87.159 509.486 91.5512C509.381 91.9172 508.752 98.048 497.324 98.048C494.178 98.048 489.984 97.4075 487.258 96.0349C483.379 94.0218 482.959 91.7342 482.959 89.5381L465.45 92.1002C465.764 94.4793 465.869 97.9565 470.273 102.166C474.781 106.649 484.008 109.76 495.122 109.76C517.14 109.76 527.415 97.7735 528.568 87.708C530.036 75.0805 519.342 70.7798 509.276 69.2242C498.162 67.5772 494.388 67.1196 494.912 62.9105C495.227 60.0738 499.001 56.9627 504.768 56.9627C507.075 56.9627 510.115 57.3287 512.946 58.7013C515.987 60.0738 517.245 62.4529 517.664 65.5641L533.706 62.636Z" fill="#00945E"/>
<path fill-rule="evenodd" clip-rule="evenodd" d="M123.822 59.566C126.547 36.2387 113.026 21.8067 89.6537 21.8067C58.7349 21.8067 40.7077 49.3093 38.0874 72.7273C35.4672 94.8746 48.6732 109.76 72.0457 109.76C98.4577 109.76 111.978 91.97 118.162 79.4441C120.677 74.6334 122.774 68.9151 123.822 59.566ZM102.126 56.7522C101.392 62.6521 100.239 67.7351 96.2567 76.6303C92.9028 83.8917 87.3479 94.0577 74.5612 94.0577C60.5167 94.0577 58.6301 84.6179 59.6782 75.6319C60.2023 70.912 65.5475 37.6003 87.872 37.6003C104.327 37.5095 102.65 52.1231 102.126 56.7522Z" fill="#00945E"/>
<path fill-rule="evenodd" clip-rule="evenodd" d="M424.931 69.9773C426.713 65.5975 430.382 56.1992 441.703 56.1992C446.315 56.1992 452.185 58.5716 451.241 66.4187C451.032 67.8787 450.822 69.0649 450.508 70.0686H424.931V69.9773ZM468.013 80.3793C469.061 76.3645 469.376 74.9046 469.585 73.0797C471.472 56.5642 461.199 45.0672 442.751 45.0672C417.07 45.0672 402.814 65.5975 401.032 81.2918C399.355 95.6174 407.741 109.76 429.229 109.76C444.533 109.76 457.636 102.735 464.763 88.5915L447.049 87.0403C445.896 89.3214 441.808 96.8948 431.954 96.8948C427.552 96.8948 420.214 94.8874 421.367 84.9416C421.472 83.8467 421.577 82.9342 422.311 80.3793H468.013Z" fill="#00945E"/>
<path d="M137.239 166.64L141.506 162.187C145.357 165.095 149.312 166.821 154.308 166.821C158.679 166.821 161.489 165.095 161.489 162.369V162.278C161.489 159.734 159.824 158.371 152.33 156.827C143.692 155.009 138.8 152.829 138.8 146.287V146.196C138.8 140.108 144.628 135.929 152.642 135.929C158.575 135.929 163.258 137.473 167.318 140.381L163.467 145.106C159.824 142.743 156.181 141.471 152.434 141.471C148.271 141.471 145.877 143.379 145.877 145.651V145.742C145.877 148.467 147.751 149.649 155.453 151.284C163.987 153.101 168.462 155.827 168.462 161.642V161.733C168.462 168.366 162.53 172.273 153.995 172.273C147.959 172.273 142.13 170.456 137.239 166.64Z" fill="#00945E"/>
<path d="M178.628 136.655H208.813V142.318H185.835V151.542H206.201V157.113H185.835V166.702H209.126V172.273H178.628V136.655Z" fill="#00945E"/>
<path d="M217.839 154.602V154.51C217.839 144.483 226.591 135.929 239.032 135.929C246.202 135.929 250.631 137.676 254.848 140.804L250.314 145.587C247.151 143.195 243.988 141.724 238.822 141.724C231.23 141.724 225.536 147.519 225.536 154.326V154.418C225.536 161.777 231.125 167.204 239.454 167.204C243.355 167.204 246.835 166.1 249.365 164.536V157.821H238.822V152.302H256.324V167.388C252.318 170.424 246.519 172.999 239.138 172.999C226.274 173.091 217.839 165.088 217.839 154.602Z" fill="#00945E"/>
<path d="M265.764 157.214V136.655H272.881V157.03C272.881 163.639 276.754 167.218 283.243 167.218C289.628 167.218 293.501 163.822 293.501 157.214V136.655H300.618V156.939C300.618 167.585 293.71 173 283.034 173C272.462 172.908 265.764 167.585 265.764 157.214Z" fill="#00945E"/>
<path d="M312.342 136.655H330.664C335.824 136.655 339.825 138.025 342.457 140.217C344.669 142.135 345.827 144.784 345.827 147.889V147.98C345.827 153.825 341.826 157.295 336.034 158.757L347.091 172.273H338.561L328.453 159.853H319.397V172.273H312.236V136.655H312.342ZM330.032 154.282C335.192 154.282 338.456 151.907 338.456 148.345V148.254C338.456 144.418 335.297 142.318 329.927 142.318H319.397V154.282H330.032Z" fill="#00945E"/>
<path d="M354.352 154.647V154.555C354.352 144.412 363.299 135.929 375.826 135.929C388.457 135.929 397.194 144.32 397.194 154.371V154.463C397.194 164.606 388.246 172.997 375.72 172.997C363.089 173.181 354.352 164.79 354.352 154.647ZM389.615 154.647V154.555C389.615 147.547 383.825 141.738 375.615 141.738C367.51 141.738 361.826 147.455 361.826 154.371V154.463C361.826 161.471 367.615 167.28 375.826 167.28C384.036 167.28 389.615 161.655 389.615 154.647Z" fill="#00945E"/>
<path d="M404.455 166.64L408.722 162.187C412.573 165.095 416.528 166.821 421.524 166.821C425.895 166.821 428.705 165.095 428.705 162.369V162.278C428.705 159.734 427.04 158.371 419.547 156.827C410.908 155.009 406.016 152.829 406.016 146.287V146.196C406.016 140.108 411.845 135.929 419.859 135.929C425.791 135.929 430.475 137.473 434.534 140.381L430.683 145.106C427.04 142.743 423.397 141.471 419.651 141.471C415.487 141.471 413.094 143.379 413.094 145.651V145.742C413.094 148.467 414.967 149.649 422.669 151.284C431.203 153.101 435.679 155.827 435.679 161.642V161.733C435.679 168.366 429.746 172.273 421.212 172.273C415.071 172.273 409.243 170.456 404.455 166.64Z" fill="#00945E"/>
</svg>
