<svg width="505" height="172" viewBox="0 0 505 172" fill="none" xmlns="http://www.w3.org/2000/svg">
<path d="M148.59 96.4595C142.743 96.4595 138.925 95.8708 134.271 94.2227V83.7451C138.328 85.2755 142.624 86.3351 147.038 86.3351C150.976 86.3351 152.527 85.1578 152.527 83.0387C152.527 79.8602 147.993 79.0361 143.34 77.6234C138.328 76.2107 133.078 73.2675 133.078 65.1445C133.078 56.786 138.09 51.1351 150.021 51.1351C154.556 51.1351 157.896 51.7238 161.476 52.7833V62.9077C157.539 62.0836 153.84 61.495 150.737 61.495C145.965 61.495 145.01 62.79 145.01 64.4381C145.01 67.1458 148.828 67.8522 153.004 69.0294C158.374 70.4421 164.459 73.1498 164.459 82.2147C164.459 90.9264 158.493 96.4595 148.59 96.4595Z" fill="#00467F"/>
<path d="M169.936 61.0356C169.936 61.0356 175.029 59.2703 182.547 59.2703C190.187 59.2703 197.583 61.3886 197.583 73.9812V95.7533H189.58L188.247 91.8696H187.883C187.883 91.8696 184.851 96.4595 178.425 96.4595C171.634 96.4595 166.784 92.9288 166.784 85.0438C166.784 76.5703 172.483 73.0397 180.486 73.0397C182.79 73.0397 185.094 73.3927 186.064 73.6281V72.5689C186.064 70.4506 184.973 68.3322 180.001 68.3322C175.029 68.3322 169.936 69.8621 169.936 69.8621V61.0356ZM186.064 85.6322V80.5717C185.215 80.3363 184.002 80.2186 182.911 80.2186C178.788 80.2186 177.576 81.9839 177.576 84.22C177.576 86.3383 179.152 87.7506 181.577 87.7506C183.517 87.7506 185.094 86.8091 186.064 85.6322Z" fill="#00467F"/>
<path d="M214.228 95.7603H202.813V59.8607H210.744L211.945 63.9939H212.306C215.19 60.8054 218.674 59.2703 222.399 59.2703C229.969 59.2703 234.776 63.9939 234.776 72.4964V95.8784H223.24V73.4411C223.24 70.1346 221.919 68.8356 218.794 68.8356C217.353 68.8356 215.55 69.4261 213.988 71.3155V95.7603H214.228Z" fill="#00467F"/>
<path d="M283.471 62.997C281.441 62.2853 277.502 61.6922 274.637 61.6922C267.474 61.6922 265.803 64.539 265.803 73.7913C265.803 83.6366 267.713 86.4835 274.756 86.4835C277.502 86.4835 281.322 85.8904 283.59 84.9414V94.9054C280.725 96.3288 276.547 97.0405 273.085 97.0405C259.595 97.0405 252.791 89.4489 252.791 73.7913C252.791 59.3198 259.356 51.1351 273.921 51.1351C277.144 51.1351 281.083 51.6096 283.471 52.5586V62.997V62.997Z" fill="#00467F"/>
<path d="M299.727 95.8784H288.239V59.9788H296.221L297.793 66.2376H298.397C300.09 61.6321 302.872 59.2703 306.016 59.2703C307.467 59.2703 308.434 59.5064 309.16 59.8607V69.5441C308.797 69.4261 307.346 69.308 306.499 69.308C303.113 69.308 301.058 70.7251 299.607 74.0316V95.8784H299.727Z" fill="#00467F"/>
<path d="M318.458 57.4292C314.032 57.4292 312.065 56.2498 312.065 52.8295C312.065 49.8809 314.032 48.2297 318.458 48.2297C322.883 48.2297 324.85 49.8809 324.85 52.8295C324.85 55.896 323.006 57.4292 318.458 57.4292ZM312.434 95.8784V60.024H324.481V95.8784H312.434Z" fill="#00467F"/>
<path d="M342.745 96.4595C338.049 96.4595 334.196 95.871 330.944 94.9295V85.7499C334.075 86.8091 338.531 87.6329 341.541 87.6329C344.31 87.6329 345.515 86.456 345.515 85.0438C345.515 82.4547 341.661 82.4547 337.928 81.1601C333.834 79.7479 329.5 77.9825 329.5 71.1567C329.5 64.0954 333.955 59.2703 343.347 59.2703C347.2 59.2703 350.813 59.741 353.944 60.6825V69.3914C351.174 68.5676 347.2 67.9791 344.912 67.9791C341.902 67.9791 340.578 69.0383 340.578 70.3329C340.578 72.5689 343.588 72.5689 347.08 73.6281C351.415 74.805 356.231 76.4526 356.231 83.9846C356.111 91.3989 352.258 96.4595 342.745 96.4595Z" fill="#00467F"/>
<path d="M372.664 68.5538V84.214C372.664 86.4511 373.755 87.5108 376.422 87.5108C377.27 87.5108 379.209 87.3931 379.815 87.1576V95.3998C378.482 95.9885 375.694 96.4595 372.786 96.4595C364.665 96.4595 360.908 91.9852 360.908 84.9204V68.5538H357.394V59.9584H361.393V52.776L372.422 51.7162V59.9584H380.057V68.5538H372.664Z" fill="#00467F"/>
<path d="M399.003 97.0406C387.176 97.0406 381.801 91.5746 381.801 78.3851C381.801 65.1956 387.176 59.492 399.003 59.492C410.949 59.492 416.085 65.1956 416.085 78.3851C416.205 91.5746 411.068 97.0406 399.003 97.0406ZM399.122 88.1287C403.064 88.1287 404.378 86.2275 404.378 78.2663C404.378 70.1862 403.064 68.4038 399.122 68.4038C395.18 68.4038 393.747 70.1862 393.747 78.2663C393.747 86.3464 395.18 88.1287 399.122 88.1287ZM409.037 49.3919L403.064 56.9967H394.583L397.211 49.3919H409.037Z" fill="#00467F"/>
<path d="M432.097 62.8629C434.488 60.3621 437.717 59.5285 440.826 59.5285C448.838 59.5285 453.861 65.3637 453.861 78.1059C453.861 91.2053 449.436 97.0405 439.989 97.0405C435.923 97.0405 432.216 95.2542 430.064 92.3962H429.705L428.509 96.326H420.736V49.8826L432.097 48.8108V57.385C432.097 58.3377 431.618 62.982 431.618 62.982H432.097V62.8629ZM436.76 69.1745C434.727 69.1745 433.053 70.1271 431.977 71.7943V84.8938C432.934 86.2037 434.488 87.3946 436.76 87.3946C440.109 87.3946 441.902 85.9655 441.902 78.3441C442.022 70.2462 440.348 69.1745 436.76 69.1745Z" fill="#00467F"/>
<path d="M460.027 61.0356C460.027 61.0356 465.1 59.2703 472.589 59.2703C480.198 59.2703 487.566 61.3886 487.566 73.9812V95.7533H479.473L478.145 91.8696H477.782C477.782 91.8696 474.763 96.4595 468.361 96.4595C461.597 96.4595 456.766 92.9288 456.766 85.0438C456.766 76.5703 462.443 73.0397 470.415 73.0397C472.71 73.0397 475.004 73.3927 475.971 73.6281V72.5689C475.971 70.4506 474.884 68.3322 469.932 68.3322C464.979 68.3322 459.906 69.8621 459.906 69.8621V61.0356H460.027ZM476.091 85.6322V80.5717C475.246 80.3363 474.038 80.2186 472.951 80.2186C468.844 80.2186 467.637 81.9839 467.637 84.22C467.637 86.3383 469.207 87.7506 471.622 87.7506C473.434 87.7506 475.004 86.8091 476.091 85.6322Z" fill="#00467F"/>
<path d="M492.796 95.8784V49.8725L504.419 48.8108V95.8784H492.796Z" fill="#00467F"/>
<path d="M241.516 135.973C238.868 135.973 236.942 135.611 235.137 134.646V131.87C236.942 132.956 238.748 133.439 240.915 133.439C243.683 133.439 245.128 132.112 245.128 129.819C245.128 127.406 242.961 126.682 240.674 125.958C237.905 125.113 234.775 124.148 234.775 119.925C234.775 116.546 236.942 113.892 241.757 113.892C243.803 113.892 245.73 114.254 247.054 114.857V117.512C245.368 116.908 243.683 116.546 241.878 116.546C238.868 116.546 237.785 118.115 237.785 119.804C237.785 122.338 240.553 122.821 243.202 123.665C245.729 124.51 248.137 125.717 248.137 129.578C248.257 133.439 245.85 135.973 241.516 135.973Z" fill="#00467F"/>
<path d="M252.791 114.473H264.994V117.145H255.963V123.462H264.262V126.134H255.963V133.301H264.994V135.973H252.791V114.473Z" fill="#00467F"/>
<path d="M284.753 134.773C283.065 135.493 280.655 135.973 278.123 135.973C271.374 135.973 268.481 132.613 268.481 124.932C268.481 117.252 271.615 113.892 278.485 113.892C280.655 113.892 283.065 114.372 284.632 114.972V117.612C282.945 117.012 280.655 116.652 278.606 116.652C273.664 116.652 271.494 118.572 271.494 125.052C271.494 131.293 273.302 133.453 278.003 133.453C279.449 133.453 280.655 133.333 281.619 133.093V126.612H277.4V124.092H284.753V134.773Z" fill="#00467F"/>
<path d="M305.673 128.014C305.673 133.597 302.801 135.973 297.537 135.973C292.392 135.973 289.401 133.478 289.401 128.014V114.473H292.512V128.014C292.512 131.697 294.187 133.241 297.537 133.241C301.007 133.241 302.562 131.578 302.562 128.014V114.473H305.673V128.014V128.014Z" fill="#00467F"/>
<path d="M326.594 135.615C325.999 135.853 325.524 135.973 324.93 135.973C322.315 135.973 320.888 134.181 319.699 132.151L316.847 127.015H313.994V135.734H310.903V114.473H318.273C322.909 114.473 325.048 116.503 325.048 120.565C325.048 124.028 323.147 126.178 319.937 126.776L322.433 131.195C323.147 132.509 324.335 133.584 326.118 133.584C326.237 133.584 326.475 133.584 326.594 133.584V135.615ZM318.273 117.101H313.994V124.387H318.154C320.888 124.387 322.077 123.312 322.077 120.565C322.077 118.056 320.888 117.101 318.273 117.101Z" fill="#00467F"/>
<path d="M337.344 135.973C330.893 135.973 328.337 132.733 328.337 124.932C328.337 117.132 330.893 113.892 337.344 113.892C343.796 113.892 346.352 117.132 346.352 124.932C346.352 132.733 343.796 135.973 337.344 135.973ZM337.344 116.532C333.084 116.532 331.502 118.332 331.502 124.812C331.502 131.293 333.206 133.213 337.344 133.213C341.605 133.213 343.187 131.293 343.187 124.812C343.187 118.332 341.605 116.532 337.344 116.532Z" fill="#00467F"/>
<path d="M356.574 135.973C353.928 135.973 352.004 135.611 350.2 134.646V131.87C352.004 132.956 353.808 133.439 355.973 133.439C358.739 133.439 360.182 132.112 360.182 129.819C360.182 127.406 358.017 126.682 355.732 125.958C352.966 125.113 349.839 124.148 349.839 119.925C349.839 116.546 352.004 113.892 356.815 113.892C358.859 113.892 360.784 114.254 362.107 114.857V117.512C360.423 116.908 358.739 116.546 356.935 116.546C353.928 116.546 352.846 118.115 352.846 119.804C352.846 122.338 355.612 122.821 358.258 123.665C360.784 124.51 363.189 125.717 363.189 129.578C363.43 133.439 360.904 135.973 356.574 135.973Z" fill="#00467F"/>
<path d="M366.11 140.041C366.677 137.976 367.471 134.455 367.698 131.905H370.759C370.079 134.941 368.832 138.462 368.038 140.041H366.11Z" fill="#00467F"/>
<path d="M385.869 114.473H398.072V117.145H389.042V123.462H397.34V126.134H389.042V133.301H398.072V135.973H385.869V114.473Z" fill="#00467F"/>
<path d="M402.262 114.473H405.297L414.405 128.967C414.647 129.33 415.497 131.021 415.497 131.021H415.619C415.619 131.021 415.376 129.209 415.376 127.397V114.473H418.412V135.973H415.376L406.147 121.358C405.904 120.995 405.176 119.546 405.176 119.546H405.054C405.054 119.546 405.176 121.116 405.176 123.049V135.973H402.14V114.473H402.262Z" fill="#00467F"/>
<path d="M446.887 117.473C445.788 116.995 443.835 116.637 442.126 116.637C437.486 116.637 435.533 118.666 435.533 124.753C435.533 131.318 437.486 133.228 442.126 133.228C443.835 133.228 445.666 132.87 446.887 132.153V134.779C445.544 135.495 443.591 135.973 441.759 135.973C435.289 135.973 432.359 132.512 432.359 124.753C432.359 117.353 435.289 113.892 441.882 113.892C443.713 113.892 445.666 114.25 446.887 114.847V117.473V117.473Z" fill="#00467F"/>
<path d="M456.001 114.473H459.856L467.808 135.973H464.314L462.386 130.296H453.23L451.302 135.973H448.049L456.001 114.473ZM454.194 127.639H461.422L457.928 117.251H457.808L454.194 127.639Z" fill="#00467F"/>
<path d="M476.286 135.973C473.64 135.973 471.716 135.611 469.912 134.646V131.87C471.716 132.956 473.52 133.439 475.685 133.439C478.451 133.439 479.894 132.112 479.894 129.819C479.894 127.406 477.729 126.682 475.444 125.958C472.678 125.113 469.551 124.148 469.551 119.925C469.551 116.546 471.716 113.892 476.527 113.892C478.571 113.892 480.495 114.254 481.818 114.857V117.512C480.135 116.908 478.451 116.546 476.647 116.546C473.64 116.546 472.558 118.115 472.558 119.804C472.558 122.338 475.324 122.821 477.97 123.665C480.495 124.51 482.901 125.717 482.901 129.578C483.141 133.439 480.616 135.973 476.286 135.973Z" fill="#00467F"/>
<path d="M493.264 114.473H497.096L505 135.973H501.527L499.611 130.296H490.51L488.474 135.973H485.241L493.264 114.473ZM491.468 127.639H498.653L495.18 117.251H495.061L491.468 127.639Z" fill="#00467F"/>
<path d="M60.9686 159.531L15.474 57.527L11.6226 61.4457L60.9686 172L109.833 61.327L105.982 57.527L60.9686 159.531Z" fill="#00467F"/>
<path d="M66.3462 54.3153C66.3462 53.6017 66.3462 53.007 66.8269 52.7692C68.1488 51.8177 70.7927 52.1745 70.7927 49.9148C70.7927 49.3202 70.5523 48.9634 70.5523 48.9634C70.5523 48.9634 72.3549 47.6551 72.3549 45.1576C72.3549 43.7304 70.7927 42.779 70.0716 41.5897C68.5094 39.33 66.8269 38.3785 64.5436 38.3785C63.9427 38.3785 63.7024 38.4974 63.2217 38.6164C62.6208 38.1407 61.7796 37.1892 60.0972 37.1892C58.5349 37.1892 57.8139 38.1407 57.5735 38.6164C56.2516 38.8542 55.5306 39.6868 55.5306 41.1139C55.5306 42.0654 56.4919 42.8979 56.4919 42.8979C56.2516 43.0168 54.9297 44.0872 54.9297 45.6333C54.9297 46.9415 55.4104 47.6551 55.4104 48.1309C55.4104 48.7255 54.0885 49.2012 54.0885 50.1527C54.0885 50.8663 54.9297 51.4609 54.9297 51.8177C54.9297 52.2934 54.6893 52.6502 54.6893 53.6017C53.0069 52.7692 51.685 52.1745 49.642 52.1745C44.9552 52.1745 42.0711 57.0507 32.8176 57.0507C31.3756 56.0992 31.015 55.6235 29.6931 54.5531C29.0922 54.0774 28.8519 54.4342 28.1309 54.0774C26.9291 53.3638 25.3669 52.5313 24.1651 52.5313C22.1221 52.5313 20.9204 53.4827 20.9204 55.3856C20.9204 56.456 21.7616 57.6453 23.2037 57.8832C22.3625 58.1211 22.2423 58.8346 22.2423 59.1914C22.2423 60.4997 23.5642 61.3322 25.8475 62.2836C26.6888 62.7594 28.1309 63.7108 29.5729 63.7108C30.294 63.7108 30.8949 63.5919 31.015 63.5919C31.015 63.5919 34.9808 64.9001 37.3843 64.9001C42.9123 64.9001 45.3158 63.1162 46.878 62.6404C46.878 62.8783 40.2684 67.5166 40.2684 74.8903C40.2684 77.3879 41.2298 79.6476 42.5518 81.6694L35.822 84.9994L43.0324 101.531C43.0324 101.531 48.921 101.293 50.0025 98.3197C48.5605 94.9896 47.8394 92.1353 47.8394 90.2324C47.8394 89.0431 48.3201 87.8538 48.6806 87.1402C50.9639 88.3295 53.3674 89.162 55.4104 89.162C58.7753 89.162 60.9384 87.7349 62.02 86.5455C62.5007 87.3781 63.2217 88.8052 63.2217 92.611C63.2217 96.6547 59.977 100.223 59.977 100.223L51.3245 110.807C50.0025 112.354 49.5219 113.781 49.5219 115.089C49.5219 115.684 49.642 116.159 49.7622 116.635L61.8998 144.108L82.8101 96.6547C82.8101 96.6547 82.089 96.8925 81.2478 96.8925C79.9259 96.8925 77.4022 96.1789 77.4022 92.8489C77.4022 89.162 80.7671 87.3781 80.7671 87.3781C80.7671 87.3781 80.5268 85.5941 80.5268 84.7616C80.5268 83.9291 80.7671 83.3344 81.368 83.3344C82.089 83.3344 83.7715 85.5941 85.6943 85.5941C87.3767 85.5941 88.2179 84.5237 88.8188 83.2155L102.278 52.1745H96.8705L85.3337 78.3393C85.4539 77.7447 86.7758 73.5821 86.7758 70.0141C86.7758 66.4462 85.6943 65.019 84.7329 64.1865V63.1162C84.7329 57.5264 80.6469 56.2182 79.2049 56.0992C77.5224 55.9803 77.4022 54.791 74.8786 54.791C70.9128 54.791 70.1918 56.575 68.1488 56.575C67.3076 56.575 66.3462 55.7424 66.3462 54.3153ZM57.0928 74.1767C54.6893 74.1767 52.2859 73.1064 51.8052 73.1064C51.3245 73.1064 51.2043 73.3442 51.2043 73.701C51.2043 76.9121 61.8998 74.1767 61.8998 81.9072C61.8998 85.5941 58.5349 87.2591 55.8911 87.2591C50.4832 87.2591 42.3114 82.0262 42.3114 75.1282C42.3114 67.5166 49.7622 64.1865 49.7622 61.4511C49.7622 60.7375 49.1613 60.6186 48.6806 60.6186C46.3973 60.6186 41.1097 63.1162 38.1053 63.1162C35.822 63.1162 33.5387 62.6404 31.1352 61.8079C31.1352 61.8079 30.1738 62.0458 29.6931 62.0458C28.7317 62.0458 28.0107 61.4511 27.1695 61.0943C25.6072 60.4997 24.2853 60.0239 24.2853 59.4293C24.2853 59.1914 24.4055 58.9536 24.8862 58.9536C25.8475 58.9536 27.6502 59.905 27.6502 59.905C28.1309 59.905 28.1309 59.6672 28.1309 59.3104C28.1309 58.3589 27.0493 57.6453 25.8475 57.0507C24.4055 56.456 22.723 56.2182 22.723 55.3856C22.723 55.2667 22.9634 55.2667 23.2037 55.2667C23.4441 55.2667 24.1651 55.3856 24.6458 55.5046C24.1651 55.2667 23.9248 54.6721 23.9248 54.5531C23.9248 54.3153 24.0449 54.3153 24.1651 54.3153C25.0063 54.3153 27.1695 55.7424 28.251 56.456C28.8519 56.456 29.5729 56.6939 29.6931 56.9317L29.9335 57.4075C30.6545 58.1211 30.8949 58.3589 31.9764 59.1914C32.5773 59.3104 33.2983 59.3104 34.1396 59.3104C40.9895 59.3104 46.7578 54.5531 49.642 54.5531C52.406 54.5531 54.449 56.3371 56.4919 56.3371C58.5349 56.3371 59.0156 56.0992 59.4963 55.8614C59.3761 55.8614 56.7323 55.1478 56.7323 53.8395C56.7323 52.8881 57.213 52.1745 57.213 51.5799C57.213 50.9852 56.3718 50.7473 56.3718 50.2716C56.3718 49.558 57.6937 49.3202 57.6937 48.2498C57.6937 48.0119 57.213 46.8226 57.213 45.9901C57.213 45.1576 57.6937 43.9683 58.8954 43.7304C60.2173 44.9197 62.6208 45.0386 63.5822 45.1576C63.5822 47.1794 64.6638 48.3687 65.1445 48.7255C65.2647 48.7255 65.3848 48.6066 66.1059 48.6066C66.3462 48.6066 66.8269 48.7255 66.8269 49.4391C66.5866 52.7692 64.3033 49.677 64.3033 53.7206C64.3033 55.0288 64.3033 58.1211 67.6681 58.3589C59.3761 62.4026 63.5822 74.1767 57.0928 74.1767ZM75.1189 59.4293C75.7198 59.4293 78.0031 60.0239 78.9645 60.4997C79.2049 61.8079 79.6856 62.9972 79.6856 66.803C79.6856 75.0092 75.1189 74.5335 71.9944 77.3879C71.3935 75.485 71.1532 74.4146 71.1532 72.3928C71.1532 70.3709 71.8742 69.5384 72.5953 69.1816C72.5953 69.8952 73.076 70.252 73.6768 70.252C74.2777 70.252 74.6382 70.0141 74.7584 69.5384C74.9988 69.6574 75.4795 69.7763 75.9602 69.7763C76.561 69.7763 76.6812 69.6574 76.6812 69.3006C76.6812 68.8248 75.2391 67.0409 72.9558 67.0409C70.9128 67.0409 70.6725 68.587 70.5523 68.8248L68.5094 72.7496C67.6681 72.6306 66.1059 72.5117 64.9041 72.5117C63.8226 72.5117 63.2217 72.9874 63.2217 72.9874C63.2217 71.4413 63.462 68.9438 64.9041 67.6355C65.505 67.3977 65.6252 66.9219 65.6252 66.9219C65.6252 66.9219 65.8655 67.5166 66.5866 67.5166C67.1874 67.5166 67.4278 67.2787 67.548 66.9219C68.0287 67.0409 68.269 67.1598 68.9901 67.1598C69.9515 67.1598 70.312 66.6841 70.312 66.3273C70.312 65.4948 66.7067 65.2569 66.7067 64.0676C66.7067 63.354 68.0287 63.1162 70.6725 61.9268C74.7584 60.3807 74.3979 59.4293 75.1189 59.4293Z" fill="#00467F"/>
<path d="M60.0838 47.6486C59.1572 47.6486 58.6938 47.8811 58.6938 48.5783C58.6938 49.0432 58.9255 49.3919 59.5047 49.3919C60.0838 49.3919 60.4313 49.1594 60.4313 48.6946C61.3579 48.6946 61.5896 48.4621 61.5896 48.2297C61.7054 47.9973 60.7788 47.6486 60.0838 47.6486Z" fill="#00467F"/>
<path d="M61.1483 0L0 60.113L1.92215 64.5L61.1483 6.40257L119.534 64.2629L121.456 59.7574L61.1483 0Z" fill="#00467F"/>
</svg>
