<svg width="532" height="162" viewBox="0 0 532 162" fill="none" xmlns="http://www.w3.org/2000/svg">
<path d="M531.569 104.563H1.46045V162H531.569V104.563Z" fill="#6F6F6E"/>
<path d="M309.595 144.327H304.688L300.599 137.213C300.19 136.464 299.781 136.089 298.963 135.715C298.146 135.341 297.737 135.341 296.919 135.341H293.648V144.327H289.15V122.236H299.781C301.826 122.236 304.279 122.61 305.915 123.734C307.55 124.857 308.368 126.729 307.959 128.601C307.959 130.099 307.55 131.596 306.324 132.72C305.097 133.843 303.461 134.592 301.826 134.966C303.053 135.341 304.279 136.089 305.097 137.587L309.595 144.327ZM303.052 131.222C303.87 130.473 304.279 129.724 304.279 128.601C304.279 127.478 303.87 126.729 303.052 125.98C301.826 125.231 300.599 125.231 299.372 125.231H293.648V132.345H299.372C300.599 132.345 301.826 131.971 303.052 131.222Z" fill="white"/>
<path d="M325.659 144.327V122.236H341.723V125.606H329.778V131.596H340.899V134.592H329.778V140.957H341.723V144.327H325.659Z" fill="white"/>
<path d="M365.714 144.327V125.606H357.787V122.236H378.232V125.606H370.304V144.327H365.714Z" fill="white"/>
<path d="M394.296 144.327V122.236H398.677V144.327H394.296Z" fill="white"/>
<path d="M435.186 144.327H430.279L426.19 137.213C425.781 136.464 425.372 136.089 424.554 135.715C423.736 135.341 423.328 135.341 422.51 135.341H419.239V144.327H414.741V122.236H425.372C427.417 122.236 429.87 122.61 431.506 123.734C433.141 124.857 433.959 126.729 433.55 128.601C433.55 130.099 433.141 131.596 431.914 132.72C430.688 133.843 429.052 134.592 427.417 134.966C428.643 135.341 429.87 136.089 430.688 137.587L435.186 144.327ZM428.643 131.222C429.461 130.473 429.87 129.724 429.87 128.601C429.87 127.478 429.461 126.729 428.643 125.98C427.417 125.231 426.19 125.231 424.963 125.231H419.239V132.345H424.963C426.19 132.345 427.825 131.971 428.643 131.222Z" fill="white"/>
<path d="M456.837 142.958C455.212 142.227 453.586 140.767 452.773 138.941C450.742 135.29 450.742 130.908 452.773 127.257C453.586 125.796 455.212 124.335 456.837 123.605C460.494 121.779 465.371 121.779 469.028 123.605C470.653 124.335 472.279 125.796 473.091 127.257C475.123 130.908 475.123 135.29 473.091 138.941C472.279 140.402 470.653 141.862 469.028 142.958C464.964 144.783 460.494 144.783 456.837 142.958ZM467.809 138.941C470.247 135.29 470.247 130.908 467.809 127.257C465.37 124.701 460.901 124.701 458.056 126.891L457.65 127.257C455.212 130.908 455.212 135.29 457.65 138.941C460.088 141.497 464.558 141.497 467.402 139.306L467.809 138.941Z" fill="white"/>
<path d="M246.8 122.61L237.295 134.217V144.327H232.939V134.217L223.434 122.236H228.186L234.919 130.848L241.651 122.236H246.8V122.61V122.61Z" fill="white"/>
<path d="M77.3028 122.236H81.7797L71.1981 144.327H67.5352L56.9536 122.236H61.4304L69.5701 139.459L77.3028 122.236Z" fill="white"/>
<path d="M97.8433 144.327V122.236H102.224V144.327H97.8433Z" fill="white"/>
<path d="M118.289 122.307H127.512C130.866 121.933 134.22 123.053 136.735 125.292C141.347 130.144 141.347 136.862 136.735 141.341C134.22 143.207 130.866 144.327 127.512 144.327H118.289V122.307ZM127.093 140.968C131.704 140.968 135.477 137.236 135.477 133.13C135.477 129.025 131.704 125.666 127.093 125.666H122.9V140.968H127.093Z" fill="white"/>
<path d="M176.749 144.327L174.385 139.085H162.957L160.592 144.327H156.258L166.898 122.236H170.444L181.084 144.327H176.749ZM164.533 135.715H173.203L168.868 126.354L164.533 135.715Z" fill="white"/>
<path d="M353.672 1.47217V62.7696C353.672 69.0851 354.461 72.4286 355.644 72.4286H394.296V83.9451H355.644C345.39 83.9451 340.263 76.8866 340.263 62.7696V1.47217H353.672Z" fill="#6F6F6E"/>
<path d="M408.9 1.47217V83.9451H395.756V1.47217H408.9Z" fill="#6F6F6E"/>
<path d="M470.235 12.9887H427.238C424.827 12.9887 423.621 14.4747 423.621 17.0752V37.5076H459.385V49.0241H423.621V83.9451H410.36V17.0752C410.36 6.67317 415.986 1.47217 427.238 1.47217L470.235 2.21517V12.9887V12.9887Z" fill="#6F6F6E"/>
<path d="M531.569 12.9887H488.572C486.161 12.9887 484.955 14.4747 484.955 17.0752V37.5076H520.719V47.9096H484.955V69.0851C484.955 71.6856 486.161 72.8001 488.572 72.8001H531.167V83.2021L488.572 83.9451C477.32 83.9451 471.694 78.7441 471.694 68.7136V17.0752C471.694 6.67317 477.32 1.47217 488.572 1.47217L531.569 2.21517V12.9887V12.9887Z" fill="#6F6F6E"/>
<path d="M66.9859 48.2873C64.1267 44.9444 60.4506 42.7157 55.9577 41.23C49.4225 39.0013 42.8873 37.1441 35.9436 36.0298C30.6338 35.2869 25.3239 33.4297 20.4225 31.201C17.5634 29.7153 15.9296 26.7438 15.9296 23.7722C15.9296 20.0578 17.5634 16.7148 21.2394 14.8576C25.3239 12.629 30.2253 11.5147 35.1267 11.5147C43.2957 11.8861 51.8732 13.3719 59.2253 17.0863V4.82874C57.1831 4.08586 55.1408 3.34297 53.0986 2.60009C47.3802 0.742885 41.2535 0 35.1267 0C29 0 22.4648 1.11433 16.7465 3.34297C11.8451 5.20018 7.76055 8.1717 4.49295 12.2575C1.6338 15.972 0 20.4293 0 24.8865C0 28.9724 1.22536 33.0582 3.67606 36.4012C6.53521 39.7442 10.2113 42.3443 14.2958 43.83C20.0141 46.0587 26.1408 47.9159 32.676 49.0302C38.8028 50.1445 44.5211 51.6303 49.8309 53.8589C52.6901 55.3447 54.7324 57.9448 54.7324 60.9163C54.7324 64.2593 52.6901 67.6023 49.4225 69.4595C44.5211 71.6881 38.8028 72.8024 33.0845 72.431C27.7746 72.431 22.4648 71.6881 17.1549 70.2024C11.4366 67.9737 5.7183 65.3736 0.408444 62.0306V75.774C4.49295 78.0026 8.57745 79.8598 13.0704 81.3456C19.1972 83.2028 25.7324 83.9457 32.676 83.9457C39.6197 83.9457 46.5633 83.2028 53.507 80.9741C58.4084 79.4884 62.9014 76.5168 65.7605 72.431C68.6197 68.7166 70.2535 64.2593 69.845 59.802C70.6619 55.3447 69.4366 51.6303 66.9859 48.2873Z" fill="#6F6F6E"/>
<path d="M145.179 2.94482H157.719V82.4723H143.561V30.3052L120.099 70.0689H109.177L85.7155 30.67V82.4723H71.5576V2.94482H84.502L114.84 55.1119L145.179 2.94482Z" fill="#6F6F6E"/>
<path d="M235.117 38.9796V77.9593C230.709 79.8155 225.5 81.3004 220.691 82.4141C215.081 83.5278 209.07 83.899 203.459 83.899C195.445 84.2703 187.029 82.4141 179.816 78.7018C173.405 75.3606 167.794 70.5346 164.589 64.2236C157.375 50.1167 157.375 33.7824 164.589 19.6754C167.794 13.7357 173.004 8.5384 179.816 5.19728C187.029 1.85617 194.643 0 202.658 0C208.669 0 214.68 0.742471 220.691 2.22741C225.099 3.71235 230.308 5.56852 230.308 5.56852V18.5617C221.893 14.4781 212.676 12.2507 203.059 11.8795C195.445 11.5083 187.831 14.1069 182.621 19.3042C178.213 24.1303 175.809 31.555 175.809 41.2071C175.809 61.2537 185.427 71.2771 204.261 71.2771C209.871 71.2771 215.481 70.5346 221.092 69.0497V49.7455H202.257V38.9796H235.117Z" fill="#6F6F6E"/>
<path d="M325.659 50.0724H294.992V80.9997H325.659V50.0724Z" fill="#E4002B"/>
<path d="M280.388 50.0724H249.721V80.9997H280.388V50.0724Z" fill="#E4002B"/>
<path d="M280.388 4.41809H249.721V35.3454H280.388V4.41809Z" fill="#E4002B"/>
<path d="M325.659 4.41797H294.992V35.3453H325.659V4.41797Z" fill="#E4002B"/>
</svg>
