<svg width="382" height="238" viewBox="0 0 382 238" fill="none" xmlns="http://www.w3.org/2000/svg">
<path d="M175.145 0C144.416 0 119.467 25.0057 119.467 55.8044C119.467 68.5569 123.75 80.2684 130.902 89.6453L177.182 28.6734L172.192 28.7151H167.244C161.963 28.7151 157.015 29.09 153.439 29.7566C151.277 30.1732 149.364 30.9653 147.784 32.0907C145.913 33.3827 143.626 36.1334 142.087 38.8425C141.921 39.1341 141.672 39.634 141.339 40.3011L138.636 39.6757L143.168 22.1717H201.133L155.103 83.8945C158.096 83.644 159.26 83.5607 161.714 83.5607C163.585 83.5607 166.412 83.6857 170.197 83.9357L178.388 84.3945C181.341 84.6028 183.835 84.6861 185.748 84.6861C189.948 84.6861 192.692 84.3528 195.437 83.519C197.549 82.8594 199.553 81.8904 201.383 80.6434C204.626 78.3926 207.745 74.7676 209.658 71.1831C209.824 70.8076 210.115 70.266 210.447 69.5162L212.942 70.1411C212.152 73.225 211.695 74.3921 210.489 77.1422C207.994 82.6442 205.208 86.3531 201.383 89.2287C197.432 92.1461 193.066 93.6047 187.869 93.6881H187.12C183.295 93.6881 180.301 93.3548 171.153 91.9378C161.839 90.5202 157.098 90.0208 152.399 90.0208C149.281 90.0208 146.37 90.2708 143.334 90.7707C139.343 91.3956 137.763 91.8544 134.145 93.5214C144.291 104.649 158.928 111.609 175.145 111.609C205.915 111.609 230.822 86.6447 230.822 55.8049C230.822 25.0057 205.915 0 175.145 0" fill="#2857AF"/>
<path d="M70.4307 150.795H27.8206L22.5414 162.419C24.2873 161.461 24.9938 161.128 26.5324 160.544C28.9432 159.586 31.6038 158.836 34.2229 158.336C36.4259 157.961 38.5047 157.794 41.8302 157.711C43.3268 157.628 44.7402 157.628 46.0705 157.628H52.3476L19.1738 205.165H66.0663L71.5117 192.749C69.5996 193.833 68.9342 194.208 67.5213 194.833C64.7775 196.082 61.7844 196.999 58.7498 197.541C56.3385 197.957 53.5948 198.207 50.2277 198.291C49.1051 198.332 47.6502 198.332 45.9043 198.332H37.5899L70.4307 150.795ZM213.601 205.165C212.77 204.415 212.478 204.082 211.939 203.248C211.564 202.707 211.315 202.123 211.065 201.582C210.608 200.332 210.317 198.541 210.317 196.791V164.044L210.358 160.878C210.4 157.253 210.483 156.253 210.941 154.753C211.107 154.17 211.398 153.628 211.689 153.087C212.271 152.129 212.645 151.712 213.768 150.795H196.349C197.472 151.795 197.846 152.17 198.345 152.962C198.713 153.497 198.993 154.088 199.176 154.711C199.591 156.045 199.716 157.336 199.758 160.586V196.374C199.758 198.291 199.426 200.332 198.927 201.665C198.677 202.215 198.385 202.744 198.054 203.248C197.638 203.832 197.347 204.165 196.391 205.165H213.601ZM268.059 151.295C266.729 150.879 266.188 150.712 264.775 150.42C261.657 149.754 258.622 149.462 255.214 149.462C249.394 149.462 244.363 150.378 239.749 152.337C237.047 153.462 234.511 154.962 232.308 156.753C225.615 162.169 221.998 169.96 221.998 179.001C221.998 187.708 225.49 195.249 231.892 200.332C237.171 204.498 243.989 206.623 252.137 206.623C257.25 206.623 262.031 205.873 267.394 204.165C267.56 204.123 267.892 204.04 268.267 203.915V194.04C266.978 194.873 266.521 195.165 265.731 195.624C264.691 196.249 263.569 196.79 262.405 197.29C259.121 198.665 256.169 199.332 252.927 199.332C247.315 199.332 242.493 197.332 238.959 193.457C235.468 189.666 233.555 184.375 233.555 178.417C233.555 172.709 235.301 167.418 238.461 163.752C239.791 162.127 241.453 160.793 243.366 159.711C246.442 158.003 249.975 157.127 253.841 157.127C257.167 157.127 260.368 157.752 263.611 159.085C265.606 159.877 266.354 160.294 268.059 161.544V151.295ZM315.616 180.501V193.749C315.616 196.708 315.574 197.749 315.367 199.291C315.286 200.092 315.09 200.878 314.785 201.624C314.41 202.624 313.786 203.582 312.831 204.457C312.664 204.623 312.415 204.873 312.083 205.165H329.417C328.711 204.457 328.42 204.123 327.963 203.457C327.505 202.874 327.173 202.29 326.964 201.707C326.425 200.416 326.299 199.457 326.258 196.791C326.216 195.166 326.216 194.249 326.216 193.958L326.258 164.044V160.836C326.258 158.461 326.425 156.587 326.84 155.087C327.048 154.378 327.339 153.712 327.713 153.087C328.254 152.17 328.669 151.712 329.833 150.795H312.166C313.163 151.67 313.538 152.045 314.119 153.045C314.535 153.67 314.826 154.295 315.034 154.92C315.45 156.211 315.616 157.753 315.616 160.627V173.834H291.297V163.919C291.297 160.919 291.339 158.961 291.464 157.461C291.505 156.587 291.671 155.795 291.879 155.128C292.253 153.92 293.251 152.337 294.124 151.378C294.248 151.254 294.457 151.086 294.747 150.795H277.371C278.41 151.878 278.66 152.212 279.158 152.92C279.532 153.462 279.824 154.087 280.073 154.754C280.53 156.128 280.613 156.878 280.655 160.503L280.696 163.919V193.666C280.696 196.708 280.655 198.041 280.489 199.416C280.407 200.145 280.225 200.86 279.948 201.54C279.533 202.749 278.867 203.665 277.869 204.623C277.745 204.748 277.537 204.915 277.288 205.165H294.457C293.708 204.373 293.417 204.04 293.002 203.374C292.669 202.832 292.378 202.29 292.128 201.665C291.588 200.249 291.38 199.207 291.339 196.916C291.297 195.749 291.297 194.666 291.297 193.666V180.501H315.616ZM157.314 177.21C158.104 177.21 159.018 177.126 160.141 176.96C163.051 176.543 165.047 175.876 166.958 174.751C167.998 174.127 168.829 173.46 169.495 172.71C170.908 171.127 171.615 169.043 171.615 166.585C171.615 163.753 170.658 161.461 168.829 159.878C167.79 159.003 166.501 158.336 165.171 157.92C163.093 157.336 160.515 157.045 157.854 157.045H156.441V177.168C156.856 177.21 157.023 177.21 157.314 177.21V177.21ZM156.441 193.999V196.708C156.482 199.207 156.69 200.541 157.148 201.748C157.397 202.29 157.688 202.874 158.104 203.374C158.561 204.04 158.811 204.332 159.6 205.165H142.349C143.346 204.248 143.679 203.915 144.136 203.248C144.552 202.749 144.843 202.165 145.092 201.54C145.55 200.332 145.716 198.874 145.716 196.291V160.627C145.716 157.753 145.55 156.045 145.176 154.836C144.968 154.135 144.644 153.473 144.219 152.878C143.721 152.087 143.388 151.67 142.39 150.795H156.4C158.145 150.795 159.809 150.837 161.43 150.879C165.753 151.003 168.289 151.254 170.7 151.837C174.192 152.628 177.31 154.379 179.513 156.711C181.966 159.252 183.171 162.294 183.171 165.627C183.171 167.044 182.963 168.418 182.506 169.794C181.716 172.251 180.386 174.21 178.266 176.001C176.354 177.584 174.275 178.792 171.573 179.876C170.617 180.251 170.201 180.417 169.162 180.709L177.601 190.667C178.598 191.875 179.928 193.333 181.55 195.083C184.086 197.833 185.79 199.582 187.661 201.374C188.439 202.109 189.228 202.832 190.03 203.54C190.737 204.123 191.07 204.415 191.984 205.165H185.208C184.169 205.165 183.255 205.165 182.381 205.124C180.012 205.04 178.557 204.665 176.977 203.832C175.148 202.873 173.319 201.374 171.365 199.374C170.783 198.79 169.91 197.791 168.746 196.458C167.707 195.291 166.958 194.416 166.501 193.833L156.441 181.751L156.441 193.999ZM133.536 150.837H116.242C117.281 151.67 117.655 152.045 118.195 152.92C118.569 153.504 118.819 154.128 119.026 154.754C119.359 156.086 119.484 157.378 119.484 160.461V181.125C119.484 185.583 119.359 188.167 119.027 190.333C118.819 191.792 118.32 193.124 117.613 194.333C116.325 196.541 113.872 198.249 110.962 198.999C109.798 199.291 108.509 199.416 107.096 199.416C102.44 199.416 98.4494 197.666 96.5367 194.833C95.0402 192.583 94.5831 190.5 94.5415 184.917L94.5 180.417V164.044C94.5 160.878 94.5415 159.336 94.6246 157.711C94.7078 156.753 94.8324 155.92 95.0402 155.253C95.4147 154.003 96.329 152.337 97.2437 151.295C97.3268 151.212 97.4515 151.045 97.6593 150.837H80.0333C81.1142 151.712 81.4882 152.129 81.9869 153.045C82.3614 153.628 82.6108 154.253 82.777 154.92C82.9848 155.753 83.1094 156.586 83.1094 157.419C83.151 157.961 83.151 159.086 83.151 160.795L83.1926 163.919V179.501C83.1926 185.292 83.1926 186.75 83.4003 189.083C83.7333 193.041 84.9384 196.208 87.2251 199.083C91.2991 204.248 97.9086 206.957 106.348 206.957C110.38 206.957 114.246 206.332 117.239 205.248C120.357 204.082 123.226 202.165 125.304 199.832C127.798 197.041 129.253 193.583 129.669 189.292C129.96 186.792 130.043 183.875 130.043 179.584V163.961L130.001 160.878V160.253C130.001 157.92 130.126 156.545 130.459 155.295C130.667 154.503 130.958 153.753 131.415 153.087C131.997 152.17 132.371 151.753 133.535 150.836L133.536 150.837ZM348.623 133.172H350.078C351.658 133.172 353.487 132.588 353.487 130.672C353.487 128.422 351.866 128.298 350.037 128.298H348.623L348.623 133.172ZM347.293 127.13H350.826C353.238 127.13 354.817 128.172 354.817 130.672C354.817 132.422 353.487 133.63 351.783 133.838V133.88C352.864 134.005 353.445 134.589 353.861 135.546L356.189 140.838H354.693L352.739 136.172C351.949 134.422 351.034 134.38 349.745 134.38H348.623V140.838H347.293V127.13Z" fill="#173A78"/>
<path d="M351.765 143.595C346.357 143.595 341.973 139.193 341.973 133.803C341.973 128.373 346.357 123.929 351.765 123.929C357.173 123.929 361.557 128.373 361.557 133.803C361.557 139.193 357.172 143.595 351.765 143.595ZM351.765 122.696C345.701 122.696 340.703 127.673 340.703 133.803C340.703 139.892 345.701 144.87 351.764 144.87C357.869 144.87 362.826 139.892 362.826 133.803C362.826 127.673 357.869 122.696 351.764 122.696" fill="#173A78"/>
</svg>
