<svg id="Capa_1" data-name="Capa 1" xmlns="http://www.w3.org/2000/svg" viewBox="0 0 100 100"><defs><style>.cls-1{fill:#a0e55b;}.cls-2{fill:#5fb54e;}.cls-3{fill:#9ee45b;}.cls-4{fill:#5ab348;}.cls-5{fill:#5fb64b;}.cls-6{fill:#65b854;}.cls-7{fill:#a2e65f;}.cls-8{fill:#84d05d;}.cls-9{fill:#80ce5a;}.cls-10{fill:#7dcd56;}.cls-11{fill:#c5e7d0;}.cls-12{fill:#79cb53;}.cls-13{fill:#e3f6f8;}.cls-14{fill:#7acc53;}.cls-15{fill:#9ce35a;}</style></defs><path class="cls-1" d="M10.12,77.35c-2.23-1.29-1.3-3.48-1.33-5.28Q8.64,60,8.8,47.91c0-1.79-.94-4,1.29-5.28,1.74,1,1.05,3.77,3.26,4.61,3-1.6,3.78-5.8,7.58-6.41,6.7-1,13.41-.49,20.12-.51,4.75-.12,9.5-.17,14.24,0,2.93,0,5.9-.19,8.7,1A106.58,106.58,0,0,0,74.67,51.91c1.52,4.62,1.18,9.31.47,14-.83,3.35-4.24,4.57-6.09,7,.43,2.62,3.43,1.73,4.34,3.49-.91,2.24-2.9,1.42-4.43,1.41-17.13-.06-34.26-.2-51.39-.32-1.23-1.73-1.56-4.14-3.92-5.08C11,73,12.08,76.29,10.12,77.35Z"/><path class="cls-2" d="M69.49,22c7.76.34,15.56-.53,23.78.55V56.37c-1.87,1.67-4.2.62-6.28,1C83.16,52.63,85,47,84.8,41.78c-.33-10.12-.35-10.32-10.3-10.46-3.18,0-6.4.25-9.5-.76-3.62-1.69-1.71-3.74-.37-5.76C65.92,23.32,67.74,22.74,69.49,22Z"/><path class="cls-3" d="M62.83,29H86.3c1.22,10,.19,19.22.69,28.36-.09,1.89-.18,3.78-.29,6.14-4.43,0-6.15,2.93-7.14,6.59-3.89-5.24-2-11.3-2.13-17-.27-14.86-.1-14.86-15-16a12.76,12.76,0,0,1-3.56-.74C55.12,31.2,59,30.1,62.83,29Z"/><path class="cls-4" d="M57.05,34.93c6.81.15,13.61.29,20.42.47.42,0,.83.42,2.09,1.09V70.11l-5.85.67a2.35,2.35,0,0,1-.15-3.27l0-16.12a13.41,13.41,0,0,0-8.81-8.9l-9.28-.22C54,39.39,53.16,36.64,57.05,34.93Z"/><path class="cls-5" d="M41.23,42.35,19,42.48c-1.13.78-2.24,1-3.29-.16l.65-5.85c5.46-.53,10.16-4.33,16-3.59,3.35.43,6.85.11,9.31,3.1A5.29,5.29,0,0,1,41.23,42.35Z"/><path class="cls-6" d="M29.13,29c.46-2.09-.42-4.39,1.35-7H52.62a2.05,2.05,0,0,1,1,2c-1.29,4-4.22,6-8.13,6.88C40,31,34.21,32.88,29.13,29Z"/><path class="cls-7" d="M29.13,29l17.76.11c.42,4.5-2.48,6.25-6.14,7.37-5.62-2.53-11.46-1.67-17.17-.67a45.36,45.36,0,0,1-7.23.63c5.26-2.06,5.26-2.06,7.27-7.44Z"/><path class="cls-8" d="M10.12,77.35c.23-2.56-.67-5.24,1-8.11,4.8.69,7.62,2.78,6.42,8.27A16.31,16.31,0,0,1,10.12,77.35Z"/><path class="cls-9" d="M15.7,42.32l3.29.16c-2.1,3.28-2.51,8.26-8,8.26-1.49-2.71-.57-5.47-.86-8.11Z"/><path class="cls-10" d="M73.56,67.51l.15,3.27-.32,5.64c-2.62-.22-5.33.61-8.19-.86C66.11,70.89,70.1,69.46,73.56,67.51Z"/><path class="cls-11" d="M53,23.25A6.37,6.37,0,0,1,52.62,22H69.49l-3.3,2.62C61.67,25.3,57.11,26.35,53,23.25Z"/><path class="cls-12" d="M41.44,46.87a13.61,13.61,0,0,1,13,13.31c0,7-6.4,13-13.46,12.86C35,72.89,27.68,65,28,59.13,28.43,52.63,34.87,46.74,41.44,46.87Z"/><path class="cls-13" d="M53,23.25c4.38.62,9-1.48,13.2,1.4L62.83,29a19.74,19.74,0,0,0-5.78,5.91c-2.39,2-.83,5-1.62,7.34l-14.2.08-.48-5.84,6.14-7.37A26,26,0,0,0,53,23.25Z"/><path class="cls-14" d="M64.71,42.49h7.52c2.16,3.16,1.13,6.1,1.29,8.9C68.84,50.14,64.61,48.46,64.71,42.49Z"/><path class="cls-15" d="M44.69,53.17c-1,1.95-4.63.77-4.37,4.56,3,1.6,7.67,3.28,4.07,8.58-2.2,3.25-4.66,2.88-7.06.08.44-2.74,3.63-1,4.7-3.29-.93-2.28-4.35-2.84-5-5.53-.82-3.3,1.79-5,3.83-6.48S43.68,51.74,44.69,53.17Z"/></svg>