<svg width="100" height="100" viewBox="0 0 100 100" fill="none" xmlns="http://www.w3.org/2000/svg">
<path d="M76.0231 9.65957L75.2088 10.9193L75.283 10.9673L75.3624 11.0062L76.0231 9.65957ZM90.3279 23.9574L91.5872 23.1425L91.5807 23.1325L90.3279 23.9574ZM48.9393 48.9393C48.3536 49.5251 48.3536 50.4749 48.9393 51.0607C49.5251 51.6464 50.4749 51.6464 51.0607 51.0607L48.9393 48.9393ZM83.1915 29.0638V30.5638H83.8324L84.2755 30.1007L83.1915 29.0638ZM94.4255 17.3191L95.5095 18.356L97.936 15.8191H94.4255V17.3191ZM83.1915 17.3191H81.6915V18.8191H83.1915V17.3191ZM83.1915 4.55319H84.6915V1.12004L82.1724 3.45255L83.1915 4.55319ZM69.4043 17.3191L68.3851 16.2185L67.8166 16.7449L67.9169 17.5132L69.4043 17.3191ZM96.5 50C96.5 75.6812 75.6812 96.5 50 96.5V99.5C77.3381 99.5 99.5 77.3381 99.5 50H96.5ZM50 96.5C24.3188 96.5 3.5 75.6812 3.5 50H0.5C0.5 77.3381 22.6619 99.5 50 99.5V96.5ZM3.5 50C3.5 24.3188 24.3188 3.5 50 3.5V0.5C22.6619 0.5 0.5 22.6619 0.5 50H3.5ZM50 3.5C59.294 3.5 67.9469 6.22507 75.2088 10.9193L76.8374 8.39985C69.1049 3.4014 59.889 0.5 50 0.5V3.5ZM89.0685 24.7724C93.7702 32.0381 96.5 40.698 96.5 50H99.5C99.5 40.1025 96.5936 30.8792 91.5872 23.1425L89.0685 24.7724ZM91.5807 23.1325L90.572 21.6006L88.0663 23.2504L89.0751 24.7824L91.5807 23.1325ZM75.3624 11.0062L76.4031 11.5168L77.7246 8.82358L76.6839 8.31294L75.3624 11.0062ZM79.1383 50C79.1383 66.0926 66.0926 79.1383 50 79.1383V82.1383C67.7495 82.1383 82.1383 67.7495 82.1383 50H79.1383ZM50 79.1383C33.9074 79.1383 20.8617 66.0926 20.8617 50H17.8617C17.8617 67.7495 32.2505 82.1383 50 82.1383V79.1383ZM20.8617 50C20.8617 33.9074 33.9074 20.8617 50 20.8617V17.8617C32.2505 17.8617 17.8617 32.2505 17.8617 50H20.8617ZM50 20.8617C66.0926 20.8617 79.1383 33.9074 79.1383 50H82.1383C82.1383 32.2505 67.7495 17.8617 50 17.8617V20.8617ZM61.7766 50C61.7766 56.504 56.504 61.7766 50 61.7766V64.7766C58.1609 64.7766 64.7766 58.1609 64.7766 50H61.7766ZM50 61.7766C43.496 61.7766 38.2234 56.504 38.2234 50H35.2234C35.2234 58.1609 41.8391 64.7766 50 64.7766V61.7766ZM38.2234 50C38.2234 43.496 43.496 38.2234 50 38.2234V35.2234C41.8391 35.2234 35.2234 41.8391 35.2234 50H38.2234ZM50 38.2234C56.504 38.2234 61.7766 43.496 61.7766 50H64.7766C64.7766 41.8391 58.1609 35.2234 50 35.2234V38.2234ZM51.0607 51.0607L71.9968 30.1245L69.8755 28.0032L48.9393 48.9393L51.0607 51.0607ZM70.9362 30.5638H83.1915V27.5638H70.9362V30.5638ZM84.2755 30.1007L95.5095 18.356L93.3416 16.2823L82.1075 28.027L84.2755 30.1007ZM94.4255 15.8191H83.1915V18.8191H94.4255V15.8191ZM84.6915 17.3191V4.55319H81.6915V17.3191H84.6915ZM82.1724 3.45255L68.3851 16.2185L70.4234 18.4198L84.2106 5.65383L82.1724 3.45255ZM67.9169 17.5132L69.4488 29.2578L72.4236 28.8698L70.8917 17.1251L67.9169 17.5132Z" fill="#5F5751"/>
</svg>
