<svg id="Capa_1" data-name="Capa 1" xmlns="http://www.w3.org/2000/svg" viewBox="0 0 100 100"><defs><style>.cls-1{fill:#fedfb1;}.cls-2{fill:#e55100;}.cls-3{fill:#90a4ae;}.cls-4{fill:#b0bdc4;}.cls-5{fill:#e55304;}.cls-6{fill:#7b919d;}.cls-7{fill:#4d4947;}.cls-8{fill:#c37950;}.cls-9{fill:#c97a4e;}.cls-10{fill:#d07848;}</style></defs><path class="cls-1" d="M76.6,77.4l.14,3.91c-1.29,1.66-3.2,1.63-4.95,1.52-3.88-.25-5.9,1.18-5.66,5.28A4.33,4.33,0,0,1,65,91.26H60.76a4.42,4.42,0,0,1-.93-1.7c-1.61-6.65-1.6-6.65-8.35-6.66h-2C42,82.9,42,82.9,40,90a3.7,3.7,0,0,1-.78,1.24H35.08c-.57-7-4.6-9.5-11.27-8.63a2.73,2.73,0,0,1-2.5-1.32l.14-3.91c2.6-2,5.65-1.23,8.53-1.32,3.6-.13,7.2,0,10.79-.06,2.46,0,4.67-.38,4.67-3.62,0-3.06-2.15-3.17-4.37-3.31s-4.33.3-5.93-1.61l.14-3.92a5.9,5.9,0,0,1,4.12-1.37q10.6-.22,21.23,0a5.92,5.92,0,0,1,4.12,1.37l.13,3.92C63,69.61,60.36,68.88,58,69.1s-5.31-.49-5.33,3.31c0,4,3.07,3.55,5.62,3.6,4.24.1,8.5,0,12.75,0C73,76.09,75,76,76.6,77.4Z"/><path class="cls-2" d="M64.75,63.56H35.28c-.21-11.88-.91-9.53,9.34-9.74,4.74-.1,9.5.27,14.21-.1s6.79,1.07,6,5.93A29.94,29.94,0,0,0,64.75,63.56Z"/><path class="cls-2" d="M35.14,67.48c2.12,0,4.24.13,6.36.15,4.89,0,7.65,4.53,5.42,8.84-.81,1.58-2.26,1-3.44,1-7.34,0-14.69,0-22-.08-.21-11.92-.88-9.5,9.3-9.77C32.22,67.59,33.68,67.53,35.14,67.48Z"/><path class="cls-2" d="M76.6,77.4c-7.34,0-14.7-.16-22,.2-4.48.22-3.56-2.58-3.55-5s-.89-5.43,3.59-5a92.66,92.66,0,0,0,10.27-.08c.81,0,1.62.14,2.44.15C76.87,67.73,76.87,67.72,76.6,77.4Z"/><path class="cls-2" d="M21.31,81.31c1.47,0,2.93.14,4.4.15,9.74,0,9.74,0,9.37,9.8-7.2,0-14.41-.11-21.6.15-4,.14-4-2.13-4-5s0-5.31,4-5C16.07,81.62,18.7,81.36,21.31,81.31Z"/><path class="cls-2" d="M65,91.26c-.36-9.69-.36-9.68,9.35-9.8.81,0,1.63-.1,2.44-.15,3.43,0,6.87.24,10.3.12,3.91-.14,3.48,2.5,3.48,5s.43,5.06-3.48,5C79.68,91.22,72.31,91.29,65,91.26Z"/><path class="cls-2" d="M39.26,91.26c-.36-9.8-.36-9.8,9.52-9.8h2.47c9.88,0,9.88,0,9.51,9.8Z"/><path class="cls-3" d="M68.68,28.11c.27,3,1.68,5.63,2.67,8.4C72,38.24,72,40,70,40.59c-6.09,1.86-12.25,3.53-18.4,5.18-.44.12-1.09-.51-1.64-.79-.52-1.75.74-2.8,1.72-3.78,3.93-3.93,7.65-8.07,11.79-11.79C65.18,29,66.71,27.65,68.68,28.11Z"/><path class="cls-4" d="M63.83,30.09,49.93,45c-1.85-1.7-.08-3.37.11-5a31.79,31.79,0,0,1,1.1-4.78c1.08-3.94,1.15-8.78,3.56-11.6,3.35-3.9,7.14,2.22,11.13,1.58C66.64,27.4,65.14,28.71,63.83,30.09Z"/><path class="cls-5" d="M70.47,17.9c2-2.3,4-4.61,6.11-6.9,1.66-1.84,3.09-3.84,5.83-1,2.27,2.37,2.66,4.17.06,6.43-2.43,2.11-4.11,5-6.92,6.75-.65.27-1.06-.11-1.47-.51s-.5-.57-.74-.86-.25-.28-.38-.41l-.86-.77c-.15-.11-.3-.24-.46-.35a8.39,8.39,0,0,1-.9-.78C70.36,19,70.06,18.53,70.47,17.9Z"/><path class="cls-6" d="M63.83,30.09c.08-1.88,1.24-3.32,2-4.93l3-3c2.21-.24,3.19.75,3,2.95l-3.06,3C67.2,29.1,65.88,30.49,63.83,30.09Z"/><path class="cls-7" d="M71.74,25.14a6.11,6.11,0,0,0-3-2.95c-1.75-2.34.14-3.25,1.69-4.29.41.43.81.86,1.22,1.28s.72.7,1,1.07l0-.06c.34.35.69.69,1,1l0-.06c.37.35.7.73,1,1.1l.83.93C74.63,24.54,74.23,26.91,71.74,25.14Z"/><path class="cls-8" d="M72.74,20.25l-1-1.07Z"/><path class="cls-9" d="M73.73,21.24l-1-1Z"/><path class="cls-10" d="M74.72,22.28l-1-1.1Z"/></svg>