<svg id="Capa_3" data-name="Capa 3" xmlns="http://www.w3.org/2000/svg" viewBox="0 0 92.53 117.81"><defs><style>.cls-1{fill:#161616;stroke:#161616;stroke-miterlimit:10;}</style></defs><path class="cls-1" d="M61,55.77a23.58,23.58,0,0,1,3.56.24C75.73,57.7,85.67,63.33,89.73,74a30.11,30.11,0,0,1,2,10.81c0,.5,0,1,0,1.48-.37,12-6.48,20.9-17.21,26.39l-.75.37a40.34,40.34,0,0,1-17.27,3.76H45.77l1-8h6.81a41.59,41.59,0,0,0,20.76-5.44h0a14.23,14.23,0,0,0,4.89-4.68,24.27,24.27,0,0,0,3.51-12.87c0-6-1-11-5-15a16.79,16.79,0,0,0-3.57-2.62A26.48,26.48,0,0,0,61,64.77H50.77l-10.57.59a47.55,47.55,0,0,1-9.83-.45,39.33,39.33,0,0,1-7.83-2.15,29.79,29.79,0,0,1-11.77-7c-9-9-10-17-10-24s4-20,17-27,30-2,30-2l-2,8a28.72,28.72,0,0,0-26,4h0a23,23,0,0,0,0,35.77l.26.21A25.2,25.2,0,0,0,36,56.17l.56,0c8.14-.36,16.3-.38,24.46-.38Z"/><path class="cls-1" d="M45.39,55.88l6.33-27.72L69.23,56h0A51.81,51.81,0,0,1,81,61.68l.75.48L48.56,3.77S36.41,53,35.73,56l-2.3,9.31L28.7,84.41l9,3L43,65.55Z"/></svg>