<svg id="Capa_1" data-name="Capa 1" xmlns="http://www.w3.org/2000/svg" viewBox="0 0 100 100"><defs><style>.cls-1{fill:#0d61a9;}.cls-2{fill:#2cb5ec;}.cls-3{fill:#fac542;}.cls-4{fill:#50e6ff;}.cls-5{fill:#35c1f1;}.cls-6{fill:#199be2;}</style></defs><path class="cls-1" d="M73.17,59.77V88.48s.53,4.37,3.5,4.47,10,0,10,0,4.56-.2,4.56-4.57V59.77Z"/><path class="cls-2" d="M91.22,59.77h-18V44.1H66.42a18.27,18.27,0,0,1,3.94-11.46c1.74-2.17,3.94-4,6.34-4H88.25c2.29,0,4.52,2.26,6.26,4.71a18.7,18.7,0,0,1,3.42,10.88H91.36Z"/><path class="cls-3" d="M66.42,44.19h6.81V64.12a4.24,4.24,0,0,1-3.4,2.25,4.25,4.25,0,0,1-3.41-2.25Z"/><path class="cls-3" d="M91.19,44.19H98V64.12a3.7,3.7,0,0,1-6.81,0Z"/><ellipse class="cls-3" cx="82.18" cy="16.21" rx="9.38" ry="9.21"/><path class="cls-4" d="M33.8,49.66V93H49.69V49.66s0-.95-1.52-.95H35S33.8,48.65,33.8,49.66Z"/><path class="cls-5" d="M17.9,64.91V93H33.8V64.91s0-.62-1.52-.62H19.13S17.9,64.26,17.9,64.91Z"/><path class="cls-6" d="M2,77.94V93H17.9V77.94s0-.33-1.52-.33H3.24S2,77.59,2,77.94Z"/><path class="cls-4" d="M41.53,13.21H23.19a.27.27,0,0,0-.21.46l6.4,6.79L9.43,40.25a1.4,1.4,0,0,0,0,2l3.26,3.11a1.46,1.46,0,0,0,2,0L35,26l7.19,5.93a.31.31,0,0,0,.51-.23V14.34A1.14,1.14,0,0,0,41.53,13.21Z"/></svg>