<svg width="80" height="80" viewBox="0 0 80 80" fill="none" xmlns="http://www.w3.org/2000/svg">
<path d="M80 77.1657C80 79.2194 79.2468 79.9535 77.1031 79.9535C74.4573 79.9535 71.8179 79.9535 69.1849 79.9535C67.186 79.9535 66.3846 79.1729 66.3846 77.2493V15.8797C66.3846 14.0211 67.1957 13.2126 69.1173 13.2033C71.8211 13.2033 74.5249 13.2033 77.2286 13.2033C79.1599 13.2033 79.971 14.0025 79.971 15.8704L80 77.1657ZM69.5036 16.1677V77.0449H76.9389V16.1677H69.5036Z" fill="#5F5751"/>
<path d="M49.8143 55.2347V33.3687C49.8143 31.3894 50.5964 30.6366 52.6629 30.6273C55.3087 30.6273 57.9481 30.6273 60.5811 30.6273C62.5896 30.6273 63.4007 31.4079 63.4007 33.3223V77.3051C63.4007 79.2194 62.5993 79.9907 60.5908 80C57.9514 80 55.312 80 52.6726 80C50.5964 80 49.7757 79.2473 49.7757 77.2679L49.8143 55.2347ZM60.2721 77.0449V33.5917H52.885V77.0449H60.2721Z" fill="#5F5751"/>
<path d="M64.4243 3.4552L61.3922 3.99418C60.2335 4.19862 59.461 3.78974 59.2582 2.90692C59.0554 2.02411 59.6637 1.34573 60.8128 1.14129L66.6067 0.0912038C68.2193 -0.196873 68.7504 0.156254 69.069 1.74532C69.4553 3.67822 69.8319 5.61113 70.1795 7.54403C70.2432 7.73877 70.2635 7.94426 70.239 8.14707C70.2145 8.34987 70.1458 8.5454 70.0373 8.72086C69.9288 8.89632 69.783 9.04775 69.6095 9.16523C69.436 9.28271 69.2386 9.3636 69.0304 9.40259C68.1806 9.56986 67.4757 9.05876 67.244 8.06443C67.0605 7.24666 66.9157 6.4196 66.7129 5.41598C66.4039 5.87133 66.1818 6.18728 65.9693 6.51253C53.9959 24.8854 37.0202 39.7499 16.8861 49.4917C12.4732 51.6384 7.80919 53.3111 3.26105 55.1975L2.81686 55.3555C2.62863 55.4336 2.42621 55.4752 2.22124 55.4777C2.01627 55.4803 1.8128 55.4438 1.62253 55.3704C1.43227 55.297 1.25897 55.1881 1.11261 55.0499C0.966247 54.9118 0.849714 54.7472 0.769713 54.5656C0.691821 54.3741 0.656867 54.169 0.667144 53.9636C0.677421 53.7582 0.732697 53.5572 0.829347 53.3738C0.925996 53.1904 1.06184 53.0288 1.22796 52.8994C1.39408 52.7701 1.58673 52.676 1.79328 52.6234C3.48314 51.9822 5.19232 51.3875 6.87252 50.7184C25.177 43.542 41.357 32.1271 53.9762 17.4873C57.5679 13.3599 60.8528 8.99383 63.8063 4.42165C63.9898 4.15216 64.1346 3.87337 64.4243 3.4552Z" fill="#5F5751"/>
<path d="M33.2343 47.8097C33.2343 45.9512 34.0358 45.1613 35.9767 45.152H44.0881C46.0193 45.152 46.8112 45.9605 46.8112 47.8283C46.8112 57.6477 46.8112 67.4702 46.8112 77.2958C46.8112 79.2194 46.0193 79.9907 44.0205 80C41.3553 80 38.6805 80 36.0154 80C33.9972 79.9535 33.2343 79.2194 33.2343 77.2865V47.8097ZM36.2954 48.1071V77.0356H43.7598V48.1071H36.2954Z" fill="#5F5751"/>
<path d="M30.1926 66.9436C30.1926 70.4191 30.1926 73.8946 30.1926 77.3701C30.1926 79.1636 29.3718 79.9721 27.4985 79.9814C24.7625 79.9814 22.0298 79.9814 19.3002 79.9814C17.4269 79.9814 16.6158 79.1636 16.6158 77.3608C16.6158 70.385 16.6158 63.4062 16.6158 56.4242C16.6158 54.6771 17.4462 53.8593 19.2616 53.8501C22.0233 53.8501 24.7883 53.8501 27.5564 53.8501C29.3621 53.8501 30.1926 54.6771 30.1926 56.4242C30.2022 59.9461 30.1926 63.4588 30.1926 66.9436ZM19.7155 56.8237V77.0356H27.1702V56.8237H19.7155Z" fill="#5F5751"/>
<path d="M13.5933 71.3577C13.5933 73.4114 13.5933 75.4651 13.5933 77.5188C13.6348 77.8514 13.5966 78.1887 13.4816 78.5049C13.3666 78.8211 13.1779 79.1077 12.9299 79.3427C12.6819 79.5778 12.3812 79.7551 12.051 79.861C11.7207 79.9668 11.3697 79.9985 11.0247 79.9535C8.19544 79.9535 5.37579 79.9535 2.54648 79.9535C2.20504 79.9939 1.85853 79.959 1.53316 79.8515C1.20779 79.744 0.912068 79.5668 0.668355 79.3331C0.424641 79.0995 0.239315 78.8156 0.126389 78.5029C0.013463 78.1902 -0.024107 77.8568 0.0165183 77.5281C0.0165183 73.3587 0.0165183 69.1894 0.0165183 65.02C-0.0245786 64.694 0.0112483 64.3633 0.121333 64.0525C0.231418 63.7416 0.412926 63.4587 0.652349 63.2247C0.891773 62.9907 1.18295 62.8117 1.5042 62.701C1.82545 62.5903 2.16852 62.5508 2.50785 62.5853C5.36613 62.5853 8.22441 62.5853 11.0827 62.5853C12.7532 62.5853 13.5837 63.5146 13.5933 65.1036C13.603 67.1852 13.5933 69.2668 13.5933 71.3577ZM10.5323 77.0449V65.5404H3.09689V77.0449H10.5323Z" fill="#5F5751"/>
</svg>
