<svg width="100" height="100" viewBox="0 0 100 100" fill="none" xmlns="http://www.w3.org/2000/svg">
<path d="M2 59.7587C4.38298 59.7587 9.35319 58.6502 10.1702 54.2165C10.2414 53.8303 10.2976 53.4609 10.3404 53.108M10.3404 53.108C10.7892 49.4091 9.77049 47.5175 9.14894 47.0116C7.2766 46.6421 3.53191 46.5682 3.53191 49.2285C3.53191 52.5538 5.06383 53.108 7.10638 53.108H10.3404ZM10.3404 53.108H14.2553M14.2553 53.108V48.12C14.4255 43.3168 17.217 33.2669 27.0213 31.4934M14.2553 53.108V65.8551C14.2553 67.333 14.766 70.8431 16.8085 73.06C18.8511 75.2769 25.8298 82.1123 29.0638 85.2529V93.012C29.0638 94.6747 29.6766 98 32.1277 98H38.766C39.9574 97.8153 42.3404 97.0024 42.3404 95.2289V89.1324H60.7234V95.2289C60.7234 96.1526 61.1319 98 62.766 98H70.9362C71.617 97.8153 72.9787 97.0024 72.9787 95.2289V89.1324C73.1489 87.4698 74.1021 83.8119 76.5532 82.4818C79.617 80.8191 86.2553 73.6142 87.2766 71.3973C88.0936 69.6238 91.7021 68.811 93.4043 68.6262C94.9362 68.811 98 68.4045 98 65.3009V55.8791C97.6596 54.4012 95.9575 51.88 93.4043 51.4454C90.5792 50.9645 84.2128 43.132 82.6808 39.2525M82.6808 39.2525C82.1702 41.2846 79.5149 45.3489 72.9787 45.3489C66.4426 45.3489 64.8085 38.6983 64.8085 35.3729C64.8085 31.0348 64.8085 30.8195 65.3191 28.6026C65.5196 27.7326 78.0851 22.6258 78.0851 22.6258C81.7617 20.8523 82.6808 22.9953 82.6808 24.2885V39.2525ZM75.5319 51.4454C75.5319 52.7385 76.2468 55.3249 79.1064 55.3249C80.1277 55.3249 82.1702 54.549 82.1702 51.4454M41.8298 26.94C42.8511 28.0484 43.8723 29.7111 46.9362 29.7111M46.9362 29.7111C50 29.7111 51.0213 27.4942 51.0213 25.2773C51.0213 23.0604 50 20.8435 46.9362 20.8435M46.9362 29.7111V20.8435M46.9362 29.7111V33.0364M46.9362 20.8435C43.8723 20.8435 42.3404 18.6267 42.3404 16.4098C42.3404 14.1929 44.2336 12.5302 46.9362 12.5302M46.9362 20.8435V12.5302M46.9362 12.5302C49.6387 12.5302 51.0213 14.1929 51.0213 14.1929M46.9362 12.5302V8.65066M64.2979 21.3978C64.2979 32.1109 56.2962 40.7955 46.4255 40.7955C36.5549 40.7955 28.5532 32.1109 28.5532 21.3978C28.5532 10.6847 36.5549 2 46.4255 2C56.2962 2 64.2979 10.6847 64.2979 21.3978Z" stroke="#5F5751" stroke-width="3" stroke-linecap="round"/>
</svg>
