<svg width="96" height="70" viewBox="0 0 96 70" fill="none" xmlns="http://www.w3.org/2000/svg">
<path d="M96 66.4728C95.9354 66.5706 95.8783 66.6729 95.8291 66.779C95.5596 67.7538 94.9545 68.6065 94.117 69.1919C93.2795 69.7774 92.2614 70.0593 91.2362 69.9896H64.0303C44.4223 69.9896 24.8345 69.9896 5.2064 69.9896C4.51067 70.0303 3.81409 69.925 3.1629 69.6809C2.51171 69.4367 1.9208 69.0592 1.4294 68.5734C0.938001 68.0875 0.557347 67.5046 0.312705 66.8631C0.0680639 66.2216 -0.0349693 65.5363 0.0104446 64.8527C0.0908462 51.5956 0.0104446 38.3384 0.0104446 25.0813C0.0104446 21.8608 1.20642 20.5865 4.41244 19.8159C8.29182 18.8281 12.1109 17.7315 15.9501 16.6745L75.6986 0.246338C78.7136 -0.583469 81.0151 0.710634 81.7991 3.71374C82.2413 5.40299 82.6734 7.09224 83.1257 8.84076L85.196 8.57404C85.7988 8.47802 86.4152 8.50381 87.0075 8.64983C87.5999 8.79585 88.1557 9.05904 88.641 9.42331C89.1264 9.78759 89.5311 10.2453 89.8304 10.7685C90.1297 11.2917 90.3174 11.8694 90.3819 12.4662L91.3267 19.8258C91.588 19.8258 91.8493 19.9345 92.1206 19.974C93.0319 20.1159 93.8824 20.5128 94.5704 21.1171C95.2583 21.7215 95.7546 22.5079 96 23.3821V66.4728ZM90.794 67.0458C92.603 67.0458 93.005 66.6506 93.005 64.9021V25.0319C93.005 23.2833 92.5729 22.8487 90.8141 22.8487H5.29685C3.51797 22.8487 3.08581 23.2735 3.08581 25.0121V64.8823C3.08581 66.6506 3.47777 67.0458 5.27675 67.0458H90.794ZM88.2814 19.8555C87.9699 17.4451 87.6885 15.1335 87.3669 12.8317C87.3564 12.6149 87.2967 12.4032 87.192 12.2121C87.0873 12.021 86.9404 11.8554 86.762 11.7274C86.5836 11.5995 86.3784 11.5125 86.1613 11.4728C85.9442 11.4331 85.7208 11.4418 85.5076 11.4981L62.0906 14.7778L26.8445 19.7567V19.8555H88.2814ZM28.1912 16.4276V16.5856L80.1106 9.27542C79.6986 7.69484 79.3368 6.31183 78.9749 4.84979C78.4724 2.87406 77.9699 2.65673 76.0604 3.20005L34.8847 14.5704L28.1912 16.4276Z" fill="#5F5751"/>
<path d="M48.0504 64.092C44.1978 64.092 40.4316 62.969 37.2284 60.8649C34.0252 58.7608 31.5287 55.7702 30.0548 52.2714C28.5809 48.7725 28.1958 44.9226 28.9481 41.2086C29.7005 37.4946 31.5565 34.0834 34.2815 31.4063C37.0064 28.7292 40.4779 26.9067 44.2568 26.1691C48.0357 25.4315 51.9522 25.812 55.5111 27.2626C59.0699 28.7131 62.1111 31.1685 64.2501 34.3181C66.3891 37.4678 67.5297 41.1702 67.5278 44.9571C67.5251 50.0329 65.4718 54.8999 61.8194 58.4882C58.167 62.0764 53.2144 64.092 48.0504 64.092ZM48.0504 61.1285C51.3112 61.1265 54.4981 60.1739 57.2079 58.3912C59.9178 56.6085 62.0288 54.0759 63.2738 51.1136C64.5189 48.1514 64.8421 44.8927 64.2026 41.7499C63.563 38.607 61.9894 35.7213 59.6809 33.4577C57.3724 31.1941 54.4327 29.6544 51.2337 29.0335C48.0348 28.4125 44.7203 28.7381 41.7096 29.9692C38.699 31.2002 36.1275 33.2814 34.3205 35.9493C32.5134 38.6172 31.5521 41.752 31.5581 44.9571C31.5634 49.2462 33.2978 53.3585 36.3814 56.3932C39.4651 59.4279 43.6466 61.1378 48.0102 61.1482L48.0504 61.1285Z" fill="#5F5751"/>
<path d="M86.9548 32.9941C85.9305 32.701 84.9991 32.1563 84.2482 31.4114C83.4974 30.6665 82.952 29.7459 82.6634 28.7364H75.5277C72.0001 28.7364 68.4926 28.7364 64.9449 28.7364C63.7388 28.7364 63.0655 28.2326 63.0353 27.3237C63.0052 26.4149 63.7288 25.7925 64.9549 25.7925H83.588C84.9046 25.7925 85.3669 26.2173 85.5176 27.5114C85.5785 28.2049 85.8858 28.8552 86.3857 29.3483C86.8855 29.8415 87.546 30.1459 88.2513 30.2083C89.5779 30.3466 90.0101 30.801 90.0101 32.0951V57.7994C90.0101 59.1231 89.6282 59.538 88.3015 59.7059C87.5761 59.7593 86.8947 60.0687 86.3831 60.577C85.8715 61.0853 85.5641 61.7584 85.5176 62.472C85.3769 63.6772 84.9347 64.1118 83.7287 64.1118H64.8142C63.6986 64.1118 63.0353 63.5487 63.0353 62.6596C63.0353 61.7706 63.7087 61.1778 64.8142 61.1778C70.4323 61.1778 76.0503 61.1778 81.6684 61.1778C82.3619 61.1778 82.7639 61.0593 83.0352 60.3382C83.3438 59.5967 83.8062 58.9266 84.3927 58.3704C84.9793 57.8143 85.6773 57.3843 86.4423 57.1078C86.5854 57.0322 86.7089 56.9251 86.803 56.7949C86.8972 56.6647 86.9594 56.5148 86.985 56.3571C86.985 48.6517 86.985 40.9563 86.985 33.2509C87.0051 33.1719 86.9749 33.1027 86.9548 32.9941Z" fill="#5F5751"/>
<path d="M13.4174 28.7364C13.1264 29.7548 12.5744 30.6829 11.8143 31.4318C11.0541 32.1807 10.1112 32.7254 9.07573 33.0138V38.4767C9.07573 44.3051 9.07573 50.1335 9.07573 55.9619C9.07573 56.6139 9.17624 56.9498 9.89985 57.2363C10.6238 57.4908 11.2819 57.8988 11.8273 58.4315C12.3727 58.9642 12.7921 59.6084 13.0556 60.3184C13.1339 60.6039 13.3198 60.8495 13.5754 61.0054C13.8311 61.1613 14.1374 61.2159 14.4325 61.1581C19.8898 61.1581 25.3571 61.1581 30.8143 61.1581C31.0955 61.1433 31.3774 61.1433 31.6586 61.1581C32.0541 61.1909 32.4208 61.3748 32.6801 61.6702C32.9394 61.9657 33.0705 62.3493 33.0455 62.7387C33.0272 63.1108 32.8612 63.461 32.583 63.714C32.3049 63.9671 31.9369 64.1028 31.5581 64.092C30.744 64.092 29.9299 64.092 29.1259 64.092H12.5431C11.126 64.092 10.734 63.7463 10.533 62.3633C10.466 61.6656 10.1495 61.0137 9.63982 60.5236C9.13015 60.0335 8.46026 59.7368 7.74911 59.6862C6.41243 59.5182 6.04057 59.1132 6.04057 57.7796V32.1149C6.04057 30.8109 6.47273 30.3565 7.78931 30.2182C8.49463 30.1558 9.15511 29.8513 9.65494 29.3582C10.1548 28.8651 10.4621 28.2148 10.523 27.5213C10.6737 26.2568 11.126 25.8123 12.3521 25.8123H31.2163C31.9199 25.8123 32.6033 25.9506 32.8445 26.6421C32.931 26.8727 32.9667 27.1187 32.9494 27.3639C32.9321 27.6092 32.8621 27.848 32.744 28.0646C32.3148 28.4748 31.7443 28.7111 31.146 28.7265C25.5882 28.7759 20.0305 28.7265 14.4727 28.7265L13.4174 28.7364Z" fill="#5F5751"/>
<path d="M18.0305 49.363C16.8469 49.3552 15.7145 48.8875 14.8804 48.0621C14.0463 47.2367 13.5782 46.1205 13.5782 44.9571C13.5743 44.0812 13.8354 43.224 14.3284 42.4944C14.8214 41.7648 15.524 41.1958 16.3469 40.8597C17.1698 40.5237 18.0758 40.4357 18.9496 40.6071C19.8235 40.7785 20.6257 41.2014 21.2544 41.8222C21.8831 42.4429 22.3097 43.2334 22.4802 44.0931C22.6506 44.9528 22.557 45.8429 22.2114 46.6502C21.8658 47.4575 21.2838 48.1455 20.5393 48.6268C19.7948 49.1081 18.9215 49.3609 18.0305 49.3531V49.363ZM19.5581 44.9571C19.5548 44.7625 19.5125 44.5705 19.4337 44.3919C19.3549 44.2134 19.2411 44.0519 19.0988 43.9166C18.9565 43.7812 18.7884 43.6748 18.6043 43.6033C18.4201 43.5319 18.2234 43.4968 18.0254 43.5C17.8275 43.5033 17.6321 43.5448 17.4505 43.6223C17.2688 43.6997 17.1045 43.8116 16.9668 43.9515C16.8292 44.0914 16.7209 44.2565 16.6482 44.4376C16.5755 44.6186 16.5397 44.8119 16.543 45.0065C16.5497 45.3995 16.7149 45.7738 17.0024 46.0471C17.2898 46.3203 17.6759 46.4702 18.0757 46.4636C18.4755 46.4571 18.8563 46.2947 19.1343 46.0121C19.4123 45.7296 19.5648 45.3501 19.5581 44.9571Z" fill="#5F5751"/>
<path d="M77.9599 49.363C76.7798 49.35 75.6526 48.8801 74.8228 48.0552C73.993 47.2303 73.5277 46.1171 73.5277 44.9571C73.5278 44.0812 73.7929 43.2252 74.2892 42.4978C74.7856 41.7704 75.4908 41.2045 76.3152 40.8721C77.1396 40.5397 78.046 40.4558 78.919 40.631C79.7921 40.8063 80.5924 41.2328 81.2182 41.8563C81.844 42.4798 82.2671 43.2721 82.4335 44.1325C82.6 44.993 82.5024 45.8827 82.1531 46.6884C81.8038 47.4942 81.2186 48.1797 80.472 48.6577C79.7253 49.1357 78.8509 49.3846 77.9599 49.3729V49.363ZM77.9599 46.3994C78.1592 46.4101 78.3587 46.3808 78.5461 46.3131C78.7335 46.2455 78.9049 46.141 79.0498 46.0059C79.1947 45.8709 79.31 45.7083 79.3887 45.5279C79.4675 45.3476 79.5079 45.1533 79.5076 44.9571C79.5076 44.5641 79.3488 44.1872 79.0661 43.9093C78.7833 43.6314 78.3999 43.4753 78.0001 43.4753C77.6003 43.4753 77.2168 43.6314 76.9341 43.9093C76.6514 44.1872 76.4925 44.5641 76.4925 44.9571C76.4925 45.1512 76.532 45.3433 76.6087 45.5221C76.6855 45.7009 76.7979 45.8628 76.9394 45.9982C77.0808 46.1335 77.2485 46.2397 77.4324 46.3103C77.6163 46.3809 77.8128 46.4146 78.0101 46.4093L77.9599 46.3994Z" fill="#5F5751"/>
<path d="M49.5881 55.1025C49.4173 57.6413 49.1459 58.1846 48.0605 58.1945C46.9751 58.2044 46.6434 57.6215 46.5128 55.1815C45.8689 54.8916 45.2445 54.5617 44.6434 54.1936C43.885 53.7002 43.2558 53.0377 42.807 52.2601C42.3581 51.4825 42.1024 50.6117 42.0605 49.7186C42.0235 49.5085 42.0313 49.2932 42.0833 49.0863C42.1353 48.8793 42.2304 48.6852 42.3627 48.5162C42.4949 48.3472 42.6614 48.2071 42.8516 48.1045C43.0418 48.002 43.2515 47.9394 43.4676 47.9207C44.3118 47.9207 44.9349 48.4937 45.0454 49.5013C45.0561 50.2873 45.384 51.0369 45.957 51.5853C46.5299 52.1337 47.3011 52.4358 48.1007 52.4254C48.9003 52.4149 49.663 52.0926 50.2209 51.5294C50.7788 50.9662 51.0862 50.2082 51.0756 49.4223C51.0756 48.6363 50.7579 47.8825 50.1925 47.3267C49.627 46.7709 48.8601 46.4587 48.0605 46.4587C46.6583 46.4628 45.2993 45.9825 44.2209 45.1017C43.1424 44.2208 42.4132 42.9955 42.1606 41.6399C41.908 40.2842 42.148 38.8844 42.8389 37.685C43.5297 36.4857 44.6273 35.5631 45.9399 35.0785C46.1326 35.0357 46.3009 34.9213 46.4096 34.7592C46.5183 34.5972 46.5588 34.4 46.5228 34.2091C46.4877 33.8411 46.4877 33.4707 46.5228 33.1027C46.5486 32.7307 46.7201 32.3829 47.0012 32.1324C47.2822 31.8819 47.6511 31.7481 48.0303 31.7592C48.8444 31.8185 49.5278 32.2927 49.4474 33.0632C49.2967 34.4561 49.9499 35.0389 51.1158 35.6218C51.9542 36.0637 52.6599 36.7141 53.1625 37.5081C53.6652 38.302 53.9471 39.2117 53.9801 40.1462C54.0705 41.223 53.5278 41.9244 52.6132 41.9935C51.6987 42.0627 51.1158 41.4897 50.9952 40.3734C50.9167 39.6624 50.5793 39.0032 50.0452 38.5174C49.5111 38.0317 48.8163 37.7523 48.089 37.7306C47.3617 37.7089 46.6509 37.9465 46.0879 38.3996C45.5248 38.8526 45.1474 39.4905 45.0253 40.1956C44.9471 40.9047 45.1317 41.6178 45.5453 42.2039C45.9588 42.79 46.5735 43.2099 47.2766 43.3864C47.7791 43.5049 48.3319 43.4753 48.8444 43.5543C50.1364 43.7706 51.3216 44.3947 52.2205 45.3323C53.1194 46.2698 53.6831 47.4696 53.8262 48.7502C53.9693 50.0308 53.6841 51.3223 53.0137 52.4292C52.3433 53.5362 51.3242 54.3984 50.1107 54.8852L49.5881 55.1025Z" fill="#5F5751"/>
</svg>
