<svg width="100" height="100" viewBox="0 0 100 100" fill="none" xmlns="http://www.w3.org/2000/svg">
<path d="M16.4166 69.0067V62.5638H2V98H16.4166V92.8456M16.4166 69.0067C18.2186 67.9329 21.0314 66.5233 24.2256 65.7852C28.5827 64.7785 31.2842 64.7652 35.6387 65.7852C39.6412 66.7228 41.2921 69.1597 45.2497 70.2953C52.0482 72.246 56.8075 67.308 63.2704 70.2953C67.7117 72.3481 72.8815 73.5168 72.8815 78.6711M16.4166 69.0067V92.8456M72.8815 78.6711C73.0817 79.9597 72.2808 82.5369 67.4753 82.5369H49.4546M72.8815 78.6711L87.8988 70.2953C90.1013 69.2215 97.5098 71.5839 97.5098 71.5839C97.5098 71.5839 99.7924 73.6456 94.5064 76.7383L65.0725 96.7114C61.6686 98.4295 52.8295 98.3988 45.2497 96.7114C40.8917 95.7412 38.8018 93.7819 34.4373 92.8456C27.5364 91.3653 17.3777 88.7221 16.4166 92.8456M64.4718 24.9725C64.4718 21.6399 64.4718 17.6408 57.9274 17.6408M57.9274 17.6408C53.5645 17.6408 52.4738 21.6908 52.4738 24.9725C52.4738 28.305 52.4738 32.3041 57.9274 32.3041C64.4718 32.3041 64.4718 36.3032 64.4718 38.9692C64.4718 41.6353 64.4718 45.6343 57.9274 45.6343M57.9274 17.6408V12.3087M57.9274 45.6343C52.4739 45.6343 52.3865 40.9688 52.4738 38.3027M57.9274 45.6343V50.9664M86.0967 31.6376C86.0967 48.006 73.7255 61.2752 58.4649 61.2752C43.2043 61.2752 30.8331 48.006 30.8331 31.6376C30.8331 15.2692 43.2043 2 58.4649 2C73.7255 2 86.0967 15.2692 86.0967 31.6376Z" stroke="#5F5751" stroke-width="3" stroke-linecap="round"/>
</svg>
