<?xml version="1.0" encoding="utf-8"?>
<!-- Generator: Adobe Illustrator 26.2.1, SVG Export Plug-In . SVG Version: 6.00 Build 0)  -->
<svg version="1.1" id="Capa_1" xmlns="http://www.w3.org/2000/svg" xmlns:xlink="http://www.w3.org/1999/xlink" x="0px" y="0px"
	 viewBox="0 0 485 333" style="enable-background:new 0 0 485 333;" xml:space="preserve">
<style type="text/css">
	.st0{fill:#0199DD;}
	.st1{fill:#018FD8;}
	.st2{fill:#018EDA;}
	.st3{fill:#008ED9;}
	.st4{fill:#FDFEFE;}
	.st5{fill:#FEFEFE;}
	.st6{fill:#0096D9;}
	.st7{fill:#008EDC;}
	.st8{fill:#028EDC;}
	.st9{fill:#018ED7;}
	.st10{fill:#0090DE;}
	.st11{fill:#008EDA;}
	.st12{fill:#0291DA;}
	.st13{fill:#0090D8;}
	.st14{fill:#0198DF;}
	.st15{fill:#0198DF;stroke:#0198DF;stroke-width:3.5;stroke-miterlimit:10;}
	.st16{fill:#022C76;}
</style>
<g>
	<g>
		<path class="st0" d="M168,149.1c-9.7-1.3-16.9-8.7-16.9-18.4c-0.1-28.7-0.1-57.5,0-86.2c0-9.5,7.1-16.9,17-18.3
			c1.2,0.7,2.6,0.4,3.9,0.4c42.4,0,84.7,0,127.1,0c1.3,0,2.7,0.3,3.9-0.4c10,1.6,16.1,8,16.9,18c-0.6,1.1-0.4,2.3-0.4,3.4
			c0,26.4,0,52.7,0,79.1c0,1.1-0.2,2.3,0.4,3.4c0,10.2-6.6,17.7-16.8,19.1C258,148.9,213,149,168,149.1z"/>
		<path class="st1" d="M168,149.1c1.4-1.7,3.4-1.1,5.1-1.1c41.6,0,83.2,0,124.8,0c1.7,0,3.7-0.7,5.1,1.1c-1.9,1-3.9,0.5-5.9,0.5
			c-41.1,0-82.2,0-123.3,0C171.9,149.7,169.9,150,168,149.1z"/>
		<path class="st2" d="M303,26.1c-1.5,1.5-3.5,0.9-5.2,0.9c-41.5,0-83,0-124.5,0c-1.8,0-3.7,0.6-5.2-0.9c2.5-0.1,5-0.3,7.4-0.3
			c40.8,0,81.7,0,122.5,0C299.7,25.9,301.3,26,303,26.1z"/>
		<path class="st3" d="M319.9,130c-1.3-1.2-0.9-2.8-0.9-4.2c0-25.8,0-51.6,0-77.4c0-1.5-0.4-3,0.9-4.2
			C319.9,72.7,319.9,101.4,319.9,130z"/>
		<path class="st4" d="M303.9,41.1c1.7,1.9,1.8,4.2,1.8,6.5c0,26.8,0,53.6,0,80.4c0,5.8-1.2,6.9-7.1,7c-2.8,0-5.7-0.1-8.5,0
			c-2.9,0.2-5.2-0.6-6.8-3.1c-1.3-0.8-0.8-2.1-0.8-3.2c0-24.7,0-49.5,0-74.2c0-0.8,0-1.7,0.3-2.4c-0.2-1.7-1.3-2.6-2.9-2.8
			c-8.6,0.5-17.3,0.6-25.9,0c-3.4,0.7-3.7,3-3.2,5.8c1.1,4.3,0.7,8.5,0,12.8c-1.1,3.9-3.5,5.5-7.7,5.2c-4.9-0.3-9.9-0.2-14.8,0
			c-3.3,0.1-5.7-0.9-7.2-4c-1.1-8.2-1.1-16.5,0-24.7c1.5-3.7,4.6-4.2,8.1-4.2c24.2,0,48.4-0.1,72.7-0.1
			C303.1,39.5,303.6,40.2,303.9,41.1z"/>
		<path class="st5" d="M220.1,123.2c1.3-4.7,0.5-9.4,0.5-14.1c0-3.1,0.9-5.4,3.7-6.9c7.2-1.1,14.3-1.1,21.5,0
			c3.6,1.4,4.1,4.5,4.2,7.8c0.8,7,0.9,14-0.1,21c-1.4,3.1-3.8,4-7.2,4c-23.5-0.1-46.9-0.1-70.4-0.1c-5.7,0-7-1.3-7-7.1
			c0-26.8,0-53.6,0-80.4c0-5.9,1.5-7.3,7.4-7.3c2.5,0,5,0,7.5,0c6.3,0,7.6,1.4,7.6,7.6c0,23.8,0,47.6,0,71.4c0,2.7-0.6,5.9,3.2,6.9
			c9-0.9,17.9-0.4,26.9-0.2c1-0.2,1.8-0.6,1.9-1.8C219.6,123.6,219.6,123.3,220.1,123.2z"/>
		<path class="st6" d="M303.9,41.1c-0.6-0.4-1.3-0.7-1.9-1.1c-1.5-1.6-3.4-1-5.2-1c-21.6,0-43.2,0-64.8,0c-1.6,0-3.2,0-5.2,0
			c1-1.4,2.1-1,2.9-1c23.3,0,46.5-0.1,69.8,0.1C301.3,38.1,304.9,36.5,303.9,41.1z"/>
		<path class="st7" d="M282.8,52.1c0.9,3.5,0.4,7,0.4,10.4c0.1,23.1,0.1,46.3,0.1,69.4c-1.6-0.7-1.3-2.2-1.3-3.4
			c0-24.6,0-49.1,0-73.7C282,53.8,282,52.8,282.8,52.1z"/>
		<path class="st8" d="M217.9,125.8c-9,1.3-17.9,0.9-26.9,0.2c3.7-2,7.8-0.9,11.7-0.9C207.8,125.1,212.9,124.2,217.9,125.8z"/>
		<path class="st9" d="M221.2,44.3c0,8.2,0,16.5,0,24.7c-2.2-1.9-1-4.4-1.1-6.6c-0.2-6,0-12,0-18c0-0.1,0.2-0.3,0.3-0.3
			C220.6,44.1,220.9,44.2,221.2,44.3z"/>
		<path class="st10" d="M254,49.2c8.6-0.4,17.3-0.5,25.9,0C271.3,50.6,262.7,50.6,254,49.2z"/>
		<path class="st11" d="M245.7,102.2c-7.2,0-14.3,0-21.5,0c-0.4-0.4-0.4-1.1,0.1-1.1c7.1-0.1,14.2-0.1,21.3,0c0.1,0,0.3,0.2,0.3,0.3
			C245.9,101.6,245.8,101.9,245.7,102.2z"/>
		<path class="st12" d="M249.9,131c0-7,0.1-14,0.1-21C251.6,117,251.7,124,249.9,131z"/>
		<path class="st13" d="M220.1,123.2c0.1,0.3,0.1,0.6-0.2,0.8c-1.8-5.6-0.4-11.3,0.2-16.9C220.1,112.4,220.1,117.8,220.1,123.2z"/>
	</g>
	<g>
		<g>
			<g>
				<g>
					<path class="st14" d="M142.2,273.3c-0.1-1.1-0.6-1.9-1.5-2.5c-0.9-0.6-2-0.9-3.3-0.9c-1,0-1.8,0.1-2.5,0.4
						c-0.7,0.3-1.2,0.7-1.6,1.2c-0.4,0.5-0.5,1.1-0.6,1.7c0,0.5,0.1,1,0.4,1.4c0.2,0.4,0.6,0.7,1,1c0.4,0.3,0.9,0.5,1.4,0.7
						c0.5,0.2,1,0.3,1.5,0.5l2.4,0.6c1,0.2,1.9,0.5,2.8,0.9c0.9,0.4,1.7,0.9,2.4,1.5c0.7,0.6,1.3,1.3,1.7,2.1
						c0.4,0.8,0.6,1.8,0.6,2.9c0,1.5-0.4,2.8-1.1,4c-0.8,1.1-1.9,2-3.3,2.7c-1.4,0.6-3.2,1-5.2,1c-2,0-3.7-0.3-5.1-0.9
						s-2.6-1.5-3.4-2.7c-0.8-1.2-1.2-2.6-1.3-4.3h4.5c0.1,0.9,0.3,1.6,0.8,2.2c0.5,0.6,1.1,1,1.9,1.3c0.8,0.3,1.6,0.4,2.6,0.4
						c1,0,1.9-0.2,2.6-0.5c0.8-0.3,1.3-0.7,1.8-1.3c0.4-0.5,0.6-1.2,0.7-1.9c0-0.7-0.2-1.2-0.6-1.7c-0.4-0.4-0.9-0.8-1.6-1.1
						c-0.7-0.3-1.5-0.6-2.4-0.8l-2.9-0.8c-2.1-0.5-3.7-1.4-4.9-2.5c-1.2-1.1-1.8-2.6-1.8-4.4c0-1.5,0.4-2.8,1.2-4
						c0.8-1.1,1.9-2,3.3-2.6s3-0.9,4.8-0.9c1.8,0,3.4,0.3,4.7,0.9s2.4,1.5,3.2,2.6c0.8,1.1,1.2,2.4,1.2,3.8H142.2z"/>
					<path class="st14" d="M159.5,291.9v-25.6H176v3.9h-11.9v6.9h11v3.9h-11v7h12v3.9H159.5z"/>
					<path class="st14" d="M206,274.5c-0.2-0.7-0.5-1.3-0.8-1.8s-0.8-1-1.3-1.4c-0.5-0.4-1.1-0.7-1.7-0.9s-1.3-0.3-2.1-0.3
						c-1.4,0-2.6,0.3-3.6,1s-1.9,1.7-2.5,3c-0.6,1.3-0.9,3-0.9,4.9c0,1.9,0.3,3.6,0.9,4.9c0.6,1.3,1.4,2.4,2.5,3.1
						c1.1,0.7,2.3,1,3.7,1c1.3,0,2.4-0.2,3.3-0.8c0.9-0.5,1.7-1.2,2.2-2.1c0.5-0.9,0.8-2,0.8-3.2l1,0.2h-6.9v-3.6h10.3v3.1
						c0,2.2-0.5,4.1-1.4,5.7c-0.9,1.6-2.2,2.8-3.8,3.7c-1.6,0.9-3.5,1.3-5.6,1.3c-2.3,0-4.4-0.5-6.1-1.6c-1.8-1.1-3.1-2.6-4.1-4.5
						c-1-2-1.5-4.3-1.5-7c0-2.1,0.3-3.9,0.9-5.5c0.6-1.6,1.4-3,2.4-4.1c1-1.1,2.3-2,3.7-2.6c1.4-0.6,2.9-0.9,4.6-0.9
						c1.4,0,2.7,0.2,3.9,0.6c1.2,0.4,2.3,1,3.2,1.8c0.9,0.8,1.7,1.7,2.3,2.7c0.6,1,1,2.2,1.2,3.4H206z"/>
					<path class="st14" d="M239.7,266.3h4.6V283c0,1.8-0.4,3.4-1.3,4.8c-0.9,1.4-2,2.5-3.6,3.3c-1.5,0.8-3.3,1.2-5.4,1.2
						c-2.1,0-3.9-0.4-5.4-1.2c-1.5-0.8-2.7-1.9-3.6-3.3c-0.8-1.4-1.3-3-1.3-4.8v-16.7h4.6v16.3c0,1.1,0.2,2,0.7,2.8
						c0.5,0.8,1.1,1.5,2,2c0.8,0.5,1.9,0.7,3,0.7c1.2,0,2.2-0.2,3-0.7s1.5-1.1,2-2c0.5-0.8,0.7-1.8,0.7-2.8V266.3z"/>
					<path class="st14" d="M257.8,291.9v-25.6h9.5c1.9,0,3.6,0.3,4.9,1s2.3,1.6,3,2.9c0.7,1.2,1,2.7,1,4.3c0,1.6-0.3,3.1-1,4.3
						c-0.7,1.2-1.7,2.1-3,2.8c-1.3,0.7-3,1-4.9,1h-6.8v-3.8h6.1c1.1,0,2.1-0.2,2.8-0.5c0.7-0.3,1.3-0.8,1.6-1.4
						c0.3-0.6,0.5-1.4,0.5-2.3c0-0.9-0.2-1.7-0.5-2.3s-0.9-1.1-1.6-1.5c-0.7-0.3-1.7-0.5-2.8-0.5h-4.2v21.7H257.8z M270.8,280.3
						l6.3,11.6H272l-6.1-11.6H270.8z"/>
					<path class="st14" d="M297.9,292.4c-2,0-3.8-0.5-5.2-1.6c-1.5-1-2.6-2.6-3.3-4.5c-0.8-2-1.2-4.4-1.2-7.2c0-2.8,0.4-5.2,1.2-7.1
						c0.8-2,1.9-3.5,3.3-4.5c1.5-1,3.2-1.5,5.2-1.5c2,0,3.8,0.5,5.2,1.5c1.5,1,2.6,2.5,3.4,4.5s1.2,4.3,1.2,7.1
						c0,2.8-0.4,5.2-1.2,7.2s-1.9,3.5-3.3,4.5C301.7,291.9,300,292.4,297.9,292.4z M297.9,288.5c1.6,0,2.8-0.8,3.7-2.4
						c0.9-1.6,1.4-3.9,1.4-7c0-2-0.2-3.7-0.6-5.1s-1-2.4-1.8-3.1c-0.8-0.7-1.7-1.1-2.7-1.1c-1.6,0-2.8,0.8-3.7,2.4
						c-0.9,1.6-1.4,3.9-1.4,6.9c0,2,0.2,3.8,0.6,5.1c0.4,1.4,1,2.4,1.8,3.1S296.9,288.5,297.9,288.5z"/>
					<path class="st14" d="M334.2,273.3c-0.1-1.1-0.6-1.9-1.5-2.5c-0.9-0.6-2-0.9-3.3-0.9c-1,0-1.8,0.1-2.5,0.4
						c-0.7,0.3-1.2,0.7-1.6,1.2c-0.4,0.5-0.5,1.1-0.6,1.7c0,0.5,0.1,1,0.4,1.4c0.2,0.4,0.6,0.7,1,1c0.4,0.3,0.9,0.5,1.4,0.7
						c0.5,0.2,1,0.3,1.5,0.5l2.4,0.6c1,0.2,1.9,0.5,2.8,0.9c0.9,0.4,1.7,0.9,2.4,1.5c0.7,0.6,1.3,1.3,1.7,2.1
						c0.4,0.8,0.6,1.8,0.6,2.9c0,1.5-0.4,2.8-1.1,4c-0.8,1.1-1.9,2-3.3,2.7c-1.4,0.6-3.2,1-5.2,1c-2,0-3.7-0.3-5.1-0.9
						s-2.6-1.5-3.4-2.7c-0.8-1.2-1.2-2.6-1.3-4.3h4.5c0.1,0.9,0.3,1.6,0.8,2.2c0.5,0.6,1.1,1,1.9,1.3c0.8,0.3,1.6,0.4,2.6,0.4
						c1,0,1.9-0.2,2.6-0.5c0.8-0.3,1.3-0.7,1.8-1.3c0.4-0.5,0.6-1.2,0.7-1.9c0-0.7-0.2-1.2-0.6-1.7c-0.4-0.4-0.9-0.8-1.6-1.1
						c-0.7-0.3-1.5-0.6-2.4-0.8l-2.9-0.8c-2.1-0.5-3.7-1.4-4.9-2.5c-1.2-1.1-1.8-2.6-1.8-4.4c0-1.5,0.4-2.8,1.2-4
						c0.8-1.1,1.9-2,3.3-2.6s3-0.9,4.8-0.9c1.8,0,3.4,0.3,4.7,0.9s2.4,1.5,3.2,2.6c0.8,1.1,1.2,2.4,1.2,3.8H334.2z"/>
				</g>
			</g>
		</g>
		<line class="st15" x1="45" y1="279" x2="96" y2="279"/>
		<line class="st15" x1="366" y1="279" x2="417" y2="279"/>
		<g>
			<g>
				<g>
					<path class="st16" d="M45.4,234v-52.2h9.9v22.1h25.2v-22.1h9.9V234h-9.9v-22.2H55.2V234H45.4z"/>
					<path class="st16" d="M149.7,207.9c0,5.6-1.1,10.4-3.3,14.5s-5.2,7.1-8.9,9.2c-3.8,2.1-8,3.2-12.8,3.2s-9-1.1-12.8-3.2
						c-3.8-2.1-6.7-5.2-8.9-9.2c-2.2-4-3.3-8.8-3.3-14.4c0-5.6,1.1-10.4,3.3-14.5c2.2-4,5.2-7.1,8.9-9.2c3.8-2.1,8-3.2,12.8-3.2
						s9,1.1,12.8,3.2c3.8,2.1,6.7,5.2,8.9,9.2S149.7,202.3,149.7,207.9z M139.8,207.9c0-4-0.6-7.3-1.9-10c-1.3-2.7-3.1-4.8-5.3-6.2
						c-2.3-1.4-4.9-2.1-7.8-2.1c-3,0-5.6,0.7-7.8,2.1c-2.3,1.4-4,3.5-5.3,6.2s-1.9,6.1-1.9,10s0.6,7.3,1.9,10s3.1,4.8,5.3,6.2
						c2.3,1.4,4.9,2.1,7.8,2.1c3,0,5.6-0.7,7.8-2.1c2.3-1.4,4-3.5,5.3-6.2C139.2,215.2,139.8,211.9,139.8,207.9z"/>
					<path class="st16" d="M159.1,234v-52.2h9.9v44.3h24v7.9H159.1z"/>
					<path class="st16" d="M208.4,234h-10.5l19.2-52.2h12.2l19.2,52.2h-10.5l-14.5-41.5H223L208.4,234z M208.8,213.6h28.7v7.6h-28.7
						V213.6z"/>
					<path class="st16" d="M300.4,181.8V234h-8.8l-25.7-35.6h-0.5V234h-9.9v-52.2h8.8l25.6,35.6h0.5v-35.6H300.4z"/>
					<path class="st16" d="M329.5,234h-18.5v-52.2h18.8c5.4,0,10.1,1,13.9,3.1c3.9,2.1,6.9,5.1,9,9c2.1,3.9,3.1,8.6,3.1,14
						c0,5.4-1,10.1-3.2,14c-2.1,3.9-5.1,6.9-9.1,9S335.1,234,329.5,234z M320.9,225.9h8.1c3.8,0,7-0.7,9.5-2s4.4-3.3,5.7-6
						c1.3-2.7,1.9-6,1.9-10c0-4-0.6-7.3-1.9-10c-1.3-2.6-3.2-4.6-5.6-5.9c-2.5-1.3-5.6-2-9.3-2h-8.4V225.9z"/>
					<path class="st16" d="M414,207.9c0,5.6-1.1,10.4-3.3,14.5c-2.2,4-5.2,7.1-8.9,9.2c-3.8,2.1-8,3.2-12.8,3.2s-9-1.1-12.8-3.2
						c-3.8-2.1-6.7-5.2-8.9-9.2c-2.2-4-3.3-8.8-3.3-14.4c0-5.6,1.1-10.4,3.3-14.5c2.2-4,5.2-7.1,8.9-9.2c3.8-2.1,8-3.2,12.8-3.2
						s9,1.1,12.8,3.2c3.8,2.1,6.7,5.2,8.9,9.2C412.9,197.5,414,202.3,414,207.9z M404,207.9c0-4-0.6-7.3-1.9-10s-3.1-4.8-5.3-6.2
						c-2.3-1.4-4.9-2.1-7.8-2.1s-5.6,0.7-7.8,2.1c-2.3,1.4-4,3.5-5.3,6.2s-1.9,6.1-1.9,10s0.6,7.3,1.9,10s3.1,4.8,5.3,6.2
						c2.3,1.4,4.9,2.1,7.8,2.1s5.6-0.7,7.8-2.1c2.3-1.4,4-3.5,5.3-6.2S404,211.9,404,207.9z"/>
				</g>
			</g>
		</g>
	</g>
</g>
</svg>
