<svg width="104" height="80" viewBox="0 0 104 80" fill="none" xmlns="http://www.w3.org/2000/svg">
<path d="M104 78.8655C102.407 80.3164 100.465 79.9618 98.5996 79.9618H6.20079C4.98722 79.9618 3.77364 79.9618 2.56006 79.9618C2.2141 79.9866 1.86718 79.9314 1.54326 79.7999C1.21933 79.6684 0.926106 79.4638 0.683819 79.2002C0.441531 78.9366 0.255952 78.6202 0.139886 78.273C0.0238209 77.9257 -0.0199669 77.5559 0.011547 77.1889C0.011547 69.4722 0.011547 61.75 0.011547 54.0226C-0.0226368 53.655 0.0192991 53.2839 0.134409 52.9354C0.249519 52.5868 0.435015 52.2693 0.677874 52.0051C0.920734 51.7408 1.21507 51.5363 1.54023 51.4058C1.86538 51.2753 2.21347 51.222 2.56006 51.2497C3.77364 51.2497 4.98722 51.2497 6.20079 51.2497H98.0838C100.117 51.2497 102.225 50.8144 104 52.3459V78.8655ZM49.8137 55.9087H4.15288V75.2543C13.7553 76.0926 46.2337 75.8186 49.8137 74.9319V55.9087ZM54.3647 55.9087V75.3349H99.6766V55.8604L54.3647 55.9087Z" fill="#5F5751"/>
<path d="M30.6847 17.8947C33.7187 15.0734 36.9347 12.2361 40.0293 9.33424C40.8458 8.53887 41.8023 7.92289 42.8436 7.52172C43.885 7.12055 44.9907 6.94211 46.0972 6.99665C49.7227 7.09338 53.3786 6.77096 56.989 7.09338C58.5964 7.22043 60.2114 7.00024 61.7366 6.44611C63.2617 5.89197 64.6655 5.01536 65.8633 3.86912C67.3803 2.53105 69.1096 1.35419 70.8997 0C74.7528 4.1593 76.5276 9.0763 79.3037 13.8321L76.118 17.4433C76.2697 17.6529 76.4063 18.0075 76.6035 18.0559C76.9477 18.0784 77.2844 18.1732 77.5939 18.3348C77.9035 18.4965 78.1798 18.7217 78.4069 18.9976C78.6341 19.2734 78.8075 19.5944 78.9171 19.9419C79.0268 20.2894 79.0705 20.6566 79.0458 21.0222C79.0458 28.567 79.0458 36.1118 79.0458 43.5921C79.0458 46.1876 78.3025 46.8163 75.3444 46.8163C67.3803 46.8163 59.4162 46.8163 51.4521 46.8163C44.0037 46.8163 36.5554 46.8163 29.1222 46.8163C25.4057 46.8163 25.0264 46.3649 24.9961 42.383C24.9961 35.9344 24.9961 29.4859 24.9961 23.0374C24.9961 18.3299 24.9961 18.3299 29.6532 18.0398C29.9991 18.0095 30.3433 17.9611 30.6847 17.8947ZM69.0338 22.7311C62.9659 28.97 55.5176 33.6936 47.7962 38.0141C47.0822 38.4079 46.3017 38.647 45.5 38.7174C44.6984 38.7878 43.8915 38.6881 43.1264 38.424C42.3613 38.16 41.6533 37.737 41.0435 37.1795C40.4336 36.622 39.9342 35.9412 39.5742 35.1767C38.9548 33.8221 38.7916 32.2826 39.1119 30.8155C39.4322 29.3484 40.2165 28.0425 41.3339 27.1161C43.0329 25.7458 44.7774 24.4399 47.1894 22.586C43.5638 22.586 40.6512 22.586 37.7538 22.586C34.8564 22.586 31.9742 22.2152 29.0919 22.9406C29.2133 29.6149 28.9402 35.9989 29.2588 42.2862H74.6921V22.6666L69.0338 22.7311ZM70.1867 6.06162C68.9702 6.82088 67.8135 7.68349 66.728 8.64103C65.6778 9.70935 64.4216 10.5222 63.0464 11.0233C61.6712 11.5243 60.2099 11.7016 58.7639 11.5429C53.9247 11.3817 49.0856 11.5429 44.5195 11.5429L36.9347 18.1687C40.2872 18.1687 43.0025 18.2655 45.7483 18.1687C47.1225 17.9516 48.5224 18.309 49.6539 19.1658C50.7854 20.0226 51.5604 21.312 51.8161 22.7633C51.6049 23.411 51.292 24.016 50.8908 24.5528C48.2209 27.0193 45.4752 29.3892 42.6991 31.888L44.3982 35.1122C49.4497 31.4688 55.017 29.2924 59.6437 25.0687C64.2705 20.8449 69.2158 17.008 74.0701 13.0421L70.1867 6.06162Z" fill="#5F5751"/>
</svg>
