<svg width="94" height="120" viewBox="0 0 94 120" fill="none" xmlns="http://www.w3.org/2000/svg">
<path d="M62.2033 56.8068C63.4066 56.7965 64.6089 56.8783 65.8001 57.0512C77.074 58.7726 87.0785 64.5073 91.1791 75.3756C92.5134 78.8898 93.1965 82.6223 93.1941 86.3866C93.1941 86.8959 93.1941 87.4052 93.1941 87.8941C92.8112 100.117 86.6554 109.183 75.8449 114.775C75.6132 114.897 75.3613 115.029 75.0993 115.152C69.6508 117.713 63.7083 119.021 57.6998 118.981H46.8792L47.8867 110.833H54.7478C62.0825 110.869 69.2981 108.958 75.6736 105.292V105.292C77.6741 104.108 79.3638 102.456 80.6003 100.474C82.9596 96.5209 84.1808 91.9808 84.1265 87.3644C84.1265 81.2529 83.119 76.1599 79.089 72.0856C78.0321 71.0463 76.8469 70.1493 75.5628 69.4169C71.5085 67.12 66.9312 65.9332 62.2839 65.9741H51.9167L41.3077 66.575C37.9996 66.7689 34.6806 66.6153 31.4039 66.1167C28.7034 65.6638 26.0564 64.9299 23.5051 63.9267C19.0592 62.5112 14.9996 60.0702 11.6468 56.7966C2.57928 47.6293 1.57178 39.4806 1.57178 32.3504C1.57178 25.2203 5.60179 11.9786 18.6993 4.84852C31.7969 -2.28161 48.9244 2.81134 48.9244 2.81134L46.9094 10.9601C42.5375 9.48289 37.8799 9.08197 33.3239 9.79061C28.7679 10.4993 24.4449 12.297 20.7143 15.0344V15.0344C18.0278 17.2305 15.861 20.0062 14.3725 23.1583C12.884 26.3103 12.1115 29.759 12.1115 33.2519C12.1115 36.7447 12.884 40.1934 14.3725 43.3455C15.861 46.4975 18.0278 49.2732 20.7143 51.4693L20.9763 51.6833C25.5359 55.3261 31.1947 57.275 37.0056 57.204H37.5698C45.781 56.8373 54.0022 56.8169 62.2134 56.8169L62.2033 56.8068Z" fill="#1F1F1F" stroke="#1F1F1F" stroke-miterlimit="10"/>
<path d="M46.5062 56.9188L52.8736 28.6835L70.5251 57.041C74.6909 58.4646 78.6617 60.4155 82.3431 62.847L83.0987 63.3359L49.6899 3.84009C49.6899 3.84009 37.4588 53.9852 36.7637 57.041L34.4464 66.5241L29.6809 85.9792L38.7484 89.0349L44.0882 66.7685L46.5062 56.9188Z" fill="#902123" stroke="#902123" stroke-miterlimit="10"/>
</svg>
