<svg width="198" height="251" viewBox="0 0 198 251" fill="none" xmlns="http://www.w3.org/2000/svg">
<path d="M130.719 118.779C133.253 118.758 135.786 118.929 138.295 119.291C162.044 122.897 183.118 134.907 191.755 157.67C194.566 165.03 196.005 172.848 196 180.731C196 181.798 196 182.865 196 183.889C195.194 209.489 182.226 228.475 159.454 240.188C158.966 240.444 158.436 240.721 157.884 240.977C146.407 246.341 133.889 249.081 121.232 248.998H98.4389L100.561 231.931H115.014C130.464 232.007 145.664 228.005 159.094 220.326V220.326C163.308 217.847 166.867 214.387 169.472 210.235C174.441 201.957 177.014 192.448 176.9 182.779C176.9 169.979 174.777 159.313 166.288 150.779C164.062 148.603 161.565 146.724 158.86 145.19C150.32 140.379 140.678 137.894 130.888 137.979H109.05L86.7027 139.238C79.7343 139.644 72.7429 139.322 65.8407 138.278C60.152 137.33 54.5762 135.792 49.202 133.691C39.8368 130.727 31.2854 125.614 24.2228 118.758C5.12228 99.5578 3 82.4911 3 67.5577C3 52.6244 11.4891 24.8909 39.0787 9.95758C66.6684 -4.9758 102.747 5.6909 102.747 5.6909L98.5025 22.7576C89.2931 19.6638 79.4822 18.8242 69.885 20.3083C60.2879 21.7925 51.1817 25.5577 43.3233 31.291V31.291C37.6642 35.8906 33.0999 41.704 29.9644 48.3056C26.8289 54.9073 25.2016 62.1302 25.2016 69.4457C25.2016 76.7612 26.8289 83.9841 29.9644 90.5858C33.0999 97.1875 37.6642 103.001 43.3233 107.6L43.8751 108.049C53.4797 115.678 65.3998 119.76 77.6405 119.611H78.829C96.1256 118.843 113.443 118.801 130.74 118.801L130.719 118.779Z" fill="#1F1F1F" stroke="#1F1F1F" stroke-miterlimit="10"/>
<path d="M98.5922 118.899L112.062 59.906L149.402 119.154C158.214 122.129 166.614 126.205 174.402 131.285L176 132.306L105.327 8C105.327 8 79.4534 112.77 77.9828 119.154L73.0809 138.967L63 179.615L82.1814 186L93.4772 139.478L98.5922 118.899Z" fill="#902123" stroke="#902123" stroke-miterlimit="10"/>
</svg>
