<svg width="286" height="92" viewBox="0 0 286 92" fill="none" xmlns="http://www.w3.org/2000/svg">
<path fill-rule="evenodd" clip-rule="evenodd" d="M144.994 29.0521C146.034 26.4223 148.15 20.7283 154.699 20.7283C157.362 20.7283 160.773 22.1477 160.238 26.879C160.159 27.7812 159.995 28.4524 159.831 29.0521H144.994ZM169.955 35.2962C170.563 32.8976 170.746 31.9953 170.867 30.873C171.98 20.8934 166.027 14 155.325 14C140.403 14 132.164 26.3673 131.118 35.8244C130.157 44.4507 135.022 53 147.445 53C156.316 53 163.929 48.7914 168.089 40.2641L157.836 39.3563C157.18 40.7042 154.778 45.2759 149.062 45.2759C146.49 45.2759 142.233 44.0766 142.89 38.08C142.969 37.3978 143.024 36.8697 143.45 35.3017H169.961L169.955 35.2962Z" fill="#00945E"/>
<path d="M102 1L90.3099 13H84L92.5052 1H102Z" fill="#00945E"/>
<path fill-rule="evenodd" clip-rule="evenodd" d="M57.844 52L60.082 44.3493C62.932 34.1046 65.452 25.2035 75.982 25.4283L79 15.0026C73.612 14.9313 69.532 16.3024 65.194 23.7885L67.696 15.189H56.764L46 52H57.838H57.844Z" fill="#00945E"/>
<path fill-rule="evenodd" clip-rule="evenodd" d="M83.9556 52L95 15H83.0444L72 52H83.9556Z" fill="#00945E"/>
<path fill-rule="evenodd" clip-rule="evenodd" d="M129.659 33.2818H110.75L108.735 40.1237H117.319C116.649 41.7737 114.507 46.8721 108.437 46.8721C107.737 46.8721 105.497 46.8171 103.981 45.7446C101.722 44.1441 101.363 41.0367 101.619 38.8257C101.886 36.3397 103.098 32.2643 104.413 29.4923C105.953 26.2529 108.936 21.9574 114.129 21.9574C119.322 21.9574 119.9 26.2254 119.529 28.6068L130 27.3033C129.3 18.817 123.121 15 115.213 15C100.596 15 91.3424 26.6598 90.1004 37.9292C89.0899 47.0371 95.8047 54 105.764 54C112.4 54 117.124 50.7165 119.182 48.6761L119.742 53.769H123.626L129.653 33.2763L129.659 33.2818Z" fill="#00945E"/>
<path fill-rule="evenodd" clip-rule="evenodd" d="M189.046 14.6775H177.929L167 52H178.86L184.265 33.526C185.462 29.395 185.752 28.2713 187.233 26.0241C188.533 23.909 191.108 22.185 193.913 22.185C194.324 22.185 198.114 22.185 197.697 26.0902C197.594 26.9109 196.929 29.2408 196.657 30.2267L190.237 52H202.104L208.197 31.0529C209.503 26.685 209.763 25.7927 209.932 24.1458C210.537 18.7424 207.097 14 200.097 14C195.98 14 191.077 15.8838 186.967 21.7333L189.052 14.683L189.046 14.6775Z" fill="#00945E"/>
<path fill-rule="evenodd" clip-rule="evenodd" d="M286 24.6118C285.778 23.0319 285.383 20.4687 282.962 18.1431C279.552 14.8176 274.41 14 270.317 14C258.65 14 253.418 20.778 252.747 26.9595C251.752 36.0576 260.897 37.5657 265.889 38.317C269.898 38.9965 272.469 39.3666 272.193 42.0126C272.157 42.2336 271.762 45.9237 265.236 45.9237C263.438 45.9237 261.029 45.548 259.477 44.7194C257.253 43.5152 257.026 42.1286 257.014 40.7697L247 42.322C247.168 43.7582 247.264 45.8629 249.769 48.404C252.327 51.1273 257.601 53 263.959 53C276.55 53 282.398 45.769 283.064 39.6704C283.891 32.0693 277.808 29.4343 272.019 28.5283C265.673 27.5561 263.51 27.2578 263.779 24.6946C263.959 22.9545 266.14 21.0763 269.4 21.0763C270.713 21.0763 272.475 21.3028 274.099 22.1314C275.813 22.9601 276.55 24.3908 276.765 26.2745L286 24.6118V24.6118Z" fill="#00945E"/>
<path fill-rule="evenodd" clip-rule="evenodd" d="M49.8024 23.1851C51.3666 8.87831 43.5396 0 30.0257 0C12.1103 0 1.73694 16.8983 0.184877 31.2831C-1.30656 44.8765 6.31432 54 19.8403 54C35.1306 54 42.9151 43.0707 46.5346 35.3684C47.9533 32.4646 49.1779 28.9256 49.8085 23.1906L49.8024 23.1851ZM37.2465 21.4629C36.8463 25.0744 36.1673 28.2178 33.8695 33.6462C31.9294 38.1216 28.698 44.3247 21.3378 44.3247C13.2137 44.3247 12.1346 38.5061 12.7348 32.9997C13.044 30.096 16.1238 9.66416 29.0314 9.66416C38.5196 9.66416 37.5496 18.6261 37.2465 21.4629" fill="#00945E"/>
<path fill-rule="evenodd" clip-rule="evenodd" d="M224.004 29.0521C225.025 26.4223 227.16 20.7283 233.716 20.7283C236.361 20.7283 239.773 22.1477 239.244 26.879C239.147 27.7812 239.001 28.4524 238.837 29.0521H224.004ZM248.968 35.2962C249.558 32.8976 249.747 31.9953 249.869 30.873C250.975 20.8934 245.034 14 234.324 14C219.406 14 211.153 26.3673 210.119 35.8244C209.152 44.4507 214.018 53 226.454 53C235.327 53 242.936 48.7914 247.095 40.2641L236.836 39.3563C236.185 40.7042 233.771 45.2759 228.054 45.2759C225.487 45.2759 221.218 44.0766 221.893 38.08C221.954 37.3978 222.009 36.8697 222.441 35.3017H248.968V35.2962Z" fill="#00945E"/>
<path d="M57 88.585L59.4581 85.8947C61.6835 87.6681 63.9088 88.6728 66.7965 88.6728C69.3202 88.6728 70.9132 87.6022 70.9132 85.988V85.9221C70.9132 84.3958 69.9824 83.5722 65.6689 82.6499C60.7229 81.5518 57.9307 80.2066 57.9307 76.2645V76.2041C57.9307 72.5366 61.2479 70 65.8658 70C69.2546 70 71.9393 70.9498 74.302 72.6903L72.1124 75.5343C70.0182 74.0958 67.9241 73.3327 65.8001 73.3327C63.4077 73.3327 62.0176 74.4637 62.0176 75.8692V75.9296C62.0176 77.5822 63.0795 78.3124 67.5244 79.2897C72.4405 80.3878 75 82.0075 75 85.5543V85.6147C75 89.6172 71.5814 92 66.701 92C63.1452 92 59.7922 90.869 57.006 88.574" fill="#00945E"/>
<path d="M81 70H98.8272V73.3042H85.2222V78.7644H97.284V82.0631H85.2222V87.7012H99V91H81V70Z" fill="#00945E"/>
<path d="M103 81.0573V80.9973C103 75.0429 108.038 70 115.122 70C119.219 70 121.742 71.0315 124.155 72.8871L121.536 75.7088C119.726 74.3116 117.94 73.4329 114.953 73.4329C110.621 73.4329 107.332 76.8658 107.332 80.9318V80.9973C107.332 85.3689 110.524 88.5889 115.327 88.5889C117.542 88.5889 119.557 87.9504 121.005 86.9844V83.0057H114.996V79.7584H125V88.6926C122.683 90.4828 119.358 92 115.195 92C107.839 92 103.006 87.2627 103.006 81.0628" fill="#00945E"/>
<path d="M131 82.4674V70H135.109V82.3173C135.109 86.336 137.347 88.5038 141.018 88.5038C144.689 88.5038 146.891 86.4639 146.891 82.473V70.0056H151V82.2895C151 88.7539 147.059 92 140.952 92C134.845 92 131.006 88.7484 131.006 82.473" fill="#00945E"/>
<path d="M158 70H168.502C171.466 70 173.789 70.7816 175.308 72.1022C176.554 73.2395 177.262 74.7972 177.262 76.6299V76.6892C177.262 80.1389 174.939 82.2087 171.636 83.0495L178 91H173.118L167.328 83.6802H162.144V91H158.006V70H158ZM168.206 80.4084C171.17 80.4084 173.051 79.0339 173.051 76.8994V76.8401C173.051 74.587 171.23 73.3581 168.169 73.3581H162.138V80.4084H168.2H168.206Z" fill="#00945E"/>
<path d="M182 81.0573V80.9973C182 75.0102 187.19 70 194.534 70C201.877 70 207 74.9501 207 80.9372V81.0027C207 86.9844 201.804 92 194.466 92C187.129 92 182.006 87.0499 182.006 81.0628L182 81.0573ZM202.595 81.0628V81.0027C202.595 76.8712 199.215 73.4384 194.466 73.4384C189.718 73.4384 186.405 76.8058 186.405 80.9372V81.0027C186.405 85.1342 189.791 88.5671 194.534 88.5671C199.276 88.5671 202.595 85.1997 202.595 81.0628Z" fill="#00945E"/>
<path d="M211 88.585L213.451 85.8947C215.676 87.6681 217.901 88.6728 220.793 88.6728C223.316 88.6728 224.909 87.6022 224.909 85.988V85.9221C224.909 84.3958 223.978 83.5722 219.666 82.6499C214.722 81.5518 211.936 80.2066 211.936 76.2645V76.2041C211.936 72.5366 215.252 70 219.869 70C223.256 70 225.946 70.9498 228.302 72.6903L226.113 75.5343C224.02 74.0958 221.926 73.3327 219.803 73.3327C217.412 73.3327 216.022 74.4637 216.022 75.8692V75.9296C216.022 77.5822 217.083 78.3124 221.533 79.2897C226.447 80.3878 229 82.0075 229 85.5543V85.6147C229 89.6172 225.583 92 220.704 92C217.155 92 213.803 90.869 211.012 88.574" fill="#00945E"/>
</svg>
