<svg width="318" height="110" viewBox="0 0 318 110" fill="none" xmlns="http://www.w3.org/2000/svg">
<path d="M92.8859 62C89.1597 62 86.7262 61.6234 83.7605 60.5688V53.8649C86.346 54.8442 89.0836 55.5221 91.8973 55.5221C94.4068 55.5221 95.3954 54.7688 95.3954 53.413C95.3954 51.3792 92.5057 50.8519 89.5399 49.9481C86.346 49.0442 83 47.161 83 41.9636C83 36.7662 86.1939 33 93.7985 33C96.6882 33 98.8175 33.3766 101.099 34.0545V40.5325C98.5894 40.0052 96.2319 39.6286 94.2547 39.6286C91.2129 39.6286 90.6046 40.4571 90.6046 41.5117C90.6046 43.2442 93.038 43.6961 95.6996 44.4494C99.1217 45.3532 103 47.0857 103 52.8857C103 58.6857 99.1977 62 92.8859 62V62Z" fill="#00467F"/>
<path d="M105.945 39.0918C105.945 39.0918 109.087 38 113.724 38C118.362 38 123 39.3101 123 47.0981V60.5633H118.063L117.24 58.1614H117.016C117.016 58.1614 115.146 61 111.181 61C106.992 61 104 58.8165 104 53.9399C104 48.6994 107.516 46.5158 112.453 46.5158C113.874 46.5158 115.295 46.7342 115.894 46.8797V46.2247C115.894 44.9146 115.22 43.6044 112.154 43.6044C109.087 43.6044 105.945 44.5506 105.945 44.5506V39.0918V39.0918ZM115.894 54.3038V51.174C115.37 51.0285 114.622 50.9557 113.949 50.9557C111.406 50.9557 110.657 52.0475 110.657 53.4304C110.657 54.7405 111.63 55.6139 113.126 55.6139C114.323 55.6139 115.295 55.0316 115.894 54.3038V54.3038Z" fill="#00467F"/>
<path d="M134.5 60.9258H127V38.371H132.211L133 40.9677H133.237C135.132 38.9645 137.421 38 139.868 38C144.842 38 148 40.9677 148 46.3097V61H140.421V46.9032C140.421 44.8258 139.553 44.0097 137.5 44.0097C136.553 44.0097 135.368 44.3806 134.342 45.5677V60.9258H134.5V60.9258Z" fill="#00467F"/>
<path d="M177.922 40.4935C176.605 40.0439 174.047 39.6693 172.186 39.6693C167.535 39.6693 166.45 41.4677 166.45 47.3127C166.45 53.5323 167.69 55.3308 172.264 55.3308C174.047 55.3308 176.527 54.9561 178 54.3566V60.6512C176.14 61.5504 173.426 62 171.178 62C162.419 62 158 57.2041 158 47.3127C158 38.1705 162.264 33 171.721 33C173.814 33 176.372 33.2997 177.922 33.8992V40.4935V40.4935Z" fill="#00467F"/>
<path d="M187.139 61H180V38.4452H184.96L185.936 42.3774H186.312C187.364 39.4839 189.092 38 191.046 38C191.948 38 192.549 38.1484 193 38.371V44.4548C192.775 44.3806 191.873 44.3065 191.347 44.3065C189.243 44.3065 187.965 45.1968 187.064 47.2742V61H187.139V61Z" fill="#00467F"/>
<path d="M200 36.7921C197.231 36.7921 196 36.0495 196 33.896C196 32.0396 197.231 31 200 31C202.769 31 204 32.0396 204 33.896C204 35.7525 202.846 36.7921 200 36.7921ZM196.231 61V38.4257H203.769V61H196.231Z" fill="#00467F"/>
<path d="M215.423 61C212.437 61 209.986 60.6361 207.919 60.0538V54.3766C209.91 55.0316 212.743 55.5411 214.658 55.5411C216.419 55.5411 217.185 54.8133 217.185 53.9399C217.185 52.3386 214.734 52.3386 212.36 51.538C209.757 50.6646 207 49.5728 207 45.3513C207 41.1297 209.833 38 215.806 38C218.257 38 220.554 38.2911 222.545 38.8734V44.2595C220.784 43.75 218.257 43.3861 216.802 43.3861C214.887 43.3861 214.045 44.0411 214.045 44.8418C214.045 46.2247 215.959 46.2247 218.18 46.8797C220.937 47.6076 224 48.6266 224 53.2848C223.923 57.8703 221.473 61 215.423 61V61Z" fill="#00467F"/>
<path d="M233.433 43.9132V54.0632C233.433 55.5132 234.107 56.2 235.754 56.2C236.278 56.2 237.476 56.1237 237.85 55.9711V61.3132C237.027 61.6947 235.305 62 233.508 62C228.492 62 226.171 59.1 226.171 54.5211V43.9132H224V38.3421H226.471V33.6868L233.283 33V38.3421H238V43.9132H233.433V43.9132Z" fill="#00467F"/>
<path d="M251.038 62C243.449 62 240 58.5586 240 50.2544C240 41.9501 243.449 38.3591 251.038 38.3591C258.626 38.3591 261.999 41.9501 261.999 50.2544C262.075 58.5586 258.779 62 251.038 62ZM251.114 56.389C253.644 56.389 254.487 55.192 254.487 50.1796C254.487 45.1671 253.644 43.9701 251.114 43.9701C248.585 43.9701 247.665 45.0923 247.665 50.1796C247.665 55.2668 248.585 56.389 251.114 56.389ZM257.476 32L253.644 36.788H248.202L249.888 32H257.476V32Z" fill="#00467F"/>
<path d="M272.202 39.7407C273.718 38.1852 275.765 37.6667 277.736 37.6667C282.816 37.6667 286 41.2963 286 49.2222C286 57.1481 283.195 61 277.206 61C274.628 61 272.278 59.8889 270.913 58.1111H270.686L269.928 60.5556H265V31.6667L272.202 31V36.3333C272.202 36.9259 271.899 39.8148 271.899 39.8148H272.202V39.7407V39.7407ZM275.159 43.6667C273.87 43.6667 272.809 44.2593 272.126 45.2963V53.4444C272.733 54.2593 273.718 55 275.159 55C277.282 55 278.419 54.1111 278.419 49.3704C278.495 44.3333 277.433 43.6667 275.159 43.6667Z" fill="#00467F"/>
<path d="M289.012 39.0918C289.012 39.0918 292.141 38 296.761 38C301.38 38 306 39.3101 306 47.0981V60.5633H301.008L300.188 58.1614H299.965C299.965 58.1614 298.102 61 294.153 61C289.98 61 287 58.8165 287 53.9399C287 48.6994 290.502 46.5158 295.42 46.5158C296.835 46.5158 298.251 46.7342 298.847 46.8797V46.2247C298.847 44.9146 298.176 43.6044 295.122 43.6044C292.067 43.6044 288.937 44.5506 288.937 44.5506V39.0918H289.012V39.0918ZM298.922 54.3038V51.174C298.4 51.0285 297.655 50.9557 296.984 50.9557C294.451 50.9557 293.706 52.0475 293.706 53.4304C293.706 54.7405 294.675 55.6139 296.165 55.6139C297.282 55.6139 298.251 55.0316 298.922 54.3038V54.3038Z" fill="#00467F"/>
<path d="M309 61V31.6767L317 31V61H309Z" fill="#00467F"/>
<path d="M152.035 86C150.45 86 149.297 85.7705 148.216 85.1585V83.3989C149.297 84.0874 150.378 84.3934 151.674 84.3934C153.332 84.3934 154.196 83.5519 154.196 82.0984C154.196 80.5683 152.899 80.1093 151.53 79.6503C149.873 79.1148 148 78.5027 148 75.8251C148 73.6831 149.297 72 152.179 72C153.404 72 154.556 72.2295 155.349 72.612V74.2951C154.34 73.9126 153.332 73.6831 152.251 73.6831C150.45 73.6831 149.801 74.6776 149.801 75.7486C149.801 77.3552 151.458 77.6612 153.043 78.1967C154.556 78.7322 155.997 79.4973 155.997 81.9454C156.069 84.3934 154.628 86 152.035 86V86Z" fill="#00467F"/>
<path d="M159 72H167V73.7401H161.08V77.8531H166.52V79.5932H161.08V84.2599H167V86H159V72V72Z" fill="#00467F"/>
<path d="M179 86.1848C177.963 86.6739 176.481 87 174.926 87C170.778 87 169 84.7174 169 79.5C169 74.2826 170.926 72 175.148 72C176.481 72 177.963 72.3261 178.926 72.7337V74.5272C177.889 74.1196 176.481 73.875 175.222 73.875C172.185 73.875 170.852 75.1793 170.852 79.5815C170.852 83.9837 171.963 85.288 174.852 85.288C175.741 85.288 176.481 85.2065 177.074 85.0435V80.6413H174.481V78.9293H179V86.1848V86.1848Z" fill="#00467F"/>
<path d="M193 80.8177C193 84.453 191.059 86 187.5 86C183.941 86 182 84.3757 182 80.8177V72H184.103V80.8177C184.103 83.2155 185.235 84.221 187.5 84.221C189.765 84.221 190.897 83.1381 190.897 80.8177V72H193V80.8177V80.8177Z" fill="#00467F"/>
<path d="M206 85.7667C205.621 85.9222 205.318 86 204.939 86C203.273 86 202.364 84.8333 201.606 83.5111L199.788 80.1667H197.97V85.8444H196V72H200.697C203.652 72 205.015 73.3222 205.015 75.9667C205.015 78.2222 203.803 79.6222 201.758 80.0111L203.348 82.8889C203.803 83.7444 204.561 84.4444 205.697 84.4444H206V85.7667V85.7667ZM200.697 73.7111H197.97V78.4556H200.621C202.364 78.4556 203.121 77.7556 203.121 75.9667C203.121 74.3333 202.364 73.7111 200.697 73.7111V73.7111Z" fill="#00467F"/>
<path d="M212.5 87C208.561 87 207 84.7989 207 79.5C207 74.2011 208.561 72 212.5 72C216.439 72 218 74.2011 218 79.5C218 84.7989 216.439 87 212.5 87ZM212.5 73.7935C209.899 73.7935 208.932 75.0163 208.932 79.4185C208.932 83.8206 209.973 85.125 212.5 85.125C215.027 85.125 216.068 83.8206 216.068 79.4185C216.068 75.0163 215.101 73.7935 212.5 73.7935Z" fill="#00467F"/>
<path d="M224.031 86C222.448 86 221.296 85.7705 220.216 85.1585V83.3989C221.296 84.0874 222.376 84.3934 223.671 84.3934C225.327 84.3934 226.191 83.5519 226.191 82.0984C226.191 80.5683 224.895 80.1093 223.527 79.6503C221.872 79.1148 220 78.5027 220 75.8251C220 73.6831 221.296 72 224.175 72C225.399 72 226.551 72.2295 227.343 72.612V74.2951C226.335 73.9126 225.327 73.6831 224.247 73.6831C222.448 73.6831 221.8 74.6776 221.8 75.7486C221.8 77.3552 223.455 77.6612 225.039 78.1967C226.551 78.7322 227.991 79.4973 227.991 81.9454C228.135 84.3934 226.623 86 224.031 86V86Z" fill="#00467F"/>
<path d="M231 89C231.366 87.7313 231.878 85.5672 232.024 84H234C233.561 85.8657 232.756 88.0299 232.244 89H231Z" fill="#00467F"/>
<path d="M243 72H251V73.7401H245.08V77.8531H250.52V79.5932H245.08V84.2599H251V86H243V72V72Z" fill="#00467F"/>
<path d="M253.075 72H254.94L260.537 81.4382C260.687 81.6742 261.209 82.7753 261.209 82.7753H261.284C261.284 82.7753 261.134 81.5955 261.134 80.4157V72H263V86H261.134L255.463 76.4831C255.313 76.2472 254.866 75.3034 254.866 75.3034H254.791C254.791 75.3034 254.866 76.3258 254.866 77.5843V86H253V72H253.075V72Z" fill="#00467F"/>
<path d="M281 74.4324C280.319 74.1081 279.109 73.8649 278.05 73.8649C275.176 73.8649 273.966 75.2432 273.966 79.3784C273.966 83.8378 275.176 85.1351 278.05 85.1351C279.109 85.1351 280.244 84.8919 281 84.4054V86.1892C280.168 86.6757 278.958 87 277.824 87C273.815 87 272 84.6486 272 79.3784C272 74.1081 273.815 72 277.899 72C279.034 72 280.244 72.2432 281 72.6486V74.4324V74.4324Z" fill="#00467F"/>
<path d="M286.829 72H289.171L294 86H291.878L290.707 82.3034H285.146L283.976 86H282L286.829 72ZM285.732 80.573H290.122L288 73.809H287.927L285.732 80.573Z" fill="#00467F"/>
<path d="M300.031 86C298.448 86 297.296 85.7705 296.216 85.1585V83.3989C297.296 84.0874 298.376 84.3934 299.671 84.3934C301.327 84.3934 302.191 83.5519 302.191 82.0984C302.191 80.5683 300.895 80.1093 299.527 79.6503C297.872 79.1148 296 78.5027 296 75.8251C296 73.6831 297.296 72 300.175 72C301.399 72 302.551 72.2295 303.343 72.612V74.2951C302.335 73.9126 301.327 73.6831 300.247 73.6831C298.448 73.6831 297.8 74.6776 297.8 75.7486C297.8 77.3552 299.455 77.6612 301.039 78.1967C302.551 78.7322 303.991 79.4973 303.991 81.9454C304.135 84.3934 302.623 86 300.031 86V86Z" fill="#00467F"/>
<path d="M310.873 72H313.2L318 86H315.891L314.727 82.3034H309.2L307.964 86H306L310.873 72ZM309.782 80.573H314.145L312.036 73.809H311.964L309.782 80.573Z" fill="#00467F"/>
<path d="M39.6544 101.94L10.4706 36L8 38.5332L39.6544 110L71 38.4564L68.5294 36L39.6544 101.94Z" fill="#00467F"/>
<path d="M42.034 34.8921C42.034 34.4383 42.034 34.0601 42.3412 33.9088C43.1861 33.3037 44.8759 33.5306 44.8759 32.0934C44.8759 31.7152 44.7223 31.4883 44.7223 31.4883C44.7223 31.4883 45.8744 30.6563 45.8744 29.0679C45.8744 28.1602 44.8759 27.5551 44.4151 26.7987C43.4165 25.3615 42.3412 24.7564 40.8818 24.7564C40.4978 24.7564 40.3442 24.832 40.0369 24.9077C39.6529 24.6051 39.1152 24 38.0399 24C37.0414 24 36.5805 24.6051 36.4269 24.9077C35.582 25.059 35.1211 25.5884 35.1211 26.4961C35.1211 27.1012 35.7356 27.6307 35.7356 27.6307C35.582 27.7063 34.7371 28.3871 34.7371 29.3704C34.7371 30.2024 35.0443 30.6563 35.0443 30.9588C35.0443 31.337 34.1994 31.6396 34.1994 32.2447C34.1994 32.6986 34.7371 33.0768 34.7371 33.3037C34.7371 33.6062 34.5835 33.8331 34.5835 34.4383C33.5081 33.9088 32.6632 33.5306 31.3575 33.5306C28.3619 33.5306 26.5185 36.6318 20.6041 36.6318C19.6824 36.0267 19.452 35.7241 18.6071 35.0434C18.223 34.7408 18.0694 34.9677 17.6086 34.7408C16.8405 34.287 15.8419 33.7575 15.0739 33.7575C13.7681 33.7575 13 34.3626 13 35.5729C13 36.2536 13.5377 37.01 14.4594 37.1613C13.9217 37.3126 13.8449 37.7664 13.8449 37.9933C13.8449 38.8254 14.6898 39.3548 16.1492 39.96C16.6869 40.2625 17.6086 40.8676 18.5303 40.8676C18.9911 40.8676 19.3752 40.792 19.452 40.792C19.452 40.792 21.9867 41.624 23.5229 41.624C27.0561 41.624 28.5923 40.4894 29.5908 40.1869C29.5908 40.3382 25.3663 43.2881 25.3663 47.9778C25.3663 49.5662 25.9808 51.0033 26.8257 52.2892L22.5244 54.4071L27.1329 64.921C27.1329 64.921 30.8966 64.7697 31.5879 62.8788C30.6662 60.7608 30.2053 58.9455 30.2053 57.7353C30.2053 56.9789 30.5126 56.2225 30.743 55.7686C32.2024 56.525 33.7386 57.0545 35.0443 57.0545C37.195 57.0545 38.5775 56.1468 39.2688 55.3904C39.5761 55.9199 40.0369 56.8276 40.0369 59.2481C40.0369 61.8198 37.9631 64.089 37.9631 64.089L32.4328 70.8209C31.5879 71.8042 31.2806 72.7119 31.2806 73.5439C31.2806 73.9221 31.3575 74.2247 31.4343 74.5272L39.192 92L52.5569 61.8198C52.5569 61.8198 52.096 61.9711 51.5583 61.9711C50.7134 61.9711 49.1004 61.5172 49.1004 59.3993C49.1004 57.0545 51.2511 55.9199 51.2511 55.9199C51.2511 55.9199 51.0975 54.7853 51.0975 54.2558C51.0975 53.7264 51.2511 53.3482 51.6352 53.3482C52.096 53.3482 53.1713 54.7853 54.4003 54.7853C55.4756 54.7853 56.0133 54.1046 56.3973 53.2725L65 33.5306H61.5436L54.1699 50.1713C54.2467 49.7931 55.0916 47.1457 55.0916 44.8765C55.0916 42.6073 54.4003 41.6997 53.7858 41.1702V40.4894C53.7858 36.9344 51.1743 36.1023 50.2526 36.0267C49.1772 35.9511 49.1004 35.1947 47.4874 35.1947C44.9527 35.1947 44.4919 36.3293 43.1861 36.3293C42.6484 36.3293 42.034 35.7998 42.034 34.8921V34.8921ZM36.1196 47.5239C34.5835 47.5239 33.0473 46.8432 32.74 46.8432C32.4328 46.8432 32.356 46.9944 32.356 47.2214C32.356 49.2636 39.192 47.5239 39.192 52.4405C39.192 54.7853 37.0414 55.8443 35.3515 55.8443C31.8951 55.8443 26.6721 52.5161 26.6721 48.129C26.6721 43.2881 31.4343 41.1702 31.4343 39.4305C31.4343 38.9766 31.0502 38.901 30.743 38.901C29.2836 38.901 25.904 40.4894 23.9838 40.4894C22.5244 40.4894 21.065 40.1869 19.5288 39.6574C19.5288 39.6574 18.9143 39.8087 18.6071 39.8087C17.9926 39.8087 17.5318 39.4305 16.9941 39.2036C15.9956 38.8254 15.1507 38.5228 15.1507 38.1446C15.1507 37.9933 15.2275 37.842 15.5347 37.842C16.1492 37.842 17.3013 38.4472 17.3013 38.4472C17.6086 38.4472 17.6086 38.2959 17.6086 38.069C17.6086 37.4638 16.9173 37.01 16.1492 36.6318C15.2275 36.2536 14.1521 36.1023 14.1521 35.5729C14.1521 35.4972 14.3058 35.4972 14.4594 35.4972C14.613 35.4972 15.0739 35.5729 15.3811 35.6485C15.0739 35.4972 14.9202 35.119 14.9202 35.0434C14.9202 34.8921 14.997 34.8921 15.0739 34.8921C15.6115 34.8921 16.9941 35.7998 17.6854 36.2536C18.0694 36.2536 18.5303 36.4049 18.6071 36.5562L18.7607 36.8587C19.2216 37.3126 19.3752 37.4639 20.0665 37.9933C20.4505 38.069 20.9114 38.069 21.449 38.069C25.8272 38.069 29.514 35.0434 31.3575 35.0434C33.2009 35.0434 34.4298 36.178 35.7356 36.178C37.0414 36.178 37.3486 36.0267 37.6558 35.8754C37.579 35.8754 35.8892 35.4216 35.8892 34.5895C35.8892 33.9844 36.1965 33.5306 36.1965 33.1524C36.1965 32.7742 35.6588 32.6229 35.6588 32.3204C35.6588 31.8665 36.5037 31.7152 36.5037 31.0345C36.5037 30.8832 36.1965 30.1268 36.1965 29.5973C36.1965 29.0679 36.5037 28.3115 37.2718 28.1602C38.1167 28.9166 39.6529 28.9922 40.2674 29.0679C40.2674 30.3537 40.9586 31.1101 41.2659 31.337C41.3427 31.337 41.4195 31.2614 41.8804 31.2614C42.034 31.2614 42.3412 31.337 42.3412 31.7909C42.1876 33.9088 40.7282 31.9422 40.7282 34.5139C40.7282 35.3459 40.7282 37.3126 42.8789 37.4638C37.579 40.0356 40.2674 47.5239 36.1196 47.5239V47.5239ZM47.6411 38.1446C48.0251 38.1446 49.4845 38.5228 50.099 38.8254C50.2526 39.6574 50.5598 40.4138 50.5598 42.8343C50.5598 48.0534 47.6411 47.7508 45.644 49.5662C45.26 48.3559 45.1064 47.6752 45.1064 46.3893C45.1064 45.1034 45.5672 44.574 46.0281 44.3471C46.0281 44.8009 46.3353 45.0278 46.7193 45.0278C47.1034 45.0278 47.3338 44.8765 47.4106 44.574C47.5643 44.6496 47.8715 44.7252 48.1787 44.7252C48.5628 44.7252 48.6396 44.6496 48.6396 44.4227C48.6396 44.1201 47.7179 42.9855 46.2585 42.9855C44.9527 42.9855 44.7991 43.9689 44.7223 44.1201L43.4165 46.6162C42.8789 46.5406 41.8804 46.465 41.1123 46.465C40.421 46.465 40.0369 46.7675 40.0369 46.7675C40.0369 45.7842 40.1905 44.1958 41.1123 43.3637C41.4963 43.2125 41.5731 42.9099 41.5731 42.9099C41.5731 42.9099 41.7267 43.2881 42.1876 43.2881C42.5716 43.2881 42.7253 43.1368 42.8021 42.9099C43.1093 42.9855 43.2629 43.0612 43.7238 43.0612C44.3383 43.0612 44.5687 42.7586 44.5687 42.5317C44.5687 42.0022 42.2644 41.8509 42.2644 41.0945C42.2644 40.6407 43.1093 40.4894 44.7991 39.733C47.4106 38.7497 47.1802 38.1446 47.6411 38.1446V38.1446Z" fill="#00467F"/>
<path d="M37.9567 30C37.3189 30 37 30.2667 37 31.0667C37 31.6 37.1595 32 37.5581 32C37.9567 32 38.1959 31.7333 38.1959 31.2C38.8337 31.2 38.9932 30.9333 38.9932 30.6667C39.0729 30.4 38.4351 30 37.9567 30Z" fill="#00467F"/>
<path d="M38.7666 0L0 39.1434L1.2186 42L38.7666 4.16912L75.7814 41.8456L77 38.9118L38.7666 0Z" fill="#00467F"/>
</svg>
