<svg width="214" height="109" viewBox="0 0 214 109" fill="none" xmlns="http://www.w3.org/2000/svg">
<path d="M108 0C88.6836 0 73 14.1153 73 31.5004C73 38.699 75.6918 45.3096 80.1876 50.6035L109.281 16.186L106.144 16.2093H103.034C99.7139 16.2093 96.6033 16.4211 94.3553 16.7972C92.996 17.0324 91.7933 17.4794 90.8 18.1149C89.6241 18.8446 88.186 20.3965 87.2196 21.926C87.1149 22.0902 86.9583 22.373 86.7489 22.7491L85.0495 22.3963L87.8988 12.5158H124.337L95.4015 47.357C97.2834 47.2152 98.0154 47.1685 99.5573 47.1685C100.733 47.1685 102.511 47.2394 104.89 47.3803L110.039 47.6397C111.895 47.7573 113.464 47.804 114.666 47.804C117.305 47.804 119.031 47.6155 120.756 47.1452C122.084 46.7725 123.344 46.2261 124.494 45.5215C126.532 44.2505 128.493 42.2049 129.696 40.1809C129.801 39.9691 129.983 39.663 130.193 39.2402L131.761 39.593C131.265 41.3343 130.977 41.9922 130.219 43.545C128.651 46.6506 126.899 48.7447 124.494 50.3675C122.011 52.0145 119.266 52.8376 115.999 52.8843H115.528C113.124 52.8843 111.242 52.6958 105.49 51.8961C99.6351 51.0955 96.6552 50.8136 93.7011 50.8136C91.7404 50.8136 89.9114 50.9545 88.0025 51.2373C85.4933 51.59 84.5 51.8494 82.2261 52.7901C88.6039 59.0713 97.8051 63 108 63C127.342 63 143 48.9081 143 31.4996C143 14.0911 127.343 0 108 0Z" fill="#2857AF"/>
<path d="M31.9386 77.3414H5.38815L2.0991 83.8934C3.1872 83.353 3.62701 83.1657 4.58564 82.8369C6.08785 82.2966 7.74523 81.8736 9.37786 81.5923C10.7506 81.3808 12.0462 81.2867 14.1177 81.2401C15.0507 81.1935 15.9312 81.1935 16.7594 81.1935H20.6711L0 107.99H29.2188L32.6117 100.991C31.4198 101.602 31.0057 101.813 30.1251 102.166C28.4154 102.87 26.5505 103.387 24.6599 103.693C23.1576 103.927 21.4479 104.068 19.3498 104.116C18.6501 104.139 17.7438 104.139 16.6557 104.139H11.4751L31.9386 77.3414V77.3414ZM121.15 107.99C120.632 107.567 120.45 107.379 120.114 106.909C119.881 106.605 119.726 106.275 119.569 105.97C119.284 105.266 119.103 104.255 119.103 103.27V84.81L119.129 83.025C119.154 80.982 119.207 80.4184 119.491 79.5725C119.595 79.2437 119.776 78.9381 119.958 78.6335C120.321 78.0931 120.554 77.8584 121.253 77.3414H110.4C111.1 77.905 111.333 78.1164 111.643 78.5627C111.873 78.8648 112.048 79.1971 112.161 79.5492C112.42 80.301 112.498 81.0286 112.524 82.8611V103.036C112.524 104.116 112.316 105.267 112.006 106.018C111.85 106.328 111.668 106.626 111.462 106.91C111.203 107.239 111.021 107.427 110.426 107.991H121.15V107.99ZM155.083 77.6227C154.254 77.388 153.917 77.2939 153.036 77.129C151.093 76.7536 149.202 76.5887 147.079 76.5887C143.452 76.5887 140.318 77.1049 137.443 78.2097C135.759 78.8441 134.179 79.6891 132.806 80.6989C128.635 83.7518 126.382 88.1443 126.382 93.2402C126.382 98.3361 128.558 102.4 132.547 105.265C135.836 107.614 140.084 108.811 145.161 108.811C148.348 108.811 151.326 108.388 154.668 107.426C154.77 107.402 154.978 107.355 155.211 107.285V101.719C154.408 102.188 154.123 102.353 153.631 102.611C152.984 102.963 152.284 103.269 151.559 103.55C149.512 104.325 147.673 104.702 145.652 104.702C142.156 104.702 139.151 103.574 136.95 101.39C134.773 99.2527 133.582 96.2697 133.582 92.9113C133.582 89.5529 134.671 86.7106 136.639 84.6443C137.467 83.7276 138.504 82.9767 139.696 82.3665C141.613 81.4032 143.814 80.9104 146.224 80.9104C148.296 80.9104 150.29 81.2625 152.312 82.0143C153.555 82.4606 154.021 82.6953 155.083 83.4005V77.6236V77.6227ZM184.717 94.086V101.555C184.717 103.222 184.69 103.809 184.56 104.678C184.51 105.131 184.388 105.573 184.198 105.994C183.965 106.558 183.576 107.098 182.98 107.591C182.876 107.685 182.721 107.825 182.514 107.99H193.315C192.875 107.591 192.693 107.403 192.409 107.027C192.123 106.698 191.916 106.369 191.787 106.04C191.451 105.313 191.373 104.772 191.347 103.269C191.321 102.353 191.321 101.836 191.321 101.672L191.347 84.8091V83.0009C191.347 81.6622 191.451 80.6057 191.71 79.7598C191.839 79.3602 192.02 78.9848 192.253 78.6326C192.59 78.1164 192.849 77.8575 193.575 77.3414H182.566C183.188 77.8342 183.421 78.0457 183.784 78.6102C184.043 78.9623 184.224 79.3145 184.354 79.6666C184.613 80.3942 184.717 81.2634 184.717 82.8835V90.3288H169.563V84.7392C169.563 83.0484 169.59 81.9444 169.667 81.0986C169.693 80.6057 169.796 80.1595 169.926 79.7831C170.159 79.1021 170.781 78.2097 171.324 77.6693C171.401 77.5986 171.532 77.5045 171.713 77.3405H160.885C161.532 77.9507 161.688 78.1389 161.999 78.5385C162.232 78.8441 162.414 79.1962 162.569 79.5725C162.854 80.3476 162.906 80.7706 162.932 82.8136L162.957 84.7392V101.508C162.957 103.222 162.932 103.974 162.828 104.749C162.777 105.161 162.664 105.564 162.491 105.947C162.232 106.628 161.817 107.145 161.195 107.685C161.118 107.756 160.988 107.85 160.833 107.991H171.531C171.064 107.545 170.884 107.357 170.625 106.981C170.417 106.676 170.236 106.37 170.08 106.018C169.743 105.219 169.614 104.633 169.588 103.34C169.561 102.683 169.561 102.072 169.561 101.508V94.0869H184.715L184.717 94.086ZM86.0772 92.2303C86.5694 92.2303 87.1396 92.1837 87.8383 92.0896C89.6519 91.8548 90.8951 91.4785 92.086 90.845C92.7334 90.4928 93.2522 90.1165 93.6663 89.6944C94.5469 88.802 94.9876 87.6272 94.9876 86.2419C94.9876 84.6451 94.3917 83.353 93.2522 82.4606C92.6049 81.9669 91.8014 81.5914 90.9722 81.3566C89.6776 81.0278 88.0716 80.8629 86.4132 80.8629H85.5327V92.207C85.7916 92.2303 85.8954 92.2303 86.0772 92.2303V92.2303ZM85.5327 101.695V103.222C85.5584 104.632 85.6878 105.383 85.9734 106.064C86.1286 106.369 86.3104 106.698 86.5694 106.98C86.855 107.356 87.0101 107.521 87.5023 107.99H76.7526C77.3743 107.473 77.5818 107.286 77.8665 106.909C78.1254 106.628 78.3072 106.299 78.4624 105.946C78.747 105.265 78.8508 104.443 78.8508 102.987V82.8835C78.8508 81.2625 78.747 80.3002 78.5138 79.6192C78.3843 79.2238 78.1825 78.851 77.9179 78.5152C77.6075 78.069 77.4 77.8342 76.7774 77.3414H85.507C86.5941 77.3414 87.6308 77.3647 88.6409 77.388C91.3349 77.4579 92.9152 77.5994 94.4174 77.9283C96.5936 78.3745 98.5366 79.3611 99.9093 80.6765C101.438 82.1093 102.189 83.8234 102.189 85.7025C102.189 86.5009 102.06 87.276 101.774 88.051C101.282 89.4364 100.453 90.5403 99.1325 91.5502C97.9407 92.4426 96.646 93.1236 94.9619 93.7347C94.366 93.9462 94.1071 94.0394 93.4597 94.2043L98.7184 99.8172C99.3401 100.498 100.169 101.321 101.179 102.306C102.76 103.857 103.821 104.843 104.987 105.853C105.472 106.267 105.964 106.675 106.464 107.074C106.904 107.403 107.111 107.567 107.681 107.99H103.459C102.812 107.99 102.242 107.99 101.698 107.967C100.222 107.92 99.3153 107.708 98.331 107.238C97.1915 106.698 96.052 105.852 94.8344 104.726C94.4717 104.397 93.9281 103.833 93.2027 103.082C92.5554 102.424 92.0889 101.93 91.8033 101.602L85.5346 94.7912V101.696L85.5327 101.695ZM71.2598 77.3647H60.4835C61.1308 77.8342 61.364 78.0457 61.701 78.5385C61.9343 78.8674 62.0894 79.2195 62.2189 79.5725C62.4264 80.3235 62.5045 81.0519 62.5045 82.7894V94.4382C62.5045 96.9507 62.4264 98.4077 62.2199 99.629C62.0904 100.451 61.7791 101.203 61.3383 101.884C60.5358 103.128 59.007 104.091 57.1944 104.514C56.469 104.678 55.6655 104.749 54.7859 104.749C51.8843 104.749 49.3978 103.763 48.2059 102.166C47.273 100.897 46.9883 99.7231 46.9626 96.5761L46.9369 94.0394V84.81C46.9369 83.0251 46.9626 82.1559 47.015 81.2401C47.0664 80.6998 47.1445 80.2302 47.2739 79.8548C47.5072 79.1505 48.0774 78.2105 48.6467 77.6236C48.6981 77.577 48.7761 77.4829 48.9056 77.3655H37.9227C38.5967 77.8584 38.829 78.094 39.1403 78.6102C39.3735 78.939 39.5287 79.2912 39.6324 79.6675C39.7619 80.137 39.84 80.6066 39.84 81.0761C39.8657 81.3817 39.8657 82.0152 39.8657 82.9784L39.8914 84.7401V93.5233C39.8914 96.7876 39.8914 97.6102 40.0209 98.9247C40.2284 101.156 40.9795 102.941 42.4036 104.561C44.9425 107.473 49.0608 109 54.3195 109C56.8317 109 59.2411 108.648 61.1061 108.037C63.049 107.379 64.8359 106.298 66.1315 104.984C67.6861 103.41 68.5924 101.461 68.8513 99.0421C69.0331 97.6326 69.0845 95.9892 69.0845 93.5699V84.7625L69.0588 83.0242V82.672C69.0588 81.3566 69.1369 80.5815 69.3444 79.8772C69.4739 79.431 69.6548 79.0081 69.9403 78.6326C70.303 78.1164 70.5363 77.8808 71.2617 77.3638L71.2598 77.3647ZM205.285 67.4059H206.191C207.175 67.4059 208.315 67.077 208.315 65.9964C208.315 64.7276 207.305 64.6577 206.165 64.6577H205.284V67.405L205.285 67.4059ZM204.457 64H206.659C208.161 64 209.145 64.5869 209.145 65.9964C209.145 66.983 208.316 67.664 207.255 67.7814V67.8047C207.929 67.8754 208.29 68.2043 208.549 68.7437L210 71.7267H209.067L207.85 69.0968C207.357 68.1102 206.787 68.0869 205.985 68.0869H205.285V71.7267H204.457V64V64Z" fill="#00467F"/>
<path d="M207 73.2536C203.578 73.2536 200.804 70.6731 200.804 67.5129C200.804 64.3526 203.578 61.7242 207 61.7242C210.423 61.7242 213.197 64.3296 213.197 67.5129C213.197 70.6961 210.422 73.2536 207 73.2536ZM207 61C203.163 61 200 63.9182 200 67.512C200 71.1057 203.162 74 207 74C210.837 74 214 71.0818 214 67.512C214 63.9422 210.863 61 207 61" fill="#00467F"/>
</svg>
